font.ufo
<glyph name="exclam" format="1">
  <advance width="477"/>
  <unicode hex="0021"/>
  <outline>
    <contour>
      <point x="351" y="550" type="line"/>
      <point x="503" y="917" type="line"/>
      <point x="453" y="977"/>
      <point x="326" y="1001"/>
      <point x="233" y="959" type="curve"/>
      <point x="193" y="624" type="line"/>
      <point x="140" y="316" type="line"/>
      <point x="218" y="255"/>
      <point x="264" y="266"/>
      <point x="294" y="315" type="curve"/>
    </contour>
    <contour>
      <point x="300" y="91" type="curve"/>
      <point x="292" y="156"/>
      <point x="236" y="228"/>
      <point x="189" y="228" type="curve"/>
      <point x="122" y="219"/>
      <point x="67" y="151"/>
      <point x="50" y="79" type="curve"/>
      <point x="55" y="29"/>
      <point x="91" y="-8"/>
      <point x="135" y="-8" type="curve"/>
      <point x="193" y="-8"/>
      <point x="253" y="30"/>
    </contour>
  </outline>
</glyph>
<glyph name="quotedbl" format="1">
  <advance width="457"/>
  <unicode hex="0022"/>
  <outline>
    <contour>
      <point x="110" y="677" type="line"/>
      <point x="149" y="658"/>
      <point x="193" y="657"/>
      <point x="229" y="661" type="curve"/>
      <point x="310" y="825" type="line"/>
      <point x="326" y="920" type="line"/>
      <point x="289" y="934"/>
      <point x="228" y="934"/>
      <point x="157" y="920" type="curve"/>
    </contour>
    <contour>
      <point x="325" y="677" type="line"/>
      <point x="359" y="658"/>
      <point x="399" y="657"/>
      <point x="431" y="661" type="curve"/>
      <point x="523" y="825" type="line"/>
      <point x="537" y="920" type="line"/>
      <point x="502" y="934"/>
      <point x="439" y="934"/>
      <point x="370" y="920" type="curve"/>
    </contour>
  </outline>
</glyph>
<glyph name="numbersign" format="1">
  <advance width="938"/>
  <unicode hex="0023"/>
  <outline>
    <contour>
      <point x="472" y="634" type="line"/>
      <point x="552" y="847" type="line"/>
      <point x="501" y="895"/>
      <point x="384" y="895"/>
      <point x="316" y="875" type="curve"/>
      <point x="226" y="432" type="line"/>
      <point x="129" y="0" type="line"/>
      <point x="181" y="-50"/>
      <point x="283" y="-54"/>
      <point x="349" y="-34" type="curve"/>
      <point x="377" y="261" type="line"/>
    </contour>
    <contour>
      <point x="822" y="634" type="line"/>
      <point x="901" y="847" type="line"/>
      <point x="851" y="895"/>
      <point x="734" y="895"/>
      <point x="667" y="875" type="curve"/>
      <point x="578" y="446" type="line"/>
      <point x="479" y="0" type="line"/>
      <point x="531" y="-50"/>
      <point x="633" y="-54"/>
      <point x="699" y="-34" type="curve"/>
      <point x="727" y="261" type="line"/>
    </contour>
    <contour>
      <point x="467" y="293" type="line"/>
      <point x="54" y="297" type="line"/>
      <point x="35" y="256"/>
      <point x="32" y="228"/>
      <point x="50" y="206" type="curve"/>
      <point x="863" y="219" type="line"/>
      <point x="889" y="263"/>
      <point x="892" y="299"/>
      <point x="870" y="315" type="curve"/>
    </contour>
    <contour>
      <point x="543" y="595" type="line"/>
      <point x="104" y="601" type="line"/>
      <point x="85" y="559"/>
      <point x="82" y="532"/>
      <point x="103" y="510" type="curve"/>
      <point x="940" y="521" type="line"/>
      <point x="966" y="568"/>
      <point x="967" y="602"/>
      <point x="948" y="617" type="curve"/>
    </contour>
  </outline>
</glyph>
<glyph name="percent" format="1">
  <advance width="979"/>
  <unicode hex="0025"/>
  <outline>
    <contour>
      <point x="259" y="768" type="curve" smooth="yes"/>
      <point x="156" y="768"/>
      <point x="97" y="679"/>
      <point x="79" y="552" type="curve" smooth="yes"/>
      <point x="57" y="419"/>
      <point x="135" y="323"/>
      <point x="227" y="323" type="curve" smooth="yes"/>
      <point x="354" y="323"/>
      <point x="431" y="413"/>
      <point x="449" y="550" type="curve" smooth="yes"/>
      <point x="460" y="642"/>
      <point x="393" y="768"/>
    </contour>
    <contour>
      <point x="262" y="681" type="curve"/>
      <point x="279" y="679"/>
      <point x="292" y="674"/>
      <point x="303" y="666" type="curve"/>
      <point x="306" y="644"/>
      <point x="305" y="597"/>
      <point x="296" y="548" type="curve" smooth="yes"/>
      <point x="282" y="477"/>
      <point x="267" y="429"/>
      <point x="260" y="402" type="curve"/>
      <point x="238" y="411"/>
      <point x="224" y="421"/>
      <point x="213" y="439" type="curve"/>
      <point x="214" y="464"/>
      <point x="217" y="497"/>
      <point x="228" y="547" type="curve" smooth="yes"/>
      <point x="241" y="608"/>
      <point x="245" y="634"/>
    </contour>
    <contour>
      <point x="755" y="430" type="curve" smooth="yes"/>
      <point x="652" y="429"/>
      <point x="593" y="341"/>
      <point x="575" y="213" type="curve" smooth="yes"/>
      <point x="553" y="81"/>
      <point x="631" y="-14"/>
      <point x="723" y="-14" type="curve" smooth="yes"/>
      <point x="850" y="-14"/>
      <point x="927" y="74"/>
      <point x="945" y="212" type="curve" smooth="yes"/>
      <point x="956" y="305"/>
      <point x="889" y="430"/>
    </contour>
    <contour>
      <point x="758" y="342" type="curve"/>
      <point x="775" y="341"/>
      <point x="788" y="336"/>
      <point x="799" y="327" type="curve"/>
      <point x="802" y="305"/>
      <point x="801" y="260"/>
      <point x="792" y="209" type="curve" smooth="yes"/>
      <point x="778" y="139"/>
      <point x="763" y="91"/>
      <point x="756" y="64" type="curve"/>
      <point x="734" y="73"/>
      <point x="720" y="84"/>
      <point x="709" y="100" type="curve"/>
      <point x="710" y="127"/>
      <point x="713" y="158"/>
      <point x="724" y="209" type="curve" smooth="yes"/>
      <point x="737" y="270"/>
      <point x="741" y="296"/>
    </contour>
    <component base="fraction" xOffset="168"/>
  </outline>
</glyph>
<glyph name="quotesingle" format="1">
  <advance width="232"/>
  <unicode hex="0027"/>
  <outline>
    <contour>
      <point x="100" y="677" type="line"/>
      <point x="139" y="658"/>
      <point x="183" y="657"/>
      <point x="219" y="661" type="curve"/>
      <point x="300" y="825" type="line"/>
      <point x="316" y="920" type="line"/>
      <point x="279" y="934"/>
      <point x="218" y="934"/>
      <point x="147" y="920" type="curve"/>
    </contour>
  </outline>
</glyph>
<glyph name="parenright" format="1">
  <advance width="641"/>
  <unicode hex="0029"/>
  <outline>
    <contour>
      <point x="117" y="-119" type="curve"/>
      <point x="333" y="-7"/>
      <point x="497" y="163"/>
      <point x="521" y="417" type="curve" smooth="yes"/>
      <point x="545" y="647"/>
      <point x="407" y="856"/>
      <point x="284" y="956" type="curve"/>
      <point x="221" y="966"/>
      <point x="180" y="941"/>
      <point x="164" y="905" type="curve"/>
      <point x="262" y="790"/>
      <point x="315" y="634"/>
      <point x="292" y="443" type="curve" smooth="yes"/>
      <point x="275" y="306"/>
      <point x="238" y="183"/>
      <point x="156" y="69" type="curve"/>
      <point x="12" y="-29" type="line"/>
      <point x="10" y="-80"/>
      <point x="52" y="-125"/>
    </contour>
  </outline>
</glyph>
<glyph name="plus" format="1">
  <advance width="774"/>
  <unicode hex="002B"/>
  <outline>
    <contour>
      <point x="440" y="394" type="line"/>
      <point x="483" y="622" type="line"/>
      <point x="449" y="660"/>
      <point x="402" y="674"/>
      <point x="386" y="658" type="curve"/>
      <point x="349" y="394" type="line"/>
      <point x="116" y="407" type="line"/>
      <point x="89" y="370"/>
      <point x="84" y="329"/>
      <point x="98" y="308" type="curve"/>
      <point x="333" y="305" type="line"/>
      <point x="282" y="78" type="line"/>
      <point x="314" y="46"/>
      <point x="354" y="34"/>
      <point x="376" y="46" type="curve"/>
      <point x="424" y="303" type="line"/>
      <point x="683" y="299" type="line"/>
      <point x="716" y="340"/>
      <point x="723" y="389"/>
      <point x="704" y="402" type="curve"/>
    </contour>
  </outline>
</glyph>
<glyph name="comma" format="1">
  <advance width="323"/>
  <unicode hex="002C"/>
  <outline>
    <contour>
      <point x="233" y="64" type="curve"/>
      <point x="220" y="118"/>
      <point x="138" y="194"/>
      <point x="26" y="130" type="curve"/>
      <point x="21" y="-57" type="line"/>
      <point x="-57" y="-149" type="line"/>
      <point x="-53" y="-179"/>
      <point x="-30" y="-197"/>
      <point x="13" y="-204" type="curve"/>
      <point x="150" y="-129"/>
      <point x="215" y="-34"/>
    </contour>
  </outline>
</glyph>
<glyph name="period" format="1">
  <advance width="332"/>
  <unicode hex="002E"/>
  <outline>
    <contour>
      <point x="97" y="0" type="curve"/>
      <point x="152" y="0"/>
      <point x="208" y="34"/>
      <point x="251" y="94" type="curve"/>
      <point x="246" y="154"/>
      <point x="195" y="221"/>
      <point x="151" y="221" type="curve"/>
      <point x="86" y="213"/>
      <point x="33" y="150"/>
      <point x="18" y="81" type="curve"/>
      <point x="21" y="33"/>
      <point x="54" y="0"/>
    </contour>
  </outline>
</glyph>
<glyph name="four" format="1">
  <advance width="718"/>
  <unicode hex="0034"/>
  <outline>
    <contour>
      <point x="697" y="664" type="line"/>
      <point x="656" y="723"/>
      <point x="575" y="762"/>
      <point x="452" y="762" type="curve" smooth="yes"/>
      <point x="424" y="762"/>
      <point x="391" y="759"/>
      <point x="355" y="754" type="curve"/>
      <point x="-3" y="263" type="line"/>
      <point x="-11" y="217"/>
      <point x="6" y="183"/>
      <point x="41" y="157" type="curve"/>
      <point x="315" y="175" type="line"/>
      <point x="669" y="161" type="line"/>
      <point x="695" y="186"/>
      <point x="699" y="240"/>
      <point x="684" y="275" type="curve"/>
      <point x="310" y="260" type="line"/>
      <point x="257" y="265" type="line"/>
      <point x="375" y="495" type="line"/>
      <point x="464" y="644" type="line"/>
      <point x="474" y="639" type="line"/>
      <point x="381" y="343" type="line"/>
      <point x="308" y="37" type="line"/>
      <point x="363" y="-15"/>
      <point x="488" y="-22"/>
      <point x="554" y="0" type="curve"/>
      <point x="571" y="208" type="line"/>
      <point x="637" y="526" type="line"/>
    </contour>
  </outline>
</glyph>
<glyph name="six" format="1">
  <advance width="639"/>
  <unicode hex="0036"/>
  <outline>
    <contour>
      <point x="581" y="758" type="curve"/>
      <point x="221" y="750"/>
      <point x="44" y="595"/>
      <point x="13" y="369" type="curve" smooth="yes"/>
      <point x="-19" y="131"/>
      <point x="133" y="-4"/>
      <point x="282" y="-3" type="curve" smooth="yes"/>
      <point x="441" y="-2"/>
      <point x="601" y="152"/>
      <point x="618" y="308" type="curve" smooth="yes"/>
      <point x="633" y="426"/>
      <point x="570" y="505"/>
      <point x="469" y="505" type="curve" smooth="yes"/>
      <point x="340" y="505"/>
      <point x="229" y="377"/>
      <point x="190" y="122" type="curve"/>
      <point x="248" y="125" type="line"/>
      <point x="277" y="229"/>
      <point x="322" y="330"/>
      <point x="373" y="354" type="curve"/>
      <point x="393" y="342"/>
      <point x="397" y="305"/>
      <point x="389" y="256" type="curve" smooth="yes"/>
      <point x="378" y="193"/>
      <point x="333" y="135"/>
      <point x="294" y="134" type="curve" smooth="yes"/>
      <point x="255" y="134"/>
      <point x="206" y="149"/>
      <point x="221" y="276" type="curve"/>
      <point x="230" y="414"/>
      <point x="260" y="504"/>
      <point x="334" y="580" type="curve"/>
      <point x="396" y="595"/>
      <point x="508" y="600"/>
      <point x="575" y="593" type="curve"/>
      <point x="613" y="649"/>
      <point x="622" y="734"/>
    </contour>
  </outline>
</glyph>
<glyph name="colon" format="1">
  <advance width="330"/>
  <unicode hex="003A"/>
  <outline>
    <contour>
      <point x="94" y="0" type="curve"/>
      <point x="149" y="0"/>
      <point x="205" y="34"/>
      <point x="248" y="94" type="curve"/>
      <point x="243" y="154"/>
      <point x="191" y="221"/>
      <point x="147" y="221" type="curve"/>
      <point x="83" y="213"/>
      <point x="30" y="150"/>
      <point x="14" y="81" type="curve"/>
      <point x="18" y="33"/>
      <point x="51" y="0"/>
    </contour>
    <contour>
      <point x="154" y="340" type="curve"/>
      <point x="209" y="340"/>
      <point x="265" y="374"/>
      <point x="308" y="432" type="curve"/>
      <point x="304" y="493"/>
      <point x="252" y="561"/>
      <point x="208" y="561" type="curve"/>
      <point x="143" y="552"/>
      <point x="90" y="488"/>
      <point x="75" y="420" type="curve"/>
      <point x="78" y="373"/>
      <point x="111" y="340"/>
    </contour>
  </outline>
</glyph>
<glyph name="semicolon" format="1">
  <advance width="331"/>
  <unicode hex="003B"/>
  <outline>
    <contour>
      <point x="154" y="340" type="curve"/>
      <point x="209" y="340"/>
      <point x="265" y="374"/>
      <point x="308" y="432" type="curve"/>
      <point x="304" y="493"/>
      <point x="252" y="561"/>
      <point x="208" y="561" type="curve"/>
      <point x="143" y="552"/>
      <point x="90" y="488"/>
      <point x="75" y="420" type="curve"/>
      <point x="78" y="373"/>
      <point x="111" y="340"/>
    </contour>
    <contour>
      <point x="244" y="64" type="curve"/>
      <point x="231" y="118"/>
      <point x="149" y="194"/>
      <point x="37" y="130" type="curve"/>
      <point x="32" y="-57" type="line"/>
      <point x="-46" y="-149" type="line"/>
      <point x="-42" y="-179"/>
      <point x="-19" y="-197"/>
      <point x="24" y="-204" type="curve"/>
      <point x="161" y="-129"/>
      <point x="226" y="-34"/>
    </contour>
  </outline>
</glyph>
<glyph name="equal" format="1">
  <advance width="693"/>
  <unicode hex="003D"/>
  <outline>
    <contour>
      <point x="660" y="497" type="curve"/>
      <point x="381" y="476" type="line"/>
      <point x="105" y="482" type="line"/>
      <point x="79" y="446"/>
      <point x="75" y="403"/>
      <point x="90" y="384" type="curve"/>
      <point x="644" y="395" type="line"/>
      <point x="675" y="436"/>
      <point x="680" y="485"/>
    </contour>
    <contour>
      <point x="626" y="315" type="curve"/>
      <point x="347" y="294" type="line"/>
      <point x="70" y="299" type="line"/>
      <point x="45" y="263"/>
      <point x="41" y="220"/>
      <point x="56" y="201" type="curve"/>
      <point x="609" y="212" type="line"/>
      <point x="641" y="253"/>
      <point x="646" y="303"/>
    </contour>
  </outline>
</glyph>
<glyph name="greater" format="1">
  <advance width="608"/>
  <unicode hex="003E"/>
  <outline>
    <contour>
      <point x="112" y="509" type="curve"/>
      <point x="254" y="440" type="line"/>
      <point x="396" y="356" type="line"/>
      <point x="64" y="219" type="line"/>
      <point x="37" y="163"/>
      <point x="55" y="111"/>
      <point x="80" y="100" type="curve"/>
      <point x="308" y="210" type="line"/>
      <point x="551" y="314" type="line"/>
      <point x="565" y="337"/>
      <point x="570" y="359"/>
      <point x="563" y="384" type="curve"/>
      <point x="163" y="607" type="line"/>
      <point x="128" y="585"/>
      <point x="105" y="562"/>
    </contour>
  </outline>
</glyph>
<glyph name="A" format="1">
  <advance width="801"/>
  <unicode hex="0041"/>
  <outline>
    <contour>
      <point x="486" y="753" type="move" name="top"/>
    </contour>
    <contour>
      <point x="648" y="0" type="move" name="ogonek"/>
    </contour>
    <contour>
      <point x="475" y="346" type="line"/>
      <point x="55" y="347" type="line"/>
      <point x="19" y="299"/>
      <point x="20" y="273"/>
      <point x="52" y="241" type="curve"/>
      <point x="338" y="264" type="line"/>
      <point x="782" y="295" type="line"/>
      <point x="811" y="343"/>
      <point x="812" y="374"/>
      <point x="786" y="398" type="curve"/>
    </contour>
    <contour>
      <point x="705" y="28" type="curve"/>
      <point x="652" y="562" type="line"/>
      <point x="676" y="726" type="line"/>
      <point x="621" y="757"/>
      <point x="452" y="771"/>
      <point x="297" y="707" type="curve"/>
      <point x="250" y="511" type="line"/>
      <point x="15" y="51" type="line"/>
      <point x="42" y="3"/>
      <point x="194" y="-19"/>
      <point x="264" y="28" type="curve"/>
      <point x="451" y="604" type="line"/>
      <point x="467" y="607" type="line"/>
      <point x="476" y="340" type="line"/>
      <point x="419" y="45" type="line"/>
      <point x="499" y="-8"/>
      <point x="662" y="-18"/>
    </contour>
  </outline>
</glyph>
<glyph name="E" format="1">
  <advance width="727"/>
  <unicode hex="0045"/>
  <outline>
    <contour>
      <point x="453" y="753" type="move" name="top"/>
    </contour>
    <contour>
      <point x="576" y="0" type="move" name="ogonek"/>
    </contour>
    <contour>
      <point x="541" y="636" type="curve"/>
      <point x="640" y="542" type="line"/>
      <point x="734" y="585"/>
      <point x="768" y="652"/>
      <point x="728" y="741" type="curve"/>
      <point x="489" y="758"/>
      <point x="353" y="755"/>
      <point x="109" y="735" type="curve"/>
      <point x="92" y="718"/>
      <point x="89" y="683"/>
      <point x="99" y="652" type="curve"/>
      <point x="129" y="645"/>
      <point x="152" y="637"/>
      <point x="173" y="629" type="curve"/>
      <point x="184" y="493" type="line"/>
      <point x="148" y="341"/>
      <point x="124" y="282"/>
      <point x="70" y="133" type="curve"/>
      <point x="76" y="66"/>
      <point x="130" y="24"/>
      <point x="233" y="0" type="curve"/>
      <point x="638" y="24" type="line"/>
      <point x="681" y="76"/>
      <point x="703" y="164"/>
      <point x="627" y="188" type="curve"/>
      <point x="526" y="161"/>
      <point x="400" y="139"/>
      <point x="301" y="123" type="curve"/>
      <point x="336" y="326" type="line"/>
      <point x="424" y="325"/>
      <point x="504" y="319"/>
      <point x="581" y="311" type="curve"/>
      <point x="606" y="355"/>
      <point x="623" y="417"/>
      <point x="580" y="450" type="curve"/>
      <point x="500" y="443"/>
      <point x="429" y="430"/>
      <point x="348" y="418" type="curve"/>
      <point x="374" y="554" type="line"/>
      <point x="405" y="628" type="line"/>
      <point x="465" y="639"/>
      <point x="497" y="636"/>
    </contour>
  </outline>
</glyph>
<glyph name="F" format="1">
  <advance width="697"/>
  <unicode hex="0046"/>
  <outline>
    <contour>
      <point x="405" y="628" type="line"/>
      <point x="465" y="639"/>
      <point x="497" y="636"/>
      <point x="541" y="636" type="curve"/>
      <point x="640" y="542" type="line"/>
      <point x="734" y="585"/>
      <point x="768" y="652"/>
      <point x="728" y="741" type="curve"/>
      <point x="489" y="758"/>
      <point x="353" y="755"/>
      <point x="109" y="735" type="curve"/>
      <point x="92" y="718"/>
      <point x="89" y="683"/>
      <point x="99" y="652" type="curve"/>
      <point x="129" y="645"/>
      <point x="152" y="637"/>
      <point x="173" y="629" type="curve"/>
      <point x="184" y="493" type="line"/>
      <point x="158" y="333"/>
      <point x="124" y="215"/>
      <point x="57" y="56" type="curve"/>
      <point x="97" y="0"/>
      <point x="265" y="-18"/>
      <point x="319" y="30" type="curve"/>
      <point x="319" y="152"/>
      <point x="320" y="213"/>
      <point x="330" y="302" type="curve"/>
      <point x="424" y="301"/>
      <point x="503" y="297"/>
      <point x="574" y="286" type="curve"/>
      <point x="609" y="338"/>
      <point x="610" y="404"/>
      <point x="575" y="426" type="curve"/>
      <point x="504" y="419"/>
      <point x="420" y="407"/>
      <point x="343" y="393" type="curve"/>
      <point x="374" y="554" type="line"/>
    </contour>
  </outline>
</glyph>
<glyph name="J" format="1">
  <advance width="744"/>
  <unicode hex="004A"/>
  <outline>
    <contour>
      <point x="141" y="735" type="curve"/>
      <point x="120" y="685"/>
      <point x="124" y="641"/>
      <point x="168" y="584" type="curve"/>
      <point x="552" y="635" type="line"/>
      <point x="766" y="589" type="line"/>
      <point x="820" y="667"/>
      <point x="812" y="711"/>
      <point x="789" y="741" type="curve"/>
      <point x="523" y="760"/>
      <point x="400" y="756"/>
    </contour>
    <contour>
      <point x="533" y="443" type="curve"/>
      <point x="586" y="657" type="line"/>
      <point x="528" y="730"/>
      <point x="438" y="728"/>
      <point x="381" y="682" type="curve"/>
      <point x="383" y="540" type="line"/>
      <point x="369" y="378"/>
      <point x="344" y="279"/>
      <point x="308" y="127" type="curve"/>
      <point x="285" y="119" type="line"/>
      <point x="259" y="164"/>
      <point x="251" y="184"/>
      <point x="236" y="260" type="curve"/>
      <point x="164" y="299"/>
      <point x="79" y="272"/>
      <point x="15" y="195" type="curve"/>
      <point x="58" y="100"/>
      <point x="122" y="45"/>
      <point x="201" y="8" type="curve"/>
      <point x="373" y="-19"/>
      <point x="460" y="21"/>
      <point x="527" y="101" type="curve"/>
      <point x="527" y="262"/>
      <point x="528" y="318"/>
    </contour>
  </outline>
</glyph>
<glyph name="K" format="1">
  <advance width="752"/>
  <unicode hex="004B"/>
  <outline>
    <contour>
      <point x="414" y="0" type="move" name="bottom"/>
    </contour>
    <contour>
      <point x="143" y="545" type="line"/>
      <point x="113" y="378"/>
      <point x="77" y="204"/>
      <point x="21" y="56" type="curve"/>
      <point x="46" y="3"/>
      <point x="220" y="-22"/>
      <point x="282" y="31" type="curve"/>
      <point x="294" y="194"/>
      <point x="298" y="343"/>
      <point x="309" y="460" type="curve"/>
      <point x="407" y="747" type="line"/>
      <point x="382" y="759"/>
      <point x="351" y="765"/>
      <point x="314" y="765" type="curve" smooth="yes"/>
      <point x="264" y="765"/>
      <point x="203" y="752"/>
      <point x="143" y="723" type="curve"/>
    </contour>
    <contour>
      <point x="275" y="319" type="line"/>
      <point x="334" y="348" type="line"/>
      <point x="332" y="201"/>
      <point x="401" y="76"/>
      <point x="552" y="0" type="curve"/>
      <point x="682" y="29"/>
      <point x="721" y="139"/>
      <point x="683" y="197" type="curve"/>
      <point x="526" y="211"/>
      <point x="444" y="272"/>
      <point x="394" y="405" type="curve"/>
      <point x="365" y="363" type="line"/>
      <point x="495" y="439"/>
      <point x="649" y="526"/>
      <point x="751" y="600" type="curve"/>
      <point x="761" y="690"/>
      <point x="701" y="750"/>
      <point x="574" y="765" type="curve"/>
      <point x="432" y="510" type="line"/>
      <point x="238" y="386" type="line"/>
    </contour>
  </outline>
</glyph>
<glyph name="L" format="1">
  <advance width="631"/>
  <unicode hex="004C"/>
  <outline>
    <contour>
      <point x="285" y="753" type="move" name="top"/>
    </contour>
    <contour>
      <point x="384" y="0" type="move" name="bottom"/>
    </contour>
    <contour>
      <point x="155" y="711" type="curve"/>
      <point x="157" y="541" type="line"/>
      <point x="127" y="403"/>
      <point x="89" y="277"/>
      <point x="35" y="132" type="curve"/>
      <point x="54" y="69"/>
      <point x="120" y="25"/>
      <point x="195" y="0" type="curve"/>
      <point x="559" y="44" type="line"/>
      <point x="590" y="79"/>
      <point x="609" y="167"/>
      <point x="540" y="196" type="curve"/>
      <point x="450" y="168"/>
      <point x="376" y="146"/>
      <point x="276" y="127" type="curve"/>
      <point x="314" y="434" type="line"/>
      <point x="419" y="735" type="line" smooth="yes"/>
      <point x="353" y="767"/>
      <point x="246" y="755"/>
    </contour>
  </outline>
</glyph>
<glyph name="M" format="1">
  <advance width="956"/>
  <unicode hex="004D"/>
  <outline>
    <contour>
      <point x="290" y="617" type="curve"/>
      <point x="355" y="621" type="line"/>
      <point x="299" y="459" type="line"/>
      <point x="292" y="348"/>
      <point x="283" y="199"/>
      <point x="271" y="31" type="curve"/>
      <point x="210" y="-22"/>
      <point x="35" y="3"/>
      <point x="11" y="56" type="curve"/>
      <point x="71" y="212"/>
      <point x="106" y="385"/>
      <point x="134" y="542" type="curve"/>
      <point x="140" y="709" type="line"/>
      <point x="188" y="738"/>
      <point x="235" y="753"/>
      <point x="283" y="753" type="curve" smooth="yes"/>
      <point x="325" y="753"/>
      <point x="368" y="741"/>
      <point x="411" y="715" type="curve"/>
      <point x="414" y="605"/>
      <point x="431" y="524"/>
      <point x="461" y="390" type="curve"/>
      <point x="518" y="278" type="line"/>
      <point x="459" y="249" type="line"/>
      <point x="649" y="500" type="line"/>
      <point x="754" y="721" type="line"/>
      <point x="792" y="736"/>
      <point x="839" y="753"/>
      <point x="882" y="753" type="curve" smooth="yes"/>
      <point x="927" y="753"/>
      <point x="967" y="743"/>
      <point x="986" y="715" type="curve"/>
      <point x="897" y="454" type="line"/>
      <point x="887" y="321"/>
      <point x="880" y="181"/>
      <point x="872" y="31" type="curve"/>
      <point x="810" y="-22"/>
      <point x="637" y="3"/>
      <point x="612" y="56" type="curve"/>
      <point x="665" y="207"/>
      <point x="694" y="328"/>
      <point x="711" y="435" type="curve"/>
      <point x="737" y="568" type="line"/>
      <point x="765" y="526" type="line"/>
      <point x="553" y="200" type="line"/>
      <point x="483" y="167"/>
      <point x="415" y="181"/>
      <point x="370" y="229" type="curve"/>
      <point x="317" y="390"/>
      <point x="302" y="496"/>
    </contour>
  </outline>
</glyph>
<glyph name="T" format="1">
  <advance width="727"/>
  <unicode hex="0054"/>
  <outline>
    <contour>
      <point x="425" y="753" type="move" name="top"/>
    </contour>
    <contour>
      <point x="371" y="0" type="move" name="bottom"/>
    </contour>
    <contour>
      <point x="318" y="549" type="line"/>
      <point x="287" y="342"/>
      <point x="256" y="215"/>
      <point x="201" y="56" type="curve"/>
      <point x="225" y="3"/>
      <point x="401" y="-22"/>
      <point x="463" y="31" type="curve"/>
      <point x="467" y="152"/>
      <point x="469" y="250"/>
      <point x="481" y="468" type="curve"/>
      <point x="546" y="707" type="line"/>
      <point x="497" y="735"/>
      <point x="419" y="733"/>
      <point x="316" y="682" type="curve"/>
    </contour>
    <contour>
      <point x="105" y="734" type="curve"/>
      <point x="84" y="684"/>
      <point x="88" y="640"/>
      <point x="132" y="583" type="curve"/>
      <point x="444" y="625" type="line"/>
      <point x="749" y="588" type="line"/>
      <point x="794" y="666"/>
      <point x="786" y="710"/>
      <point x="763" y="740" type="curve"/>
      <point x="497" y="759"/>
      <point x="364" y="755"/>
    </contour>
  </outline>
</glyph>
<glyph name="V" format="1">
  <advance width="767"/>
  <unicode hex="0056"/>
  <outline>
    <contour>
      <point x="368" y="370" type="line"/>
      <point x="372" y="741" type="line"/>
      <point x="322" y="782"/>
      <point x="169" y="770"/>
      <point x="90" y="674" type="curve"/>
      <point x="226" y="75" type="line"/>
      <point x="279" y="7"/>
      <point x="390" y="-17"/>
      <point x="484" y="11" type="curve"/>
      <point x="542" y="144" type="line"/>
      <point x="618" y="265"/>
      <point x="671" y="343"/>
      <point x="745" y="459" type="curve"/>
      <point x="790" y="527"/>
      <point x="820" y="628"/>
      <point x="812" y="715" type="curve"/>
      <point x="758" y="766"/>
      <point x="607" y="787"/>
      <point x="544" y="707" type="curve"/>
      <point x="600" y="462" type="line"/>
      <point x="378" y="60" type="line"/>
      <point x="418" y="78" type="line"/>
    </contour>
  </outline>
</glyph>
<glyph name="X" format="1">
  <advance width="812"/>
  <unicode hex="0058"/>
  <outline>
    <contour>
      <point x="469" y="405" type="curve"/>
      <point x="454" y="527"/>
      <point x="385" y="692"/>
      <point x="281" y="762" type="curve"/>
      <point x="150" y="753"/>
      <point x="85" y="657"/>
      <point x="96" y="552" type="curve"/>
      <point x="219" y="523"/>
      <point x="344" y="442"/>
      <point x="403" y="342" type="curve"/>
      <point x="425" y="222"/>
      <point x="490" y="92"/>
      <point x="587" y="0" type="curve"/>
      <point x="740" y="30"/>
      <point x="788" y="132"/>
      <point x="754" y="216" type="curve"/>
      <point x="654" y="250"/>
      <point x="550" y="308"/>
    </contour>
    <contour>
      <point x="686" y="763" type="curve"/>
      <point x="411" y="400" type="line"/>
      <point x="298" y="299"/>
      <point x="193" y="238"/>
      <point x="42" y="153" type="curve"/>
      <point x="29" y="84"/>
      <point x="64" y="8"/>
      <point x="210" y="0" type="curve"/>
      <point x="459" y="355" type="line"/>
      <point x="615" y="482"/>
      <point x="734" y="565"/>
      <point x="831" y="621" type="curve"/>
      <point x="840" y="698"/>
      <point x="801" y="772"/>
    </contour>
  </outline>
</glyph>
<glyph name="Y" format="1">
  <advance width="716"/>
  <unicode hex="0059"/>
  <outline>
    <contour>
      <point x="427" y="753" type="move" name="top"/>
    </contour>
    <contour>
      <point x="84" y="642" type="curve"/>
      <point x="144" y="562"/>
      <point x="221" y="431"/>
      <point x="289" y="297" type="curve"/>
      <point x="270" y="219"/>
      <point x="242" y="126"/>
      <point x="216" y="55" type="curve"/>
      <point x="252" y="0"/>
      <point x="416" y="-21"/>
      <point x="477" y="31" type="curve"/>
      <point x="485" y="156"/>
      <point x="490" y="242"/>
      <point x="502" y="343" type="curve"/>
      <point x="575" y="425"/>
      <point x="657" y="496"/>
      <point x="700" y="554" type="curve" smooth="yes"/>
      <point x="742" y="610"/>
      <point x="766" y="650"/>
      <point x="772" y="713" type="curve"/>
      <point x="726" y="770"/>
      <point x="624" y="788"/>
      <point x="502" y="729" type="curve"/>
      <point x="553" y="527" type="line"/>
      <point x="441" y="399" type="line"/>
      <point x="408" y="334" type="line"/>
      <point x="399" y="334" type="line"/>
      <point x="334" y="528" type="line"/>
      <point x="334" y="753" type="line"/>
      <point x="240" y="785"/>
      <point x="148" y="756"/>
    </contour>
  </outline>
</glyph>
<glyph name="Z" format="1">
  <advance width="776"/>
  <unicode hex="005A"/>
  <outline>
    <contour>
      <point x="465" y="753" type="move" name="top"/>
    </contour>
    <contour>
      <point x="243" y="80" type="line"/>
      <point x="361" y="52"/>
      <point x="464" y="31"/>
      <point x="595" y="0" type="curve"/>
      <point x="703" y="65"/>
      <point x="738" y="105"/>
      <point x="764" y="183" type="curve"/>
      <point x="744" y="252"/>
      <point x="676" y="287"/>
      <point x="548" y="260" type="curve"/>
      <point x="540" y="220"/>
      <point x="536" y="199"/>
      <point x="517" y="157" type="curve"/>
      <point x="455" y="155"/>
      <point x="349" y="162"/>
      <point x="289" y="168" type="curve"/>
      <point x="288" y="176" type="line"/>
      <point x="417" y="280"/>
      <point x="722" y="498"/>
      <point x="804" y="645" type="curve"/>
      <point x="791" y="753"/>
      <point x="703" y="764"/>
      <point x="596" y="763" type="curve"/>
      <point x="567" y="681" type="line"/>
      <point x="484" y="707"/>
      <point x="377" y="738"/>
      <point x="262" y="765" type="curve"/>
      <point x="169" y="733"/>
      <point x="112" y="672"/>
      <point x="76" y="584" type="curve"/>
      <point x="103" y="518"/>
      <point x="169" y="491"/>
      <point x="286" y="503" type="curve"/>
      <point x="300" y="548"/>
      <point x="319" y="584"/>
      <point x="354" y="623" type="curve"/>
      <point x="427" y="608"/>
      <point x="490" y="599"/>
      <point x="521" y="595" type="curve"/>
      <point x="527" y="586" type="line"/>
      <point x="417" y="419"/>
      <point x="24" y="232"/>
      <point x="24" y="90" type="curve" smooth="yes"/>
      <point x="24" y="58"/>
      <point x="32" y="28"/>
      <point x="64" y="4" type="curve"/>
      <point x="140" y="-6"/>
      <point x="194" y="2"/>
      <point x="246" y="36" type="curve"/>
      <point x="237" y="77" type="line"/>
    </contour>
  </outline>
</glyph>
<glyph name="backslash" format="1">
  <advance width="546"/>
  <unicode hex="005C"/>
  <outline>
    <contour>
      <point x="67" y="855" type="curve"/>
      <point x="357" y="-108" type="line"/>
      <point x="438" y="-130"/>
      <point x="468" y="-114"/>
      <point x="483" y="-70" type="curve"/>
      <point x="275" y="373" type="line"/>
      <point x="204" y="867" type="line" smooth="yes"/>
      <point x="125" y="900"/>
      <point x="98" y="894"/>
    </contour>
  </outline>
</glyph>
<glyph name="asciicircum" format="1">
  <advance width="652"/>
  <unicode hex="005E"/>
  <outline>
    <contour>
      <point x="56" y="427" type="line"/>
      <point x="60" y="394"/>
      <point x="100" y="378"/>
      <point x="148" y="380" type="curve"/>
      <point x="373" y="765" type="line"/>
      <point x="448" y="400" type="line"/>
      <point x="488" y="383"/>
      <point x="585" y="358"/>
      <point x="657" y="420" type="curve"/>
      <point x="534" y="836" type="line"/>
      <point x="480" y="867"/>
      <point x="415" y="877"/>
      <point x="329" y="863" type="curve"/>
    </contour>
  </outline>
</glyph>
<glyph name="grave" format="1">
  <advance width="328"/>
  <unicode hex="0060"/>
  <outline>
    <contour>
      <point x="260" y="563" type="move" name="_top"/>
    </contour>
    <contour>
      <point x="308" y="855" type="line"/>
      <point x="268" y="882"/>
      <point x="157" y="875"/>
      <point x="116" y="796" type="curve"/>
      <point x="203" y="725" type="line"/>
      <point x="275" y="623" type="line"/>
      <point x="310" y="609"/>
      <point x="359" y="623"/>
      <point x="379" y="652" type="curve"/>
    </contour>
  </outline>
</glyph>
<glyph name="a" format="1">
  <advance width="782"/>
  <unicode hex="0061"/>
  <outline>
    <contour>
      <point x="475" y="563" type="move" name="top"/>
    </contour>
    <contour>
      <point x="555" y="0" type="move" name="ogonek"/>
    </contour>
    <contour>
      <point x="496" y="288" type="line"/>
      <point x="443" y="248"/>
      <point x="375" y="197"/>
      <point x="318" y="158" type="curve"/>
      <point x="294" y="174"/>
      <point x="282" y="205"/>
      <point x="282" y="239" type="curve" smooth="yes"/>
      <point x="282" y="309"/>
      <point x="334" y="393"/>
      <point x="422" y="438" type="curve"/>
      <point x="453" y="420"/>
      <point x="484" y="384"/>
      <point x="504" y="343" type="curve"/>
      <point x="559" y="381" type="line"/>
      <point x="534" y="436"/>
      <point x="489" y="521"/>
      <point x="437" y="562" type="curve"/>
      <point x="184" y="554"/>
      <point x="36" y="378"/>
      <point x="36" y="235" type="curve" smooth="yes"/>
      <point x="36" y="122"/>
      <point x="111" y="23"/>
      <point x="304" y="15" type="curve"/>
      <point x="383" y="92"/>
      <point x="491" y="190"/>
      <point x="539" y="233" type="curve"/>
    </contour>
    <contour>
      <point x="549" y="552" type="curve"/>
      <point x="529" y="520"/>
      <point x="526" y="485"/>
      <point x="529" y="437" type="curve"/>
      <point x="504" y="343" type="line"/>
      <point x="496" y="288" type="line"/>
      <point x="450" y="173" type="line"/>
      <point x="478" y="143" type="line"/>
      <point x="435" y="57" type="line"/>
      <point x="512" y="-8"/>
      <point x="656" y="-19"/>
      <point x="698" y="31" type="curve"/>
      <point x="684" y="139"/>
      <point x="678" y="235"/>
      <point x="679" y="326" type="curve"/>
      <point x="778" y="499" type="line"/>
      <point x="754" y="567"/>
      <point x="688" y="578"/>
    </contour>
  </outline>
</glyph>
<glyph name="d" format="1">
  <advance width="751"/>
  <unicode hex="0064"/>
  <outline>
    <contour>
      <point x="496" y="288" type="line"/>
      <point x="443" y="248"/>
      <point x="374" y="197"/>
      <point x="317" y="158" type="curve"/>
      <point x="293" y="174"/>
      <point x="280" y="205"/>
      <point x="282" y="239" type="curve" smooth="yes"/>
      <point x="285" y="308"/>
      <point x="333" y="392"/>
      <point x="422" y="437" type="curve"/>
      <point x="458" y="417"/>
      <point x="485" y="385"/>
      <point x="513" y="343" type="curve"/>
      <point x="559" y="381" type="line"/>
      <point x="539" y="441"/>
      <point x="491" y="522"/>
      <point x="447" y="562" type="curve" smooth="yes"/>
      <point x="193" y="559"/>
      <point x="41" y="388"/>
      <point x="35" y="235" type="curve" smooth="yes"/>
      <point x="30" y="119"/>
      <point x="122" y="17"/>
      <point x="302" y="15" type="curve"/>
      <point x="386" y="97"/>
      <point x="493" y="193"/>
      <point x="539" y="233" type="curve"/>
    </contour>
    <contour>
      <point x="800" y="837" type="line"/>
      <point x="741" y="864"/>
      <point x="667" y="862"/>
      <point x="554" y="813" type="curve"/>
      <point x="566" y="538" type="line"/>
      <point x="553" y="470"/>
      <point x="535" y="404"/>
      <point x="513" y="343" type="curve"/>
      <point x="496" y="288" type="line"/>
      <point x="437" y="172" type="line"/>
      <point x="465" y="140" type="line"/>
      <point x="402" y="58" type="line"/>
      <point x="460" y="-11"/>
      <point x="613" y="-15"/>
      <point x="667" y="31" type="curve"/>
      <point x="693" y="262"/>
      <point x="714" y="425"/>
      <point x="728" y="589" type="curve"/>
    </contour>
  </outline>
</glyph>
<glyph name="f" format="1">
  <advance width="609"/>
  <unicode hex="0066"/>
  <outline>
    <contour>
      <point x="423" y="781" type="curve"/>
      <point x="461" y="743"/>
      <point x="470" y="709"/>
      <point x="473" y="641" type="curve"/>
      <point x="579" y="627"/>
      <point x="667" y="659"/>
      <point x="684" y="732" type="curve"/>
      <point x="649" y="823"/>
      <point x="619" y="869"/>
      <point x="486" y="898" type="curve"/>
      <point x="379" y="888"/>
      <point x="250" y="812"/>
      <point x="184" y="713" type="curve"/>
      <point x="225" y="481" type="line"/>
      <point x="193" y="366"/>
      <point x="132" y="193"/>
      <point x="74" y="57" type="curve"/>
      <point x="104" y="3"/>
      <point x="271" y="-22"/>
      <point x="339" y="31" type="curve"/>
      <point x="363" y="213"/>
      <point x="397" y="559"/>
      <point x="380" y="752" type="curve"/>
      <point x="384" y="766"/>
      <point x="400" y="776"/>
    </contour>
    <contour>
      <point x="233" y="472" type="line"/>
      <point x="69" y="476" type="line"/>
      <point x="36" y="425"/>
      <point x="37" y="395"/>
      <point x="70" y="359" type="curve"/>
      <point x="347" y="409" type="line"/>
      <point x="559" y="418" type="line"/>
      <point x="587" y="472"/>
      <point x="587" y="505"/>
      <point x="559" y="531" type="curve"/>
    </contour>
  </outline>
</glyph>
<glyph name="g" format="1">
  <advance width="760"/>
  <unicode hex="0067"/>
  <outline>
    <contour>
      <point x="475" y="563" type="move" name="top"/>
    </contour>
    <contour>
      <point x="442" y="87" type="line"/>
      <point x="433" y="8"/>
      <point x="427" y="-57"/>
      <point x="407" y="-146" type="curve"/>
      <point x="394" y="-171"/>
      <point x="357" y="-187"/>
      <point x="321" y="-186" type="curve"/>
      <point x="280" y="-130"/>
      <point x="269" y="-100"/>
      <point x="258" y="-46" type="curve"/>
      <point x="182" y="-2"/>
      <point x="93" y="-31"/>
      <point x="35" y="-122" type="curve"/>
      <point x="64" y="-215"/>
      <point x="140" y="-270"/>
      <point x="257" y="-324" type="curve"/>
      <point x="426" y="-315"/>
      <point x="540" y="-277"/>
      <point x="616" y="-159" type="curve"/>
      <point x="627" y="-30"/>
      <point x="646" y="160"/>
      <point x="672" y="323" type="curve"/>
      <point x="774" y="499" type="line"/>
      <point x="743" y="565"/>
      <point x="682" y="579"/>
      <point x="542" y="549" type="curve"/>
      <point x="526" y="522"/>
      <point x="523" y="489"/>
      <point x="523" y="443" type="curve"/>
      <point x="503" y="344" type="line"/>
      <point x="496" y="288" type="line"/>
      <point x="456" y="183" type="line"/>
      <point x="485" y="154" type="line"/>
    </contour>
    <contour>
      <point x="496" y="288" type="line"/>
      <point x="443" y="248"/>
      <point x="375" y="197"/>
      <point x="318" y="158" type="curve"/>
      <point x="295" y="174"/>
      <point x="281" y="205"/>
      <point x="282" y="249" type="curve" smooth="yes"/>
      <point x="284" y="320"/>
      <point x="331" y="392"/>
      <point x="419" y="437" type="curve"/>
      <point x="448" y="422"/>
      <point x="479" y="388"/>
      <point x="502" y="343" type="curve"/>
      <point x="557" y="381" type="line"/>
      <point x="532" y="436"/>
      <point x="483" y="517"/>
      <point x="433" y="562" type="curve" smooth="yes"/>
      <point x="188" y="559"/>
      <point x="40" y="380"/>
      <point x="35" y="235" type="curve" smooth="yes"/>
      <point x="32" y="122"/>
      <point x="112" y="23"/>
      <point x="306" y="15" type="curve"/>
      <point x="384" y="92"/>
      <point x="491" y="190"/>
      <point x="539" y="233" type="curve"/>
    </contour>
  </outline>
</glyph>
<glyph name="l" format="1">
  <advance width="375"/>
  <unicode hex="006C"/>
  <outline>
    <contour>
      <point x="235" y="843" type="move" name="top"/>
    </contour>
    <contour>
      <point x="194" y="0" type="move" name="bottom"/>
    </contour>
    <contour>
      <point x="154" y="538" type="line"/>
      <point x="126" y="366"/>
      <point x="82" y="195"/>
      <point x="22" y="56" type="curve"/>
      <point x="47" y="3"/>
      <point x="231" y="-22"/>
      <point x="292" y="34" type="curve"/>
      <point x="306" y="206"/>
      <point x="315" y="421"/>
      <point x="325" y="593" type="curve"/>
      <point x="396" y="836" type="line"/>
      <point x="326" y="864"/>
      <point x="232" y="852"/>
      <point x="142" y="799" type="curve"/>
    </contour>
  </outline>
</glyph>
<glyph name="m" format="1">
  <advance width="1094"/>
  <unicode hex="006D"/>
  <outline>
    <contour>
      <point x="652" y="31" type="curve"/>
      <point x="634" y="145"/>
      <point x="632" y="207"/>
      <point x="651" y="306" type="curve"/>
      <point x="696" y="344"/>
      <point x="733" y="378"/>
      <point x="790" y="411" type="curve"/>
      <point x="813" y="398"/>
      <point x="818" y="384"/>
      <point x="828" y="360" type="curve"/>
      <point x="808" y="308"/>
      <point x="774" y="159"/>
      <point x="766" y="59" type="curve"/>
      <point x="848" y="-7"/>
      <point x="987" y="-19"/>
      <point x="1030" y="31" type="curve"/>
      <point x="1011" y="105"/>
      <point x="1000" y="196"/>
      <point x="1002" y="256" type="curve"/>
      <point x="1049" y="412" type="line"/>
      <point x="1027" y="478"/>
      <point x="946" y="558"/>
      <point x="826" y="562" type="curve"/>
      <point x="758" y="521"/>
      <point x="674" y="444"/>
      <point x="624" y="397" type="curve"/>
      <point x="613" y="404" type="line"/>
      <point x="674" y="485" type="line"/>
      <point x="613" y="537"/>
      <point x="565" y="564"/>
      <point x="487" y="562" type="curve"/>
      <point x="395" y="502"/>
      <point x="340" y="454"/>
      <point x="297" y="407" type="curve"/>
      <point x="284" y="428" type="line"/>
      <point x="321" y="473" type="line"/>
      <point x="321" y="501"/>
      <point x="319" y="518"/>
      <point x="306" y="548" type="curve"/>
      <point x="250" y="568"/>
      <point x="161" y="565"/>
      <point x="89" y="499" type="curve"/>
      <point x="127" y="341" type="line"/>
      <point x="101" y="250"/>
      <point x="70" y="160"/>
      <point x="27" y="57" type="curve"/>
      <point x="58" y="3"/>
      <point x="225" y="-22"/>
      <point x="293" y="31" type="curve"/>
      <point x="304" y="135"/>
      <point x="311" y="222"/>
      <point x="310" y="305" type="curve"/>
      <point x="352" y="351"/>
      <point x="394" y="384"/>
      <point x="437" y="410" type="curve"/>
      <point x="468" y="400"/>
      <point x="478" y="387"/>
      <point x="493" y="367" type="curve"/>
      <point x="456" y="285"/>
      <point x="432" y="173"/>
      <point x="413" y="50" type="curve"/>
      <point x="430" y="12"/>
      <point x="547" y="-30"/>
    </contour>
  </outline>
</glyph>
<glyph name="n" format="1">
  <advance width="754"/>
  <unicode hex="006E"/>
  <outline>
    <contour>
      <point x="394" y="563" type="move" name="top"/>
    </contour>
    <contour>
      <point x="397" y="0" type="move" name="bottom"/>
    </contour>
    <contour>
      <point x="690" y="31" type="curve"/>
      <point x="669" y="105"/>
      <point x="661" y="198"/>
      <point x="661" y="256" type="curve"/>
      <point x="709" y="414" type="line"/>
      <point x="685" y="477"/>
      <point x="614" y="554"/>
      <point x="485" y="562" type="curve"/>
      <point x="367" y="483"/>
      <point x="304" y="418"/>
      <point x="227" y="337" type="curve"/>
      <point x="280" y="277" type="line"/>
      <point x="346" y="338"/>
      <point x="388" y="376"/>
      <point x="449" y="411" type="curve"/>
      <point x="473" y="396"/>
      <point x="479" y="381"/>
      <point x="486" y="359" type="curve"/>
      <point x="465" y="296"/>
      <point x="431" y="155"/>
      <point x="425" y="58" type="curve"/>
      <point x="505" y="-8"/>
      <point x="646" y="-19"/>
    </contour>
    <contour>
      <point x="127" y="341" type="line"/>
      <point x="101" y="250"/>
      <point x="70" y="160"/>
      <point x="27" y="57" type="curve"/>
      <point x="58" y="3"/>
      <point x="225" y="-22"/>
      <point x="293" y="31" type="curve"/>
      <point x="308" y="169"/>
      <point x="314" y="275"/>
      <point x="308" y="386" type="curve"/>
      <point x="284" y="428" type="line"/>
      <point x="321" y="473" type="line"/>
      <point x="321" y="501"/>
      <point x="319" y="518"/>
      <point x="306" y="557" type="curve"/>
      <point x="251" y="566"/>
      <point x="163" y="561"/>
      <point x="89" y="499" type="curve"/>
    </contour>
  </outline>
</glyph>
<glyph name="o" format="1">
  <advance width="656"/>
  <unicode hex="006F"/>
  <outline>
    <contour>
      <point x="374" y="563" type="move" name="top"/>
    </contour>
    <contour>
      <point x="27" y="250" type="curve" smooth="yes"/>
      <point x="27" y="359"/>
      <point x="167" y="571"/>
      <point x="398" y="571" type="curve" smooth="yes"/>
      <point x="515" y="571"/>
      <point x="641" y="417"/>
      <point x="643" y="310" type="curve" smooth="yes"/>
      <point x="643" y="162"/>
      <point x="466" y="0"/>
      <point x="278" y="0" type="curve"/>
      <point x="157" y="0"/>
      <point x="27" y="129"/>
    </contour>
    <contour>
      <point x="372" y="475" type="curve"/>
      <point x="308" y="414"/>
      <point x="247" y="316"/>
      <point x="245" y="233" type="curve"/>
      <point x="244" y="191"/>
      <point x="269" y="135"/>
      <point x="300" y="103" type="curve"/>
      <point x="371" y="154"/>
      <point x="414" y="209"/>
      <point x="435" y="277" type="curve"/>
      <point x="431" y="369"/>
      <point x="415" y="417"/>
    </contour>
  </outline>
</glyph>
<glyph name="p" format="1">
  <advance width="740"/>
  <unicode hex="0070"/>
  <outline>
    <contour>
      <point x="201" y="80" type="line"/>
      <point x="241" y="42"/>
      <point x="295" y="15"/>
      <point x="392" y="0" type="curve"/>
      <point x="541" y="51"/>
      <point x="677" y="138"/>
      <point x="729" y="300" type="curve"/>
      <point x="699" y="465"/>
      <point x="623" y="558"/>
      <point x="413" y="562" type="curve"/>
      <point x="338" y="492"/>
      <point x="306" y="425"/>
      <point x="225" y="337" type="curve"/>
      <point x="278" y="277" type="line"/>
      <point x="333" y="339"/>
      <point x="367" y="383"/>
      <point x="425" y="422" type="curve"/>
      <point x="465" y="405"/>
      <point x="505" y="365"/>
      <point x="507" y="312" type="curve"/>
      <point x="497" y="219"/>
      <point x="459" y="172"/>
      <point x="387" y="113" type="curve"/>
      <point x="323" y="123"/>
      <point x="283" y="143"/>
      <point x="250" y="160" type="curve"/>
    </contour>
    <contour>
      <point x="-17" y="-234" type="curve"/>
      <point x="26" y="-289"/>
      <point x="178" y="-311"/>
      <point x="250" y="-258" type="curve"/>
      <point x="265" y="-174"/>
      <point x="312" y="260"/>
      <point x="299" y="386" type="curve"/>
      <point x="274" y="428" type="line"/>
      <point x="311" y="473" type="line"/>
      <point x="312" y="501"/>
      <point x="310" y="518"/>
      <point x="294" y="556" type="curve"/>
      <point x="237" y="565"/>
      <point x="150" y="561"/>
      <point x="79" y="499" type="curve"/>
      <point x="124" y="312" type="line"/>
      <point x="116" y="185"/>
      <point x="47" y="-112"/>
    </contour>
  </outline>
</glyph>
<glyph name="q" format="1">
  <advance width="770"/>
  <unicode hex="0071"/>
  <outline>
    <contour>
      <point x="580" y="-112" type="line"/>
      <point x="619" y="30"/>
      <point x="655" y="201"/>
      <point x="680" y="326" type="curve"/>
      <point x="769" y="499" type="line"/>
      <point x="742" y="568"/>
      <point x="676" y="579"/>
      <point x="539" y="552" type="curve"/>
      <point x="520" y="520"/>
      <point x="518" y="485"/>
      <point x="524" y="437" type="curve"/>
      <point x="485" y="147" type="line"/>
      <point x="446" y="32"/>
      <point x="412" y="-57"/>
      <point x="364" y="-177" type="curve"/>
      <point x="364" y="-224"/>
      <point x="410" y="-278"/>
      <point x="531" y="-303" type="curve"/>
      <point x="622" y="-223"/>
      <point x="723" y="-123"/>
      <point x="758" y="-75" type="curve"/>
      <point x="758" y="-42"/>
      <point x="747" y="-24"/>
      <point x="717" y="-23" type="curve"/>
      <point x="695" y="-40"/>
      <point x="634" y="-94"/>
      <point x="592" y="-122" type="curve"/>
    </contour>
    <contour>
      <point x="532" y="305" type="line"/>
      <point x="481" y="265"/>
      <point x="398" y="197"/>
      <point x="342" y="158" type="curve"/>
      <point x="305" y="171"/>
      <point x="283" y="203"/>
      <point x="283" y="239" type="curve" smooth="yes"/>
      <point x="283" y="309"/>
      <point x="331" y="392"/>
      <point x="415" y="437" type="curve"/>
      <point x="451" y="417"/>
      <point x="480" y="385"/>
      <point x="517" y="322" type="curve"/>
      <point x="567" y="369" type="line"/>
      <point x="528" y="436"/>
      <point x="476" y="517"/>
      <point x="426" y="562" type="curve" smooth="yes"/>
      <point x="188" y="551"/>
      <point x="36" y="380"/>
      <point x="36" y="235" type="curve" smooth="yes"/>
      <point x="36" y="106"/>
      <point x="133" y="17"/>
      <point x="334" y="15" type="curve"/>
      <point x="409" y="92"/>
      <point x="530" y="208"/>
      <point x="576" y="249" type="curve"/>
    </contour>
  </outline>
</glyph>
<glyph name="r" format="1">
  <advance width="621"/>
  <unicode hex="0072"/>
  <outline>
    <contour>
      <point x="344" y="563" type="move" name="top"/>
    </contour>
    <contour>
      <point x="214" y="0" type="move" name="bottom"/>
    </contour>
    <contour>
      <point x="633" y="347" type="curve"/>
      <point x="628" y="472"/>
      <point x="557" y="540"/>
      <point x="464" y="562" type="curve"/>
      <point x="368" y="473"/>
      <point x="302" y="413"/>
      <point x="222" y="337" type="curve"/>
      <point x="274" y="287" type="line"/>
      <point x="326" y="331"/>
      <point x="377" y="372"/>
      <point x="408" y="397" type="curve"/>
      <point x="414" y="377"/>
      <point x="425" y="350"/>
      <point x="425" y="322" type="curve"/>
      <point x="491" y="287"/>
      <point x="578" y="293"/>
    </contour>
    <contour>
      <point x="127" y="341" type="line"/>
      <point x="101" y="250"/>
      <point x="70" y="160"/>
      <point x="27" y="57" type="curve"/>
      <point x="58" y="3"/>
      <point x="224" y="-22"/>
      <point x="293" y="31" type="curve"/>
      <point x="308" y="169"/>
      <point x="314" y="275"/>
      <point x="308" y="386" type="curve"/>
      <point x="284" y="428" type="line"/>
      <point x="321" y="473" type="line"/>
      <point x="321" y="504"/>
      <point x="319" y="521"/>
      <point x="306" y="557" type="curve"/>
      <point x="250" y="568"/>
      <point x="156" y="556"/>
      <point x="89" y="499" type="curve"/>
    </contour>
  </outline>
</glyph>
<glyph name="s" format="1">
  <advance width="598"/>
  <unicode hex="0073"/>
  <outline>
    <contour>
      <point x="330" y="563" type="move" name="top"/>
    </contour>
    <contour>
      <point x="307" y="0" type="move" name="bottom"/>
    </contour>
    <contour>
      <point x="554" y="197" type="curve"/>
      <point x="518" y="318"/>
      <point x="249" y="385"/>
      <point x="249" y="435" type="curve" smooth="yes"/>
      <point x="249" y="457"/>
      <point x="289" y="485"/>
      <point x="329" y="500" type="curve"/>
      <point x="360" y="472"/>
      <point x="372" y="438"/>
      <point x="384" y="392" type="curve"/>
      <point x="495" y="375"/>
      <point x="552" y="411"/>
      <point x="556" y="475" type="curve"/>
      <point x="517" y="534"/>
      <point x="468" y="575"/>
      <point x="361" y="587" type="curve"/>
      <point x="225" y="580"/>
      <point x="119" y="510"/>
      <point x="60" y="393" type="curve"/>
      <point x="104" y="262"/>
      <point x="346" y="197"/>
      <point x="347" y="154" type="curve" smooth="yes"/>
      <point x="347" y="124"/>
      <point x="298" y="92"/>
      <point x="255" y="80" type="curve"/>
      <point x="220" y="126"/>
      <point x="210" y="147"/>
      <point x="200" y="211" type="curve"/>
      <point x="99" y="246"/>
      <point x="46" y="178"/>
      <point x="21" y="108" type="curve"/>
      <point x="63" y="43"/>
      <point x="143" y="9"/>
      <point x="249" y="0" type="curve"/>
      <point x="395" y="5"/>
      <point x="520" y="74"/>
    </contour>
  </outline>
</glyph>
<glyph name="t" format="1">
  <advance width="609"/>
  <unicode hex="0074"/>
  <outline>
    <contour>
      <point x="317" y="0" type="move" name="bottom"/>
    </contour>
    <contour>
      <point x="237" y="554" type="line"/>
      <point x="84" y="560" type="line"/>
      <point x="51" y="509"/>
      <point x="52" y="479"/>
      <point x="86" y="442" type="curve"/>
      <point x="384" y="492" type="line"/>
      <point x="581" y="502" type="line"/>
      <point x="608" y="556"/>
      <point x="607" y="590"/>
      <point x="579" y="617" type="curve"/>
    </contour>
    <contour>
      <point x="345" y="84" type="line"/>
      <point x="355" y="226"/>
      <point x="375" y="350"/>
      <point x="383" y="521" type="curve"/>
      <point x="458" y="753" type="line"/>
      <point x="415" y="800"/>
      <point x="323" y="799"/>
      <point x="210" y="739" type="curve"/>
      <point x="232" y="515" type="line"/>
      <point x="203" y="396"/>
      <point x="172" y="281"/>
      <point x="108" y="122" type="curve"/>
      <point x="129" y="65"/>
      <point x="176" y="11"/>
      <point x="308" y="0" type="curve"/>
      <point x="428" y="25"/>
      <point x="514" y="90"/>
      <point x="575" y="141" type="curve"/>
      <point x="581" y="206"/>
      <point x="564" y="225"/>
      <point x="508" y="229" type="curve"/>
      <point x="449" y="180"/>
      <point x="380" y="135"/>
      <point x="296" y="106" type="curve"/>
    </contour>
  </outline>
</glyph>
<glyph name="u" format="1">
  <advance width="746"/>
  <unicode hex="0075"/>
  <outline>
    <contour>
      <point x="396" y="563" type="move" name="top"/>
    </contour>
    <contour>
      <point x="577" y="0" type="move" name="ogonek"/>
    </contour>
    <contour>
      <point x="489" y="549" type="curve"/>
      <point x="462" y="476"/>
      <point x="444" y="384"/>
      <point x="427" y="284" type="curve"/>
      <point x="409" y="173" type="line"/>
      <point x="437" y="149" type="line"/>
      <point x="394" y="58" type="line"/>
      <point x="475" y="-8"/>
      <point x="621" y="-19"/>
      <point x="662" y="31" type="curve"/>
      <point x="644" y="139"/>
      <point x="634" y="235"/>
      <point x="632" y="326" type="curve"/>
      <point x="724" y="499" type="line"/>
      <point x="697" y="561"/>
      <point x="630" y="572"/>
    </contour>
    <contour>
      <point x="77" y="546" type="curve"/>
      <point x="85" y="477"/>
      <point x="91" y="389"/>
      <point x="100" y="313" type="curve"/>
      <point x="22" y="162" type="line"/>
      <point x="37" y="95"/>
      <point x="90" y="22"/>
      <point x="288" y="0" type="curve"/>
      <point x="377" y="100"/>
      <point x="426" y="154"/>
      <point x="482" y="240" type="curve"/>
      <point x="429" y="288" type="line"/>
      <point x="400" y="244"/>
      <point x="360" y="205"/>
      <point x="310" y="156" type="curve"/>
      <point x="265" y="169"/>
      <point x="245" y="183"/>
      <point x="239" y="207" type="curve"/>
      <point x="286" y="291"/>
      <point x="332" y="429"/>
      <point x="332" y="498" type="curve"/>
      <point x="287" y="564"/>
      <point x="163" y="576"/>
    </contour>
  </outline>
</glyph>
<glyph name="v" format="1">
  <advance width="657"/>
  <unicode hex="0076"/>
  <outline>
    <contour>
      <point x="439" y="519" type="curve"/>
      <point x="495" y="391" type="line"/>
      <point x="478" y="294"/>
      <point x="435" y="219"/>
      <point x="358" y="135" type="curve"/>
      <point x="344" y="142" type="line"/>
      <point x="353" y="295"/>
      <point x="343" y="454"/>
      <point x="272" y="562" type="curve"/>
      <point x="171" y="568"/>
      <point x="93" y="538"/>
      <point x="44" y="444" type="curve"/>
      <point x="135" y="338" type="line"/>
      <point x="154" y="276"/>
      <point x="150" y="199"/>
      <point x="132" y="100" type="curve"/>
      <point x="190" y="16"/>
      <point x="313" y="-16"/>
      <point x="422" y="6" type="curve"/>
      <point x="579" y="178"/>
      <point x="656" y="361"/>
      <point x="670" y="549" type="curve"/>
      <point x="617" y="596"/>
      <point x="511" y="587"/>
    </contour>
  </outline>
</glyph>
<glyph name="w" format="1">
  <advance width="1006"/>
  <unicode hex="0077"/>
  <outline>
    <contour>
      <point x="705" y="142" type="line"/>
      <point x="713" y="302"/>
      <point x="700" y="464"/>
      <point x="636" y="547" type="curve"/>
      <point x="529" y="557"/>
      <point x="475" y="529"/>
      <point x="424" y="455" type="curve"/>
      <point x="494" y="365" type="line"/>
      <point x="462" y="279"/>
      <point x="421" y="200"/>
      <point x="358" y="136" type="curve"/>
      <point x="344" y="141" type="line"/>
      <point x="356" y="300"/>
      <point x="338" y="453"/>
      <point x="273" y="562" type="curve"/>
      <point x="156" y="568"/>
      <point x="90" y="528"/>
      <point x="44" y="444" type="curve"/>
      <point x="136" y="337" type="line"/>
      <point x="156" y="257"/>
      <point x="147" y="188"/>
      <point x="132" y="100" type="curve"/>
      <point x="178" y="28"/>
      <point x="287" y="-20"/>
      <point x="405" y="6" type="curve"/>
      <point x="466" y="87"/>
      <point x="502" y="147"/>
      <point x="543" y="233" type="curve"/>
      <point x="555" y="226" type="line"/>
      <point x="544" y="185"/>
      <point x="536" y="156"/>
      <point x="517" y="108" type="curve"/>
      <point x="562" y="18"/>
      <point x="680" y="-18"/>
      <point x="783" y="4" type="curve"/>
      <point x="940" y="181"/>
      <point x="1009" y="370"/>
      <point x="1018" y="552" type="curve"/>
      <point x="966" y="597"/>
      <point x="863" y="587"/>
      <point x="788" y="516" type="curve"/>
      <point x="847" y="390" type="line"/>
      <point x="836" y="293"/>
      <point x="786" y="211"/>
      <point x="717" y="130" type="curve"/>
    </contour>
  </outline>
</glyph>
<glyph name="x" format="1">
  <advance width="652"/>
  <unicode hex="0078"/>
  <outline>
    <contour>
      <point x="359" y="296" type="curve"/>
      <point x="355" y="435"/>
      <point x="303" y="517"/>
      <point x="222" y="562" type="curve"/>
      <point x="126" y="551"/>
      <point x="49" y="473"/>
      <point x="74" y="358" type="curve"/>
      <point x="164" y="344"/>
      <point x="247" y="319"/>
      <point x="306" y="241" type="curve"/>
      <point x="306" y="144"/>
      <point x="362" y="58"/>
      <point x="449" y="0" type="curve"/>
      <point x="583" y="28"/>
      <point x="633" y="148"/>
      <point x="577" y="217" type="curve"/>
      <point x="488" y="224"/>
      <point x="407" y="252"/>
    </contour>
    <contour>
      <point x="506" y="562" type="curve"/>
      <point x="331" y="308" type="line"/>
      <point x="234" y="228"/>
      <point x="120" y="182"/>
      <point x="32" y="159" type="curve"/>
      <point x="0" y="88"/>
      <point x="40" y="7"/>
      <point x="169" y="0" type="curve"/>
      <point x="358" y="255" type="line"/>
      <point x="462" y="331"/>
      <point x="540" y="378"/>
      <point x="652" y="420" type="curve"/>
      <point x="661" y="497"/>
      <point x="620" y="571"/>
    </contour>
  </outline>
</glyph>
<glyph name="y" format="1">
  <advance width="695"/>
  <unicode hex="0079"/>
  <outline>
    <contour>
      <point x="386" y="563" type="move" name="top"/>
    </contour>
    <contour>
      <point x="77" y="546" type="curve"/>
      <point x="85" y="453"/>
      <point x="94" y="403"/>
      <point x="99" y="314" type="curve"/>
      <point x="47" y="184" type="line"/>
      <point x="64" y="100"/>
      <point x="165" y="40"/>
      <point x="302" y="26" type="curve"/>
      <point x="371" y="91"/>
      <point x="423" y="148"/>
      <point x="490" y="240" type="curve"/>
      <point x="436" y="288" type="line"/>
      <point x="399" y="244"/>
      <point x="370" y="214"/>
      <point x="317" y="174" type="curve"/>
      <point x="283" y="188"/>
      <point x="269" y="204"/>
      <point x="262" y="222" type="curve"/>
      <point x="298" y="305"/>
      <point x="332" y="409"/>
      <point x="340" y="496" type="curve"/>
      <point x="279" y="565"/>
      <point x="150" y="577"/>
    </contour>
    <contour>
      <point x="382" y="39" type="line"/>
      <point x="369" y="-18"/>
      <point x="359" y="-89"/>
      <point x="352" y="-160" type="curve"/>
      <point x="341" y="-178"/>
      <point x="314" y="-188"/>
      <point x="284" y="-186" type="curve"/>
      <point x="251" y="-142"/>
      <point x="238" y="-111"/>
      <point x="220" y="-45" type="curve"/>
      <point x="150" y="-4"/>
      <point x="63" y="-33"/>
      <point x="-1" y="-121" type="curve"/>
      <point x="23" y="-204"/>
      <point x="99" y="-272"/>
      <point x="201" y="-316" type="curve"/>
      <point x="372" y="-319"/>
      <point x="480" y="-287"/>
      <point x="551" y="-194" type="curve"/>
      <point x="552" y="-63"/>
      <point x="588" y="198"/>
      <point x="605" y="317" type="curve"/>
      <point x="714" y="499" type="line"/>
      <point x="682" y="564"/>
      <point x="620" y="577"/>
      <point x="477" y="549" type="curve"/>
      <point x="465" y="496"/>
      <point x="450" y="395"/>
      <point x="436" y="289" type="curve"/>
      <point x="396" y="166" type="line"/>
      <point x="432" y="134" type="line"/>
    </contour>
  </outline>
</glyph>
<glyph name="braceleft" format="1">
  <advance width="660"/>
  <unicode hex="007B"/>
  <outline>
    <contour>
      <point x="614" y="779" type="line"/>
      <point x="672" y="799"/>
      <point x="704" y="831"/>
      <point x="704" y="880" type="curve"/>
      <point x="635" y="931"/>
      <point x="564" y="957"/>
      <point x="482" y="957" type="curve" smooth="yes"/>
      <point x="414" y="957"/>
      <point x="340" y="934"/>
      <point x="289" y="882" type="curve"/>
      <point x="332" y="692"/>
      <point x="257" y="520"/>
      <point x="123" y="520" type="curve"/>
      <point x="89" y="415" type="line"/>
      <point x="154" y="388"/>
      <point x="189" y="294"/>
      <point x="185" y="216" type="curve" smooth="yes"/>
      <point x="182" y="138"/>
      <point x="142" y="62"/>
      <point x="72" y="7" type="curve"/>
      <point x="100" y="-72"/>
      <point x="195" y="-135"/>
      <point x="279" y="-152" type="curve"/>
      <point x="367" y="-147"/>
      <point x="457" y="-120"/>
      <point x="506" y="-95" type="curve"/>
      <point x="502" y="-64"/>
      <point x="483" y="-28"/>
      <point x="461" y="-15" type="curve"/>
      <point x="331" y="-40" type="line"/>
      <point x="317" y="-17" type="line"/>
      <point x="399" y="53"/>
      <point x="443" y="123"/>
      <point x="447" y="200" type="curve" smooth="yes"/>
      <point x="449" y="283"/>
      <point x="405" y="354"/>
      <point x="309" y="410" type="curve"/>
      <point x="316" y="436" type="line"/>
      <point x="426" y="430"/>
      <point x="508" y="505"/>
      <point x="530" y="624" type="curve" smooth="yes"/>
      <point x="541" y="684"/>
      <point x="536" y="757"/>
      <point x="510" y="834" type="curve"/>
      <point x="532" y="848" type="line"/>
    </contour>
  </outline>
</glyph>
<glyph name="bar" format="1">
  <advance width="392"/>
  <unicode hex="007C"/>
  <outline>
    <contour>
      <point x="158" y="624" type="line"/>
      <point x="136" y="438"/>
      <point x="46" y="-1"/>
      <point x="-15" y="-157" type="curve"/>
      <point x="9" y="-209"/>
      <point x="169" y="-234"/>
      <point x="232" y="-183" type="curve"/>
      <point x="251" y="0"/>
      <point x="325" y="416"/>
      <point x="339" y="507" type="curve"/>
      <point x="458" y="997" type="line"/>
      <point x="432" y="1008"/>
      <point x="402" y="1014"/>
      <point x="365" y="1014" type="curve" smooth="yes"/>
      <point x="315" y="1014"/>
      <point x="266" y="1001"/>
      <point x="206" y="971" type="curve"/>
    </contour>
  </outline>
</glyph>
<glyph name="braceright" format="1">
  <advance width="660"/>
  <unicode hex="007D"/>
  <outline>
    <contour>
      <point x="531" y="597" type="curve" smooth="yes"/>
      <point x="535" y="675"/>
      <point x="574" y="751"/>
      <point x="645" y="806" type="curve"/>
      <point x="616" y="884"/>
      <point x="521" y="950"/>
      <point x="435" y="965" type="curve" smooth="yes"/>
      <point x="349" y="961"/>
      <point x="261" y="934"/>
      <point x="211" y="908" type="curve"/>
      <point x="216" y="877"/>
      <point x="234" y="840"/>
      <point x="255" y="828" type="curve"/>
      <point x="386" y="853" type="line"/>
      <point x="402" y="829" type="line"/>
      <point x="317" y="761"/>
      <point x="273" y="690"/>
      <point x="271" y="613" type="curve" smooth="yes"/>
      <point x="267" y="530"/>
      <point x="311" y="460"/>
      <point x="409" y="404" type="curve"/>
      <point x="400" y="380" type="line"/>
      <point x="292" y="385"/>
      <point x="209" y="308"/>
      <point x="187" y="189" type="curve" smooth="yes"/>
      <point x="175" y="129"/>
      <point x="180" y="56"/>
      <point x="207" y="-21" type="curve"/>
      <point x="184" y="-35" type="line"/>
      <point x="102" y="34" type="line"/>
      <point x="44" y="14"/>
      <point x="12" y="-17"/>
      <point x="12" y="-67" type="curve"/>
      <point x="83" y="-118"/>
      <point x="152" y="-142"/>
      <point x="234" y="-144" type="curve"/>
      <point x="304" y="-143"/>
      <point x="377" y="-121"/>
      <point x="427" y="-69" type="curve"/>
      <point x="385" y="121"/>
      <point x="459" y="293"/>
      <point x="593" y="293" type="curve"/>
      <point x="627" y="398" type="line"/>
      <point x="563" y="426"/>
      <point x="528" y="521"/>
    </contour>
  </outline>
</glyph>
<glyph name="currency" format="1">
  <advance width="885"/>
  <unicode hex="00A4"/>
  <outline>
    <contour>
      <point x="356" y="249" type="line"/>
      <point x="187" y="45" type="line"/>
      <point x="64" y="51"/>
      <point x="27" y="132"/>
      <point x="72" y="190" type="curve"/>
      <point x="307" y="298" type="line"/>
    </contour>
    <contour>
      <point x="833" y="201" type="line"/>
      <point x="878" y="143"/>
      <point x="841" y="62"/>
      <point x="717" y="56" type="curve"/>
      <point x="549" y="260" type="line"/>
      <point x="598" y="309" type="line"/>
    </contour>
    <contour>
      <point x="588" y="523" type="line"/>
      <point x="756" y="725" type="line"/>
      <point x="879" y="719"/>
      <point x="917" y="638"/>
      <point x="871" y="580" type="curve"/>
      <point x="636" y="472" type="line"/>
    </contour>
    <contour>
      <point x="99" y="567" type="line"/>
      <point x="54" y="625"/>
      <point x="92" y="706"/>
      <point x="215" y="713" type="curve"/>
      <point x="385" y="512" type="line"/>
      <point x="338" y="462" type="line"/>
    </contour>
    <contour>
      <point x="170" y="351" type="curve" smooth="yes"/>
      <point x="170" y="460"/>
      <point x="310" y="672"/>
      <point x="541" y="672" type="curve" smooth="yes"/>
      <point x="658" y="672"/>
      <point x="784" y="518"/>
      <point x="786" y="411" type="curve" smooth="yes"/>
      <point x="786" y="263"/>
      <point x="609" y="101"/>
      <point x="421" y="101" type="curve"/>
      <point x="300" y="101"/>
      <point x="170" y="230"/>
    </contour>
    <contour>
      <point x="515" y="576" type="curve"/>
      <point x="451" y="515"/>
      <point x="390" y="417"/>
      <point x="388" y="334" type="curve"/>
      <point x="387" y="292"/>
      <point x="412" y="236"/>
      <point x="443" y="204" type="curve"/>
      <point x="514" y="255"/>
      <point x="557" y="310"/>
      <point x="578" y="378" type="curve"/>
      <point x="574" y="470"/>
      <point x="558" y="518"/>
    </contour>
  </outline>
</glyph>
<glyph name="yen" format="1">
  <advance width="767"/>
  <unicode hex="00A5"/>
  <outline>
    <contour>
      <point x="311" y="229" type="line"/>
      <point x="61" y="232" type="line"/>
      <point x="29" y="197"/>
      <point x="26" y="134"/>
      <point x="55" y="113" type="curve"/>
      <point x="327" y="154" type="line"/>
    </contour>
    <contour>
      <point x="303" y="393" type="line"/>
      <point x="74" y="412" type="line"/>
      <point x="42" y="377"/>
      <point x="39" y="314"/>
      <point x="68" y="293" type="curve"/>
      <point x="324" y="314" type="line"/>
    </contour>
    <contour>
      <point x="479" y="326" type="line"/>
      <point x="737" y="331" type="line"/>
      <point x="776" y="380"/>
      <point x="775" y="425"/>
      <point x="735" y="442" type="curve"/>
      <point x="493" y="390" type="line"/>
    </contour>
    <contour>
      <point x="455" y="157" type="line"/>
      <point x="717" y="166" type="line"/>
      <point x="756" y="210"/>
      <point x="745" y="270"/>
      <point x="715" y="282" type="curve"/>
      <point x="468" y="245" type="line"/>
    </contour>
    <contour>
      <point x="89" y="642" type="curve"/>
      <point x="149" y="562"/>
      <point x="226" y="431"/>
      <point x="301" y="290" type="curve"/>
      <point x="275" y="219"/>
      <point x="247" y="126"/>
      <point x="221" y="55" type="curve"/>
      <point x="257" y="0"/>
      <point x="421" y="-21"/>
      <point x="482" y="31" type="curve"/>
      <point x="490" y="156"/>
      <point x="495" y="242"/>
      <point x="507" y="343" type="curve"/>
      <point x="580" y="425"/>
      <point x="662" y="496"/>
      <point x="705" y="554" type="curve" smooth="yes"/>
      <point x="747" y="610"/>
      <point x="771" y="650"/>
      <point x="777" y="713" type="curve"/>
      <point x="731" y="770"/>
      <point x="629" y="788"/>
      <point x="507" y="729" type="curve"/>
      <point x="558" y="527" type="line"/>
      <point x="446" y="399" type="line"/>
      <point x="413" y="336" type="line"/>
      <point x="404" y="336" type="line"/>
      <point x="339" y="528" type="line"/>
      <point x="339" y="753" type="line"/>
      <point x="245" y="785"/>
      <point x="153" y="756"/>
    </contour>
  </outline>
</glyph>
<glyph name="brokenbar" format="1">
  <advance width="391"/>
  <unicode hex="00A6"/>
  <outline>
    <contour>
      <point x="187" y="783" type="line"/>
      <point x="165" y="681"/>
      <point x="144" y="617"/>
      <point x="108" y="502" type="curve"/>
      <point x="150" y="451"/>
      <point x="294" y="442"/>
      <point x="352" y="491" type="curve"/>
      <point x="364" y="612"/>
      <point x="375" y="693"/>
      <point x="380" y="733" type="curve"/>
      <point x="459" y="981" type="line"/>
      <point x="441" y="1008"/>
      <point x="396" y="1027"/>
      <point x="338" y="1027" type="curve" smooth="yes"/>
      <point x="300" y="1027"/>
      <point x="255" y="1019"/>
      <point x="209" y="997" type="curve"/>
    </contour>
    <contour>
      <point x="65" y="124" type="line"/>
      <point x="43" y="22"/>
      <point x="23" y="-42"/>
      <point x="-14" y="-156" type="curve"/>
      <point x="14" y="-206"/>
      <point x="172" y="-228"/>
      <point x="230" y="-183" type="curve"/>
      <point x="242" y="-62"/>
      <point x="253" y="34"/>
      <point x="257" y="74" type="curve"/>
      <point x="323" y="310" type="line"/>
      <point x="292" y="333"/>
      <point x="255" y="344"/>
      <point x="209" y="344" type="curve" smooth="yes"/>
      <point x="175" y="344"/>
      <point x="136" y="339"/>
      <point x="87" y="325" type="curve"/>
    </contour>
  </outline>
</glyph>
<glyph name="section" format="1">
  <advance width="715"/>
  <unicode hex="00A7"/>
  <outline>
    <contour>
      <point x="439" y="765" type="curve"/>
      <point x="260" y="749"/>
      <point x="164" y="679"/>
      <point x="99" y="546" type="curve"/>
      <point x="106" y="494"/>
      <point x="138" y="455"/>
      <point x="199" y="416" type="curve"/>
      <point x="116" y="386"/>
      <point x="71" y="331"/>
      <point x="36" y="258" type="curve"/>
      <point x="60" y="82"/>
      <point x="385" y="51"/>
      <point x="385" y="-28" type="curve" smooth="yes"/>
      <point x="385" y="-82"/>
      <point x="337" y="-127"/>
      <point x="284" y="-139" type="curve"/>
      <point x="238" y="-76"/>
      <point x="223" y="-30"/>
      <point x="213" y="33" type="curve"/>
      <point x="98" y="72"/>
      <point x="25" y="-8"/>
      <point x="-31" y="-135" type="curve"/>
      <point x="30" y="-178"/>
      <point x="136" y="-234"/>
      <point x="274" y="-245" type="curve"/>
      <point x="465" y="-231"/>
      <point x="613" y="-137"/>
      <point x="638" y="21" type="curve"/>
      <point x="622" y="54"/>
      <point x="594" y="83"/>
      <point x="561" y="108" type="curve"/>
      <point x="636" y="153"/>
      <point x="687" y="221"/>
      <point x="700" y="308" type="curve"/>
      <point x="630" y="456"/>
      <point x="334" y="504"/>
      <point x="334" y="577" type="curve" smooth="yes"/>
      <point x="334" y="608"/>
      <point x="372" y="640"/>
      <point x="425" y="659" type="curve"/>
      <point x="448" y="630"/>
      <point x="465" y="594"/>
      <point x="468" y="525" type="curve"/>
      <point x="603" y="502"/>
      <point x="669" y="534"/>
      <point x="694" y="615" type="curve"/>
      <point x="641" y="708"/>
      <point x="552" y="761"/>
    </contour>
    <contour>
      <point x="493" y="231" type="curve" smooth="yes"/>
      <point x="495" y="205"/>
      <point x="483" y="181"/>
      <point x="464" y="161" type="curve"/>
      <point x="365" y="210"/>
      <point x="271" y="256"/>
      <point x="245" y="307" type="curve" smooth="yes"/>
      <point x="245" y="330"/>
      <point x="262" y="352"/>
      <point x="291" y="367" type="curve"/>
      <point x="361" y="331"/>
      <point x="434" y="298"/>
    </contour>
  </outline>
</glyph>
<glyph name="logicalnot" format="1">
  <advance width="1047"/>
  <unicode hex="00AC"/>
  <outline>
    <contour>
      <point x="604" y="424" type="line"/>
      <point x="89" y="429" type="line"/>
      <point x="64" y="392"/>
      <point x="59" y="350"/>
      <point x="75" y="330" type="curve"/>
      <point x="893" y="341" type="line"/>
      <point x="853" y="184" type="line"/>
      <point x="884" y="160"/>
      <point x="925" y="155"/>
      <point x="948" y="171" type="curve"/>
      <point x="991" y="356" type="line" smooth="yes"/>
      <point x="1000" y="399"/>
      <point x="1000" y="433"/>
      <point x="982" y="444" type="curve"/>
    </contour>
  </outline>
</glyph>
<glyph name="registered" format="1">
  <advance width="633"/>
  <unicode hex="00AE"/>
  <outline>
    <contour>
      <point x="349" y="516" type="line"/>
      <point x="350" y="456"/>
      <point x="379" y="409"/>
      <point x="435" y="388" type="curve"/>
      <point x="475" y="401"/>
      <point x="499" y="434"/>
      <point x="481" y="463" type="curve"/>
      <point x="419" y="467"/>
      <point x="398" y="480"/>
      <point x="377" y="519" type="curve"/>
    </contour>
    <contour>
      <point x="420" y="501" type="curve"/>
      <point x="475" y="529"/>
      <point x="499" y="550"/>
      <point x="500" y="594" type="curve"/>
      <point x="501" y="639"/>
      <point x="443" y="680"/>
      <point x="362" y="680" type="curve"/>
      <point x="323" y="680"/>
      <point x="282" y="675"/>
      <point x="253" y="664" type="curve"/>
      <point x="246" y="655"/>
      <point x="250" y="640"/>
      <point x="261" y="633" type="curve"/>
      <point x="278" y="629" type="line"/>
      <point x="285" y="597" type="line"/>
      <point x="272" y="522"/>
      <point x="260" y="477"/>
      <point x="238" y="409" type="curve"/>
      <point x="251" y="387"/>
      <point x="316" y="381"/>
      <point x="337" y="400" type="curve"/>
      <point x="342" y="462"/>
      <point x="343" y="507"/>
      <point x="348" y="564" type="curve"/>
      <point x="369" y="651" type="line"/>
      <point x="346" y="637" type="line"/>
      <point x="394" y="639"/>
      <point x="417" y="616"/>
      <point x="417" y="588" type="curve"/>
      <point x="417" y="574"/>
      <point x="411" y="557"/>
      <point x="398" y="542" type="curve"/>
      <point x="378" y="534"/>
      <point x="354" y="527"/>
      <point x="317" y="527" type="curve"/>
      <point x="326" y="496" type="line"/>
      <point x="354" y="497"/>
      <point x="390" y="497"/>
    </contour>
    <contour>
      <point x="97" y="518" type="curve"/>
      <point x="101" y="388"/>
      <point x="184" y="306"/>
      <point x="334" y="295" type="curve"/>
      <point x="527" y="311"/>
      <point x="610" y="419"/>
      <point x="636" y="551" type="curve"/>
      <point x="609" y="675"/>
      <point x="575" y="756"/>
      <point x="394" y="770" type="curve"/>
      <point x="228" y="749"/>
      <point x="123" y="652"/>
    </contour>
    <contour>
      <point x="596" y="550" type="curve"/>
      <point x="572" y="437"/>
      <point x="509" y="341"/>
      <point x="337" y="326" type="curve"/>
      <point x="224" y="336"/>
      <point x="145" y="402"/>
      <point x="137" y="517" type="curve"/>
      <point x="156" y="632"/>
      <point x="257" y="720"/>
      <point x="390" y="740" type="curve"/>
      <point x="544" y="717"/>
      <point x="569" y="655"/>
    </contour>
  </outline>
</glyph>
<glyph name="threesuperior" format="1">
  <advance width="369"/>
  <unicode hex="00B3"/>
  <outline>
    <contour>
      <point x="341" y="569" type="line"/>
      <point x="383" y="586"/>
      <point x="398" y="609"/>
      <point x="397" y="641" type="curve" smooth="yes"/>
      <point x="397" y="696"/>
      <point x="308" y="777"/>
      <point x="232" y="777" type="curve" smooth="yes"/>
      <point x="167" y="777"/>
      <point x="101" y="733"/>
      <point x="63" y="670" type="curve"/>
      <point x="76" y="638"/>
      <point x="113" y="592"/>
      <point x="141" y="573" type="curve"/>
      <point x="157" y="578"/>
      <point x="183" y="592"/>
      <point x="193" y="604" type="curve"/>
      <point x="180" y="638" type="line"/>
      <point x="189" y="645"/>
      <point x="201" y="653"/>
      <point x="217" y="653" type="curve" smooth="yes"/>
      <point x="235" y="653"/>
      <point x="256" y="638"/>
      <point x="266" y="597" type="curve"/>
      <point x="173" y="537" type="line"/>
      <point x="177" y="510" type="line"/>
      <point x="197" y="510"/>
      <point x="221" y="498"/>
      <point x="242" y="483" type="curve"/>
      <point x="207" y="453"/>
      <point x="161" y="435"/>
      <point x="53" y="414" type="curve"/>
      <point x="45" y="377"/>
      <point x="63" y="333"/>
      <point x="90" y="314" type="curve"/>
      <point x="251" y="325"/>
      <point x="384" y="381"/>
      <point x="388" y="453" type="curve" smooth="yes"/>
      <point x="392" y="502"/>
      <point x="336" y="532"/>
      <point x="267" y="560" type="curve"/>
      <point x="257" y="536" type="line"/>
    </contour>
  </outline>
</glyph>
<glyph name="paragraph" format="1">
  <advance width="702"/>
  <unicode hex="00B6"/>
  <outline>
    <contour>
      <point x="535" y="726" type="line"/>
      <point x="221" y="725"/>
      <point x="61" y="655"/>
      <point x="65" y="474" type="curve" smooth="yes"/>
      <point x="67" y="375"/>
      <point x="162" y="330"/>
      <point x="250" y="329" type="curve"/>
      <point x="253" y="394" type="line"/>
      <point x="239" y="260"/>
      <point x="211" y="149"/>
      <point x="167" y="35" type="curve"/>
      <point x="181" y="-1"/>
      <point x="302" y="-19"/>
      <point x="349" y="18" type="curve"/>
      <point x="387" y="326" type="line"/>
      <point x="460" y="604" type="line"/>
      <point x="480" y="608"/>
      <point x="505" y="614"/>
      <point x="523" y="611" type="curve"/>
      <point x="482" y="347" type="line"/>
      <point x="412" y="35" type="line"/>
      <point x="425" y="-1"/>
      <point x="546" y="-19"/>
      <point x="593" y="18" type="curve"/>
      <point x="607" y="152"/>
      <point x="616" y="263"/>
      <point x="625" y="326" type="curve"/>
      <point x="694" y="602" type="line"/>
      <point x="752" y="790" type="line"/>
      <point x="710" y="831"/>
      <point x="599" y="831"/>
      <point x="548" y="813" type="curve"/>
    </contour>
  </outline>
</glyph>
<glyph name="cedilla" format="1">
  <advance width="420"/>
  <unicode hex="00B8"/>
  <outline>
    <contour>
      <point x="195" y="0" type="move" name="_bottom"/>
    </contour>
    <contour>
      <point x="119" y="35" type="line"/>
      <point x="53" y="-97" type="line"/>
      <point x="58" y="-122"/>
      <point x="92" y="-142"/>
      <point x="125" y="-142" type="curve"/>
      <point x="142" y="-132"/>
      <point x="155" y="-124"/>
      <point x="176" y="-120" type="curve"/>
      <point x="187" y="-132"/>
      <point x="193" y="-150"/>
      <point x="190" y="-164" type="curve" smooth="yes"/>
      <point x="187" y="-188"/>
      <point x="166" y="-210"/>
      <point x="114" y="-210" type="curve" smooth="yes"/>
      <point x="52" y="-210"/>
      <point x="10" y="-191"/>
      <point x="-37" y="-141" type="curve"/>
      <point x="-56" y="-142"/>
      <point x="-72" y="-165"/>
      <point x="-69" y="-195" type="curve"/>
      <point x="-37" y="-253"/>
      <point x="44" y="-299"/>
      <point x="134" y="-301" type="curve" smooth="yes"/>
      <point x="232" y="-303"/>
      <point x="314" y="-252"/>
      <point x="331" y="-153" type="curve" smooth="yes"/>
      <point x="342" y="-87"/>
      <point x="299" y="-40"/>
      <point x="244" y="-40" type="curve" smooth="yes"/>
      <point x="216" y="-40"/>
      <point x="187" y="-50"/>
      <point x="164" y="-68" type="curve"/>
      <point x="217" y="35" type="line"/>
    </contour>
  </outline>
</glyph>
<glyph name="onesuperior" format="1">
  <advance width="305"/>
  <unicode hex="00B9"/>
  <outline>
    <contour>
      <point x="315" y="637" type="line"/>
      <point x="353" y="737" type="line"/>
      <point x="317" y="773"/>
      <point x="194" y="776"/>
      <point x="145" y="762" type="curve"/>
      <point x="59" y="631" type="line"/>
      <point x="75" y="612"/>
      <point x="103" y="600"/>
      <point x="125" y="604" type="curve"/>
      <point x="165" y="649" type="line"/>
      <point x="188" y="641" type="line"/>
      <point x="144" y="571" type="line"/>
      <point x="89" y="333" type="line"/>
      <point x="134" y="306"/>
      <point x="197" y="303"/>
      <point x="260" y="311" type="curve"/>
      <point x="268" y="420" type="line"/>
    </contour>
  </outline>
</glyph>
<glyph name="threequarters" format="1">
  <advance width="1036"/>
  <unicode hex="00BE"/>
  <outline>
    <contour>
      <point x="966" y="377" type="line"/>
      <point x="939" y="413"/>
      <point x="902" y="436"/>
      <point x="785" y="436" type="curve" smooth="yes"/>
      <point x="768" y="436"/>
      <point x="749" y="435"/>
      <point x="728" y="431" type="curve"/>
      <point x="528" y="140" type="line"/>
      <point x="524" y="112"/>
      <point x="528" y="92"/>
      <point x="549" y="76" type="curve"/>
      <point x="732" y="86" type="line"/>
      <point x="949" y="78" type="line"/>
      <point x="964" y="92"/>
      <point x="969" y="145"/>
      <point x="961" y="167" type="curve"/>
      <point x="733" y="157" type="line"/>
      <point x="699" y="162" type="line"/>
      <point x="768" y="279" type="line"/>
      <point x="813" y="342" type="line"/>
      <point x="820" y="340" type="line"/>
      <point x="772" y="188" type="line"/>
      <point x="728" y="6" type="line"/>
      <point x="760" y="-26"/>
      <point x="842" y="-30"/>
      <point x="881" y="-17" type="curve"/>
      <point x="890" y="106" type="line"/>
      <point x="928" y="296" type="line"/>
    </contour>
    <component base="threesuperior" xOffset="44"/>
    <component base="fraction" xOffset="180"/>
  </outline>
</glyph>
<glyph name="Eth" format="1">
  <advance width="826"/>
  <unicode hex="00D0"/>
  <outline>
    <contour>
      <point x="473" y="466" type="curve"/>
      <point x="205" y="408" type="line"/>
      <point x="63" y="427" type="line"/>
      <point x="28" y="390"/>
      <point x="24" y="342"/>
      <point x="79" y="293" type="curve"/>
      <point x="346" y="348" type="line"/>
      <point x="495" y="340" type="line"/>
      <point x="532" y="394"/>
      <point x="522" y="445"/>
    </contour>
    <component base="D" xOffset="32"/>
  </outline>
</glyph>
<glyph name="multiply" format="1">
  <advance width="626"/>
  <unicode hex="00D7"/>
  <outline>
    <contour>
      <point x="471" y="86" type="line"/>
      <point x="516" y="77"/>
      <point x="546" y="98"/>
      <point x="559" y="144" type="curve"/>
      <point x="337" y="367" type="line"/>
      <point x="182" y="637" type="line"/>
      <point x="139" y="640"/>
      <point x="105" y="621"/>
      <point x="95" y="578" type="curve"/>
    </contour>
    <contour>
      <point x="327" y="371" type="line"/>
      <point x="36" y="163" type="line"/>
      <point x="28" y="128"/>
      <point x="37" y="100"/>
      <point x="99" y="81" type="curve"/>
      <point x="632" y="573" type="line"/>
      <point x="632" y="627"/>
      <point x="618" y="635"/>
      <point x="555" y="640" type="curve"/>
    </contour>
  </outline>
</glyph>
<glyph name="Oslash" format="1">
  <advance width="783"/>
  <unicode hex="00D8"/>
  <outline>
    <contour>
      <point x="701" y="752" type="curve"/>
      <point x="571" y="525" type="line"/>
      <point x="-4" y="112" type="line"/>
      <point x="0" y="50"/>
      <point x="36" y="24"/>
      <point x="116" y="0" type="curve"/>
      <point x="223" y="184" type="line"/>
      <point x="834" y="653" type="line"/>
      <point x="828" y="716"/>
      <point x="787" y="747"/>
    </contour>
    <contour>
      <point x="53" y="326" type="curve" smooth="yes"/>
      <point x="53" y="168"/>
      <point x="223" y="0"/>
      <point x="354" y="0" type="curve" smooth="yes"/>
      <point x="551" y="0"/>
      <point x="763" y="216"/>
      <point x="760" y="425" type="curve" smooth="yes"/>
      <point x="757" y="603"/>
      <point x="578" y="768"/>
      <point x="462" y="768" type="curve" smooth="yes"/>
      <point x="240" y="768"/>
      <point x="53" y="543"/>
    </contour>
    <contour>
      <point x="451" y="660" type="curve"/>
      <point x="518" y="564"/>
      <point x="536" y="481"/>
      <point x="546" y="377" type="curve"/>
      <point x="522" y="277"/>
      <point x="444" y="173"/>
      <point x="357" y="109" type="curve"/>
      <point x="314" y="173"/>
      <point x="280" y="248"/>
      <point x="280" y="339" type="curve" smooth="yes"/>
      <point x="280" y="438"/>
      <point x="355" y="583"/>
    </contour>
  </outline>
</glyph>
<glyph name="Thorn" format="1">
  <advance width="716"/>
  <unicode hex="00DE"/>
  <outline>
    <contour>
      <point x="154" y="538" type="line"/>
      <point x="126" y="366"/>
      <point x="82" y="195"/>
      <point x="22" y="56" type="curve"/>
      <point x="47" y="3"/>
      <point x="231" y="-22"/>
      <point x="292" y="34" type="curve"/>
      <point x="306" y="206"/>
      <point x="315" y="421"/>
      <point x="325" y="593" type="curve"/>
      <point x="396" y="836" type="line"/>
      <point x="326" y="864"/>
      <point x="232" y="852"/>
      <point x="142" y="799" type="curve"/>
    </contour>
    <contour>
      <point x="282" y="497" type="line"/>
      <point x="309" y="516"/>
      <point x="354" y="538"/>
      <point x="429" y="538" type="curve"/>
      <point x="474" y="524"/>
      <point x="504" y="488"/>
      <point x="504" y="415" type="curve" smooth="yes"/>
      <point x="506" y="377"/>
      <point x="493" y="336"/>
      <point x="465" y="304" type="curve"/>
      <point x="421" y="260"/>
      <point x="327" y="260"/>
      <point x="234" y="296" type="curve"/>
      <point x="211" y="219" type="line"/>
      <point x="302" y="194"/>
      <point x="398" y="176"/>
      <point x="535" y="202" type="curve"/>
      <point x="665" y="270"/>
      <point x="724" y="334"/>
      <point x="724" y="424" type="curve" smooth="yes"/>
      <point x="726" y="567"/>
      <point x="585" y="635"/>
      <point x="430" y="651" type="curve"/>
      <point x="370" y="633"/>
      <point x="283" y="586"/>
      <point x="243" y="568" type="curve"/>
    </contour>
  </outline>
</glyph>
<glyph name="ae" format="1">
  <advance width="1114"/>
  <unicode hex="00E6"/>
  <outline>
    <contour>
      <point x="773" y="123" type="curve"/>
      <point x="743" y="148"/>
      <point x="729" y="172"/>
      <point x="723" y="204" type="curve"/>
      <point x="824" y="224"/>
      <point x="968" y="276"/>
      <point x="1045" y="315" type="curve"/>
      <point x="1101" y="446"/>
      <point x="1059" y="561"/>
      <point x="900" y="573" type="curve"/>
      <point x="765" y="552"/>
      <point x="706" y="499"/>
      <point x="644" y="418" type="curve"/>
      <point x="686" y="544" type="line"/>
      <point x="674" y="571"/>
      <point x="600" y="572"/>
      <point x="546" y="552" type="curve"/>
      <point x="527" y="521"/>
      <point x="523" y="487"/>
      <point x="526" y="442" type="curve"/>
      <point x="501" y="487"/>
      <point x="482" y="534"/>
      <point x="447" y="562" type="curve"/>
      <point x="194" y="554"/>
      <point x="46" y="378"/>
      <point x="46" y="235" type="curve" smooth="yes"/>
      <point x="46" y="122"/>
      <point x="121" y="23"/>
      <point x="314" y="15" type="curve"/>
      <point x="362" y="62"/>
      <point x="403" y="111"/>
      <point x="453" y="156" type="curve"/>
      <point x="462" y="146" type="line"/>
      <point x="427" y="52" type="line"/>
      <point x="436" y="7"/>
      <point x="533" y="-17"/>
      <point x="588" y="12" type="curve"/>
      <point x="603" y="136" type="line"/>
      <point x="624" y="82"/>
      <point x="664" y="38"/>
      <point x="750" y="0" type="curve"/>
      <point x="839" y="10"/>
      <point x="987" y="55"/>
      <point x="1045" y="113" type="curve"/>
      <point x="1059" y="181"/>
      <point x="1027" y="203"/>
      <point x="980" y="201" type="curve"/>
      <point x="921" y="162"/>
      <point x="854" y="136"/>
    </contour>
    <contour>
      <point x="818" y="458" type="line"/>
      <point x="841" y="439"/>
      <point x="869" y="403"/>
      <point x="850" y="334" type="curve"/>
      <point x="817" y="316"/>
      <point x="769" y="294"/>
      <point x="718" y="276" type="curve"/>
      <point x="721" y="333"/>
      <point x="745" y="393"/>
      <point x="797" y="448" type="curve"/>
    </contour>
    <contour>
      <point x="432" y="438" type="curve"/>
      <point x="462" y="421"/>
      <point x="492" y="386"/>
      <point x="512" y="347" type="curve"/>
      <point x="501" y="324"/>
      <point x="493" y="300"/>
      <point x="488" y="275" type="curve"/>
      <point x="438" y="237"/>
      <point x="379" y="193"/>
      <point x="328" y="158" type="curve"/>
      <point x="304" y="174"/>
      <point x="292" y="205"/>
      <point x="292" y="239" type="curve" smooth="yes"/>
      <point x="292" y="309"/>
      <point x="344" y="393"/>
    </contour>
  </outline>
</glyph>
<glyph name="divide" format="1">
  <advance width="843"/>
  <unicode hex="00F7"/>
  <outline>
    <contour>
      <point x="799" y="435" type="curve"/>
      <point x="451" y="414" type="line"/>
      <point x="91" y="420" type="line"/>
      <point x="66" y="383"/>
      <point x="62" y="341"/>
      <point x="77" y="321" type="curve"/>
      <point x="782" y="332" type="line"/>
      <point x="814" y="373"/>
      <point x="818" y="422"/>
    </contour>
    <contour>
      <point x="369" y="90" type="curve"/>
      <point x="408" y="90"/>
      <point x="447" y="116"/>
      <point x="479" y="156" type="curve"/>
      <point x="476" y="200"/>
      <point x="439" y="250"/>
      <point x="407" y="250" type="curve"/>
      <point x="361" y="243"/>
      <point x="323" y="197"/>
      <point x="312" y="149" type="curve"/>
      <point x="315" y="114"/>
      <point x="338" y="90"/>
    </contour>
    <contour>
      <point x="441" y="494" type="curve"/>
      <point x="481" y="494"/>
      <point x="521" y="519"/>
      <point x="551" y="561" type="curve"/>
      <point x="549" y="604"/>
      <point x="512" y="653"/>
      <point x="480" y="653" type="curve"/>
      <point x="433" y="648"/>
      <point x="396" y="603"/>
      <point x="385" y="553" type="curve"/>
      <point x="387" y="518"/>
      <point x="410" y="494"/>
    </contour>
  </outline>
</glyph>
<glyph name="oslash" format="1">
  <advance width="730"/>
  <unicode hex="00F8"/>
  <outline>
    <contour>
      <point x="246" y="156" type="line"/>
      <point x="80" y="0" type="line"/>
      <point x="19" y="8"/>
      <point x="0" y="37"/>
      <point x="-4" y="86" type="curve"/>
      <point x="521" y="392" type="line"/>
      <point x="695" y="600" type="line"/>
      <point x="738" y="590"/>
      <point x="771" y="554"/>
      <point x="762" y="516" type="curve"/>
    </contour>
    <contour>
      <point x="71" y="250" type="curve" smooth="yes"/>
      <point x="71" y="359"/>
      <point x="211" y="571"/>
      <point x="442" y="571" type="curve" smooth="yes"/>
      <point x="559" y="571"/>
      <point x="685" y="417"/>
      <point x="687" y="310" type="curve" smooth="yes"/>
      <point x="687" y="162"/>
      <point x="510" y="0"/>
      <point x="322" y="0" type="curve"/>
      <point x="201" y="0"/>
      <point x="71" y="129"/>
    </contour>
    <contour>
      <point x="416" y="475" type="curve"/>
      <point x="352" y="414"/>
      <point x="291" y="316"/>
      <point x="289" y="233" type="curve"/>
      <point x="288" y="191"/>
      <point x="313" y="135"/>
      <point x="344" y="103" type="curve"/>
      <point x="415" y="154"/>
      <point x="458" y="209"/>
      <point x="479" y="277" type="curve"/>
      <point x="475" y="369"/>
      <point x="459" y="417"/>
    </contour>
  </outline>
</glyph>
<glyph name="thorn" format="1">
  <advance width="746"/>
  <unicode hex="00FE"/>
  <outline>
    <contour>
      <point x="286" y="422" type="line"/>
      <point x="330" y="500" type="line"/>
      <point x="326" y="590" type="line"/>
      <point x="396" y="837" type="line"/>
      <point x="324" y="861"/>
      <point x="252" y="862"/>
      <point x="141" y="797" type="curve"/>
      <point x="152" y="538" type="line"/>
      <point x="130" y="263"/>
      <point x="66" y="-36"/>
      <point x="-24" y="-234" type="curve"/>
      <point x="40" y="-292"/>
      <point x="162" y="-308"/>
      <point x="247" y="-257" type="curve"/>
      <point x="249" y="-205"/>
      <point x="314" y="294"/>
      <point x="317" y="394" type="curve" smooth="yes"/>
    </contour>
    <contour>
      <point x="271" y="0" type="line"/>
      <point x="430" y="22"/>
      <point x="677" y="94"/>
      <point x="743" y="320" type="curve"/>
      <point x="720" y="487"/>
      <point x="648" y="559"/>
      <point x="430" y="562" type="curve"/>
      <point x="358" y="492"/>
      <point x="325" y="425"/>
      <point x="243" y="337" type="curve"/>
      <point x="296" y="277" type="line"/>
      <point x="350" y="339"/>
      <point x="384" y="383"/>
      <point x="444" y="422" type="curve"/>
      <point x="488" y="404"/>
      <point x="510" y="382"/>
      <point x="519" y="333" type="curve"/>
      <point x="507" y="213"/>
      <point x="412" y="127"/>
      <point x="240" y="91" type="curve"/>
    </contour>
  </outline>
</glyph>
<glyph name="Aogonek" format="1">
  <advance width="801"/>
  <unicode hex="0104"/>
  <outline>
    <contour>
      <point x="687" y="15" type="curve"/>
      <point x="687" y="59"/>
      <point x="679" y="76"/>
      <point x="639" y="85" type="curve"/>
      <point x="531" y="62"/>
      <point x="359" y="-34"/>
      <point x="359" y="-148" type="curve" smooth="yes"/>
      <point x="359" y="-212"/>
      <point x="456" y="-268"/>
      <point x="549" y="-268" type="curve" smooth="yes"/>
      <point x="666" y="-268"/>
      <point x="735" y="-235"/>
      <point x="791" y="-175" type="curve"/>
      <point x="793" y="-135"/>
      <point x="775" y="-111"/>
      <point x="746" y="-113" type="curve"/>
      <point x="710" y="-138"/>
      <point x="664" y="-155"/>
      <point x="623" y="-155" type="curve" smooth="yes"/>
      <point x="592" y="-155"/>
      <point x="564" y="-145"/>
      <point x="547" y="-122" type="curve"/>
      <point x="572" y="-47"/>
      <point x="635" y="-6"/>
    </contour>
    <component base="A"/>
  </outline>
</glyph>
<glyph name="dcaron" format="1">
  <advance width="822"/>
  <unicode hex="010F"/>
  <outline>
    <contour>
      <point x="884" y="621" type="curve"/>
      <point x="1000" y="707"/>
      <point x="1048" y="799"/>
      <point x="1054" y="890" type="curve"/>
      <point x="1037" y="938"/>
      <point x="953" y="996"/>
      <point x="859" y="925" type="curve"/>
      <point x="876" y="756" type="line"/>
      <point x="813" y="663" type="line"/>
      <point x="822" y="636"/>
      <point x="844" y="622"/>
    </contour>
    <component base="d"/>
  </outline>
</glyph>
<glyph name="eogonek" format="1">
  <advance width="660"/>
  <unicode hex="0119"/>
  <outline>
    <contour>
      <point x="483" y="47" type="curve"/>
      <point x="489" y="87"/>
      <point x="464" y="107"/>
      <point x="423" y="104" type="curve"/>
      <point x="253" y="73"/>
      <point x="145" y="-37"/>
      <point x="145" y="-129" type="curve" smooth="yes"/>
      <point x="145" y="-202"/>
      <point x="211" y="-268"/>
      <point x="341" y="-268" type="curve" smooth="yes"/>
      <point x="446" y="-268"/>
      <point x="536" y="-216"/>
      <point x="569" y="-156" type="curve"/>
      <point x="569" y="-122"/>
      <point x="555" y="-97"/>
      <point x="507" y="-101" type="curve"/>
      <point x="464" y="-139"/>
      <point x="406" y="-159"/>
      <point x="353" y="-159" type="curve" smooth="yes"/>
      <point x="322" y="-159"/>
      <point x="293" y="-150"/>
      <point x="275" y="-137" type="curve"/>
      <point x="303" y="-48"/>
      <point x="408" y="29"/>
    </contour>
    <component base="e"/>
  </outline>
</glyph>
<glyph name="gcommaaccent" format="1">
  <advance width="760"/>
  <unicode hex="0123"/>
  <outline>
    <contour>
      <point x="477" y="983" type="curve"/>
      <point x="381" y="861"/>
      <point x="360" y="748"/>
      <point x="377" y="652" type="curve"/>
      <point x="410" y="604"/>
      <point x="516" y="561"/>
      <point x="597" y="664" type="curve"/>
      <point x="528" y="844" type="line"/>
      <point x="564" y="960" type="line"/>
      <point x="547" y="987"/>
      <point x="520" y="993"/>
    </contour>
    <component base="g"/>
  </outline>
</glyph>
<glyph name="Iogonek" format="1">
  <advance width="356"/>
  <unicode hex="012E"/>
  <outline>
    <contour>
      <point x="247" y="16" type="curve"/>
      <point x="249" y="45"/>
      <point x="240" y="66"/>
      <point x="199" y="65" type="curve"/>
      <point x="94" y="49"/>
      <point x="-41" y="-31"/>
      <point x="-41" y="-137" type="curve" smooth="yes"/>
      <point x="-41" y="-207"/>
      <point x="46" y="-270"/>
      <point x="149" y="-270" type="curve" smooth="yes"/>
      <point x="233" y="-270"/>
      <point x="320" y="-238"/>
      <point x="362" y="-175" type="curve"/>
      <point x="374" y="-140"/>
      <point x="357" y="-116"/>
      <point x="310" y="-119" type="curve"/>
      <point x="273" y="-148"/>
      <point x="231" y="-162"/>
      <point x="193" y="-162" type="curve" smooth="yes"/>
      <point x="159" y="-162"/>
      <point x="128" y="-151"/>
      <point x="106" y="-129" type="curve"/>
      <point x="114" y="-64"/>
      <point x="211" y="1"/>
    </contour>
    <component base="I"/>
  </outline>
</glyph>
<glyph name="Kcommaaccent" format="1">
  <advance width="752"/>
  <unicode hex="0136"/>
  <outline>
    <contour>
      <point x="293" y="-355" type="curve"/>
      <point x="409" y="-269"/>
      <point x="457" y="-177"/>
      <point x="463" y="-86" type="curve"/>
      <point x="446" y="-38"/>
      <point x="362" y="20"/>
      <point x="268" y="-51" type="curve"/>
      <point x="285" y="-220" type="line"/>
      <point x="222" y="-313" type="line"/>
      <point x="231" y="-340"/>
      <point x="253" y="-354"/>
    </contour>
    <component base="K"/>
  </outline>
</glyph>
<glyph name="lcommaaccent" format="1">
  <advance width="375"/>
  <unicode hex="013C"/>
  <outline>
    <contour>
      <point x="76" y="-355" type="curve"/>
      <point x="192" y="-269"/>
      <point x="240" y="-177"/>
      <point x="246" y="-86" type="curve"/>
      <point x="229" y="-38"/>
      <point x="145" y="20"/>
      <point x="51" y="-51" type="curve"/>
      <point x="68" y="-220" type="line"/>
      <point x="5" y="-313" type="line"/>
      <point x="14" y="-340"/>
      <point x="36" y="-354"/>
    </contour>
    <component base="l"/>
  </outline>
</glyph>
<glyph name="Lcaron" format="1">
  <advance width="631"/>
  <unicode hex="013D"/>
  <outline>
    <contour>
      <point x="522" y="521" type="curve"/>
      <point x="638" y="607"/>
      <point x="686" y="699"/>
      <point x="692" y="790" type="curve"/>
      <point x="675" y="838"/>
      <point x="591" y="896"/>
      <point x="497" y="825" type="curve"/>
      <point x="514" y="656" type="line"/>
      <point x="451" y="563" type="line"/>
      <point x="460" y="536"/>
      <point x="482" y="522"/>
    </contour>
    <component base="L"/>
  </outline>
</glyph>
<glyph name="lcaron" format="1">
  <advance width="417"/>
  <unicode hex="013E"/>
  <outline>
    <contour>
      <point x="479" y="621" type="curve"/>
      <point x="595" y="707"/>
      <point x="643" y="799"/>
      <point x="649" y="890" type="curve"/>
      <point x="632" y="938"/>
      <point x="548" y="996"/>
      <point x="454" y="925" type="curve"/>
      <point x="471" y="756" type="line"/>
      <point x="408" y="663" type="line"/>
      <point x="417" y="636"/>
      <point x="439" y="622"/>
    </contour>
    <component base="l"/>
  </outline>
</glyph>
<glyph name="Lslash" format="1">
  <advance width="711"/>
  <unicode hex="0141"/>
  <outline>
    <contour>
      <point x="553" y="546" type="curve"/>
      <point x="237" y="437" type="line"/>
      <point x="34" y="430" type="line"/>
      <point x="13" y="402"/>
      <point x="17" y="343"/>
      <point x="69" y="304" type="curve"/>
      <point x="360" y="403" type="line"/>
      <point x="587" y="425" type="line"/>
      <point x="630" y="488"/>
      <point x="604" y="534"/>
    </contour>
    <component base="L" xOffset="80"/>
  </outline>
</glyph>
<glyph name="Ncommaaccent" format="1">
  <advance width="820"/>
  <unicode hex="0145"/>
  <outline>
    <contour>
      <point x="307" y="-355" type="curve"/>
      <point x="423" y="-269"/>
      <point x="471" y="-177"/>
      <point x="477" y="-86" type="curve"/>
      <point x="460" y="-38"/>
      <point x="376" y="20"/>
      <point x="282" y="-51" type="curve"/>
      <point x="299" y="-220" type="line"/>
      <point x="236" y="-313" type="line"/>
      <point x="245" y="-340"/>
      <point x="267" y="-354"/>
    </contour>
    <component base="N"/>
  </outline>
</glyph>
<glyph name="ncommaaccent" format="1">
  <advance width="754"/>
  <unicode hex="0146"/>
  <outline>
    <contour>
      <point x="295" y="-355" type="curve"/>
      <point x="411" y="-269"/>
      <point x="459" y="-177"/>
      <point x="465" y="-86" type="curve"/>
      <point x="448" y="-38"/>
      <point x="364" y="20"/>
      <point x="270" y="-51" type="curve"/>
      <point x="287" y="-220" type="line"/>
      <point x="224" y="-313" type="line"/>
      <point x="233" y="-340"/>
      <point x="255" y="-354"/>
    </contour>
    <component base="n"/>
  </outline>
</glyph>
<glyph name="Rcommaaccent" format="1">
  <advance width="760"/>
  <unicode hex="0156"/>
  <outline>
    <contour>
      <point x="319" y="-355" type="curve"/>
      <point x="435" y="-269"/>
      <point x="483" y="-177"/>
      <point x="489" y="-86" type="curve"/>
      <point x="472" y="-38"/>
      <point x="388" y="20"/>
      <point x="294" y="-51" type="curve"/>
      <point x="311" y="-220" type="line"/>
      <point x="248" y="-313" type="line"/>
      <point x="257" y="-340"/>
      <point x="279" y="-354"/>
    </contour>
    <component base="R"/>
  </outline>
</glyph>
<glyph name="tcaron" format="1">
  <advance width="609"/>
  <unicode hex="0165"/>
  <outline>
    <contour>
      <point x="557" y="621" type="curve"/>
      <point x="673" y="707"/>
      <point x="721" y="799"/>
      <point x="727" y="890" type="curve"/>
      <point x="710" y="938"/>
      <point x="626" y="996"/>
      <point x="532" y="925" type="curve"/>
      <point x="549" y="756" type="line"/>
      <point x="486" y="663" type="line"/>
      <point x="495" y="636"/>
      <point x="517" y="622"/>
    </contour>
    <contour>
      <point x="237" y="524" type="line"/>
      <point x="84" y="530" type="line"/>
      <point x="51" y="479"/>
      <point x="52" y="449"/>
      <point x="86" y="412" type="curve"/>
      <point x="384" y="462" type="line"/>
      <point x="581" y="472" type="line"/>
      <point x="608" y="526"/>
      <point x="607" y="560"/>
      <point x="579" y="587" type="curve"/>
    </contour>
    <contour>
      <point x="345" y="84" type="line"/>
      <point x="355" y="226"/>
      <point x="375" y="350"/>
      <point x="383" y="521" type="curve"/>
      <point x="458" y="753" type="line"/>
      <point x="415" y="800"/>
      <point x="323" y="799"/>
      <point x="210" y="739" type="curve"/>
      <point x="232" y="515" type="line"/>
      <point x="203" y="396"/>
      <point x="172" y="281"/>
      <point x="108" y="122" type="curve"/>
      <point x="129" y="65"/>
      <point x="176" y="11"/>
      <point x="308" y="0" type="curve"/>
      <point x="428" y="25"/>
      <point x="514" y="90"/>
      <point x="575" y="141" type="curve"/>
      <point x="581" y="206"/>
      <point x="564" y="225"/>
      <point x="508" y="229" type="curve"/>
      <point x="449" y="180"/>
      <point x="380" y="135"/>
      <point x="296" y="106" type="curve"/>
    </contour>
  </outline>
</glyph>
<glyph name="Uogonek" format="1">
  <advance width="735"/>
  <unicode hex="0172"/>
  <outline>
    <contour>
      <point x="444" y="9" type="curve"/>
      <point x="443" y="37"/>
      <point x="440" y="67"/>
      <point x="393" y="72" type="curve"/>
      <point x="247" y="50"/>
      <point x="141" y="-38"/>
      <point x="141" y="-127" type="curve" smooth="yes"/>
      <point x="141" y="-202"/>
      <point x="213" y="-268"/>
      <point x="350" y="-268" type="curve" smooth="yes"/>
      <point x="427" y="-268"/>
      <point x="507" y="-236"/>
      <point x="552" y="-175" type="curve"/>
      <point x="555" y="-140"/>
      <point x="539" y="-115"/>
      <point x="503" y="-119" type="curve"/>
      <point x="471" y="-148"/>
      <point x="425" y="-165"/>
      <point x="383" y="-165" type="curve" smooth="yes"/>
      <point x="346" y="-165"/>
      <point x="312" y="-151"/>
      <point x="294" y="-122" type="curve"/>
      <point x="300" y="-63"/>
      <point x="370" y="-4"/>
    </contour>
    <component base="U"/>
  </outline>
</glyph>
<glyph name="florin" format="1">
  <advance width="662"/>
  <unicode hex="0192"/>
  <outline>
    <contour>
      <point x="274" y="398" type="line"/>
      <point x="108" y="400" type="line"/>
      <point x="75" y="350"/>
      <point x="76" y="319"/>
      <point x="110" y="283" type="curve"/>
      <point x="386" y="334" type="line"/>
      <point x="599" y="342" type="line"/>
      <point x="626" y="396"/>
      <point x="625" y="429"/>
      <point x="598" y="457" type="curve"/>
    </contour>
    <contour>
      <point x="104" y="-259" type="line"/>
      <point x="220" y="-290"/>
      <point x="309" y="-260"/>
      <point x="351" y="-209" type="curve"/>
      <point x="422" y="136"/>
      <point x="440" y="556"/>
      <point x="432" y="753" type="curve"/>
      <point x="447" y="773"/>
      <point x="462" y="783"/>
      <point x="475" y="779" type="curve"/>
      <point x="515" y="733"/>
      <point x="523" y="698"/>
      <point x="527" y="641" type="curve"/>
      <point x="624" y="627"/>
      <point x="721" y="659"/>
      <point x="737" y="732" type="curve"/>
      <point x="703" y="817"/>
      <point x="677" y="866"/>
      <point x="539" y="898" type="curve"/>
      <point x="438" y="889"/>
      <point x="307" y="813"/>
      <point x="236" y="715" type="curve"/>
      <point x="281" y="382" type="line"/>
      <point x="257" y="198"/>
      <point x="220" y="46"/>
      <point x="131" y="-173" type="curve"/>
      <point x="175" y="-179" type="line"/>
      <point x="38" y="13" type="line"/>
      <point x="9" y="22"/>
      <point x="-31" y="2"/>
      <point x="-35" y="-37" type="curve"/>
    </contour>
  </outline>
</glyph>
<glyph name="Scommaaccent" format="1">
  <advance width="724"/>
  <unicode hex="0218"/>
  <outline>
    <contour>
      <point x="233" y="-355" type="curve"/>
      <point x="349" y="-269"/>
      <point x="397" y="-177"/>
      <point x="403" y="-86" type="curve"/>
      <point x="386" y="-38"/>
      <point x="302" y="20"/>
      <point x="208" y="-51" type="curve"/>
      <point x="225" y="-220" type="line"/>
      <point x="162" y="-313" type="line"/>
      <point x="171" y="-340"/>
      <point x="193" y="-354"/>
    </contour>
    <component base="S"/>
  </outline>
</glyph>
<glyph name="scommaaccent" format="1">
  <advance width="598"/>
  <unicode hex="0219"/>
  <outline>
    <contour>
      <point x="173" y="-355" type="curve"/>
      <point x="289" y="-269"/>
      <point x="337" y="-177"/>
      <point x="343" y="-86" type="curve"/>
      <point x="326" y="-38"/>
      <point x="242" y="20"/>
      <point x="148" y="-51" type="curve"/>
      <point x="165" y="-220" type="line"/>
      <point x="102" y="-313" type="line"/>
      <point x="111" y="-340"/>
      <point x="133" y="-354"/>
    </contour>
    <component base="s"/>
  </outline>
</glyph>
<glyph name="tcommaaccent" format="1">
  <advance width="609"/>
  <unicode hex="021B"/>
  <outline>
    <contour>
      <point x="213" y="-355" type="curve"/>
      <point x="329" y="-269"/>
      <point x="377" y="-177"/>
      <point x="383" y="-86" type="curve"/>
      <point x="366" y="-38"/>
      <point x="282" y="20"/>
      <point x="188" y="-51" type="curve"/>
      <point x="205" y="-220" type="line"/>
      <point x="142" y="-313" type="line"/>
      <point x="151" y="-340"/>
      <point x="173" y="-354"/>
    </contour>
    <component base="t"/>
  </outline>
</glyph>
<glyph name="circumflex" format="1">
  <advance width="572"/>
  <unicode hex="02C6"/>
  <outline>
    <contour>
      <point x="329" y="563" type="move" name="_top"/>
    </contour>
    <contour>
      <point x="93" y="665" type="line"/>
      <point x="97" y="632"/>
      <point x="137" y="616"/>
      <point x="185" y="618" type="curve"/>
      <point x="352" y="765" type="line"/>
      <point x="415" y="637" type="line"/>
      <point x="455" y="620"/>
      <point x="552" y="595"/>
      <point x="624" y="657" type="curve"/>
      <point x="513" y="836" type="line"/>
      <point x="459" y="867"/>
      <point x="394" y="877"/>
      <point x="308" y="863" type="curve"/>
    </contour>
  </outline>
</glyph>
<glyph name="caron" format="1">
  <advance width="564"/>
  <unicode hex="02C7"/>
  <outline>
    <contour>
      <point x="312" y="563" type="move" name="_top"/>
    </contour>
    <contour>
      <point x="466" y="647" type="curve"/>
      <point x="645" y="825" type="line"/>
      <point x="613" y="889"/>
      <point x="502" y="867"/>
      <point x="470" y="858" type="curve"/>
      <point x="334" y="701" type="line"/>
      <point x="222" y="866" type="line"/>
      <point x="180" y="876"/>
      <point x="136" y="857"/>
      <point x="122" y="827" type="curve"/>
      <point x="254" y="635" type="line"/>
      <point x="314" y="603"/>
      <point x="396" y="618"/>
    </contour>
  </outline>
</glyph>
<glyph name="ogonek" format="1">
  <advance width="484"/>
  <unicode hex="02DB"/>
  <outline>
    <contour>
      <point x="206" y="0" type="move" name="_ogonek"/>
    </contour>
    <contour>
      <point x="281" y="-7" type="curve"/>
      <point x="280" y="21"/>
      <point x="255" y="41"/>
      <point x="215" y="50" type="curve"/>
      <point x="87" y="40"/>
      <point x="-29" y="-7"/>
      <point x="-43" y="-108" type="curve" smooth="yes"/>
      <point x="-59" y="-212"/>
      <point x="44" y="-268"/>
      <point x="166" y="-268" type="curve" smooth="yes"/>
      <point x="264" y="-268"/>
      <point x="333" y="-235"/>
      <point x="389" y="-175" type="curve"/>
      <point x="391" y="-145"/>
      <point x="376" y="-120"/>
      <point x="357" y="-119" type="curve"/>
      <point x="327" y="-145"/>
      <point x="284" y="-163"/>
      <point x="242" y="-163" type="curve" smooth="yes"/>
      <point x="202" y="-163"/>
      <point x="168" y="-153"/>
      <point x="153" y="-122" type="curve"/>
      <point x="160" y="-61"/>
      <point x="226" y="-18"/>
    </contour>
  </outline>
</glyph>
<glyph name="hungarumlaut" format="1">
  <advance width="475"/>
  <unicode hex="02DD"/>
  <outline>
    <contour>
      <point x="276" y="563" type="move" name="_top"/>
    </contour>
    <contour>
      <point x="86" y="626" type="line"/>
      <point x="120" y="613"/>
      <point x="164" y="613"/>
      <point x="202" y="616" type="curve"/>
      <point x="306" y="741" type="line"/>
      <point x="341" y="814" type="line"/>
      <point x="308" y="824"/>
      <point x="248" y="824"/>
      <point x="175" y="814" type="curve"/>
    </contour>
    <contour>
      <point x="302" y="626" type="line"/>
      <point x="332" y="613"/>
      <point x="372" y="613"/>
      <point x="405" y="616" type="curve"/>
      <point x="519" y="741" type="line"/>
      <point x="554" y="814" type="line"/>
      <point x="522" y="824"/>
      <point x="461" y="824"/>
      <point x="387" y="814" type="curve"/>
    </contour>
  </outline>
</glyph>
<glyph name="pi" format="1">
  <advance width="1037"/>
  <unicode hex="03C0"/>
  <outline>
    <contour>
      <point x="359" y="693" type="curve"/>
      <point x="249" y="646"/>
      <point x="188" y="588"/>
      <point x="149" y="525" type="curve"/>
      <point x="148" y="493"/>
      <point x="180" y="477"/>
      <point x="211" y="474" type="curve"/>
      <point x="318" y="538" type="line"/>
      <point x="325" y="540" type="line"/>
      <point x="406" y="501"/>
      <point x="662" y="448"/>
      <point x="787" y="453" type="curve"/>
      <point x="897" y="473"/>
      <point x="987" y="514"/>
      <point x="1050" y="581" type="curve"/>
      <point x="1044" y="644"/>
      <point x="993" y="691"/>
      <point x="913" y="693" type="curve"/>
      <point x="784" y="585" type="line"/>
      <point x="767" y="582" type="line"/>
      <point x="648" y="598"/>
      <point x="478" y="646"/>
    </contour>
    <contour>
      <point x="391" y="540" type="line"/>
      <point x="372" y="408"/>
      <point x="335" y="274"/>
      <point x="290" y="121" type="curve"/>
      <point x="283" y="113"/>
      <point x="273" y="112"/>
      <point x="259" y="108" type="curve"/>
      <point x="223" y="159"/>
      <point x="215" y="186"/>
      <point x="207" y="235" type="curve"/>
      <point x="138" y="276"/>
      <point x="90" y="249"/>
      <point x="31" y="166" type="curve"/>
      <point x="54" y="82"/>
      <point x="85" y="32"/>
      <point x="192" y="-18" type="curve"/>
      <point x="315" y="-23"/>
      <point x="378" y="-2"/>
      <point x="430" y="47" type="curve"/>
      <point x="497" y="190"/>
      <point x="539" y="433"/>
      <point x="545" y="510" type="curve"/>
    </contour>
    <contour>
      <point x="650" y="-9" type="curve"/>
      <point x="717" y="-24"/>
      <point x="829" y="-24"/>
      <point x="913" y="21" type="curve"/>
      <point x="947" y="103"/>
      <point x="934" y="166"/>
      <point x="871" y="188" type="curve"/>
      <point x="850" y="171"/>
      <point x="828" y="159"/>
      <point x="794" y="146" type="curve"/>
      <point x="793" y="260"/>
      <point x="822" y="396"/>
      <point x="873" y="520" type="curve"/>
      <point x="711" y="547" type="line"/>
      <point x="657" y="398"/>
      <point x="590" y="155"/>
    </contour>
  </outline>
</glyph>
<glyph name="emdash" format="1">
  <advance width="1035"/>
  <unicode hex="2014"/>
  <outline>
    <contour>
      <point x="985" y="400" type="curve"/>
      <point x="595" y="380" type="line"/>
      <point x="87" y="385" type="line"/>
      <point x="62" y="349"/>
      <point x="57" y="306"/>
      <point x="73" y="287" type="curve"/>
      <point x="968" y="298" type="line"/>
      <point x="1000" y="339"/>
      <point x="1004" y="388"/>
    </contour>
  </outline>
</glyph>
<glyph name="quoteright" format="1">
  <advance width="397"/>
  <unicode hex="2019"/>
  <outline>
    <contour>
      <point x="235" y="617" type="curve"/>
      <point x="362" y="711"/>
      <point x="414" y="812"/>
      <point x="421" y="911" type="curve"/>
      <point x="402" y="963"/>
      <point x="310" y="1027"/>
      <point x="208" y="949" type="curve"/>
      <point x="226" y="765" type="line"/>
      <point x="158" y="663" type="line"/>
      <point x="167" y="634"/>
      <point x="191" y="619"/>
    </contour>
  </outline>
</glyph>
<glyph name="daggerdbl" format="1">
  <advance width="570"/>
  <unicode hex="2021"/>
  <outline>
    <contour>
      <point x="436" y="-45" type="curve"/>
      <point x="156" y="-69" type="line"/>
      <point x="-9" y="-55" type="line"/>
      <point x="-41" y="-105"/>
      <point x="-44" y="-139"/>
      <point x="-19" y="-168" type="curve"/>
      <point x="262" y="-142" type="line"/>
      <point x="426" y="-163" type="line"/>
      <point x="463" y="-116"/>
      <point x="465" y="-87"/>
    </contour>
    <contour>
      <point x="124" y="531" type="curve"/>
      <point x="404" y="556" type="line"/>
      <point x="569" y="541" type="line"/>
      <point x="601" y="591"/>
      <point x="604" y="625"/>
      <point x="579" y="655" type="curve"/>
      <point x="298" y="628" type="line"/>
      <point x="134" y="649" type="line"/>
      <point x="97" y="602"/>
      <point x="95" y="573"/>
    </contour>
    <contour>
      <point x="504" y="866" type="line"/>
      <point x="439" y="891"/>
      <point x="373" y="890"/>
      <point x="261" y="838" type="curve"/>
      <point x="263" y="601" type="line"/>
      <point x="227" y="260" type="line"/>
      <point x="132" y="-164" type="line"/>
      <point x="55" y="-380" type="line"/>
      <point x="124" y="-405"/>
      <point x="186" y="-404"/>
      <point x="298" y="-352" type="curve"/>
      <point x="296" y="-116" type="line"/>
      <point x="333" y="254" type="line"/>
      <point x="426" y="648" type="line"/>
    </contour>
  </outline>
</glyph>
<glyph name="bullet" format="1">
  <advance width="572"/>
  <unicode hex="2022"/>
  <outline>
    <contour>
      <point x="231" y="183" type="curve" smooth="yes"/>
      <point x="327" y="183"/>
      <point x="424" y="242"/>
      <point x="501" y="344" type="curve" smooth="yes"/>
      <point x="491" y="450"/>
      <point x="402" y="568"/>
      <point x="325" y="568" type="curve" smooth="yes"/>
      <point x="212" y="553"/>
      <point x="119" y="442"/>
      <point x="92" y="323" type="curve" smooth="yes"/>
      <point x="99" y="241"/>
      <point x="156" y="183"/>
    </contour>
  </outline>
</glyph>
<glyph name="guilsinglleft" format="1">
  <advance width="393"/>
  <unicode hex="2039"/>
  <outline>
    <contour>
      <point x="325" y="271" type="curve"/>
      <point x="243" y="312" type="line"/>
      <point x="179" y="348" type="line"/>
      <point x="353" y="454" type="line"/>
      <point x="404" y="530"/>
      <point x="391" y="592"/>
      <point x="337" y="614" type="curve"/>
      <point x="216" y="524" type="line"/>
      <point x="75" y="417" type="line"/>
      <point x="65" y="392"/>
      <point x="58" y="367"/>
      <point x="59" y="340" type="curve"/>
      <point x="250" y="114" type="line"/>
      <point x="309" y="112"/>
      <point x="345" y="195"/>
    </contour>
  </outline>
</glyph>
<glyph name="fraction" format="1">
  <advance width="603"/>
  <unicode hex="2044"/>
  <outline>
    <contour>
      <point x="323" y="404" type="line"/>
      <point x="9" y="-27" type="line"/>
      <point x="14" y="-74"/>
      <point x="40" y="-96"/>
      <point x="124" y="-92" type="curve"/>
      <point x="632" y="829" type="line"/>
      <point x="610" y="874"/>
      <point x="585" y="886"/>
      <point x="501" y="871" type="curve"/>
    </contour>
  </outline>
</glyph>
<glyph name="rupee" format="1">
  <advance width="1328"/>
  <unicode hex="20A8"/>
  <outline>
    <contour>
      <point x="1284" y="197" type="curve"/>
      <point x="1248" y="318"/>
      <point x="979" y="385"/>
      <point x="979" y="435" type="curve" smooth="yes"/>
      <point x="979" y="457"/>
      <point x="1019" y="485"/>
      <point x="1059" y="500" type="curve"/>
      <point x="1090" y="472"/>
      <point x="1102" y="438"/>
      <point x="1114" y="392" type="curve"/>
      <point x="1225" y="375"/>
      <point x="1282" y="411"/>
      <point x="1286" y="475" type="curve"/>
      <point x="1247" y="534"/>
      <point x="1198" y="575"/>
      <point x="1091" y="587" type="curve"/>
      <point x="955" y="580"/>
      <point x="849" y="510"/>
      <point x="790" y="393" type="curve"/>
      <point x="834" y="262"/>
      <point x="1076" y="197"/>
      <point x="1077" y="154" type="curve" smooth="yes"/>
      <point x="1077" y="124"/>
      <point x="1028" y="92"/>
      <point x="985" y="80" type="curve"/>
      <point x="950" y="126"/>
      <point x="940" y="147"/>
      <point x="930" y="211" type="curve"/>
      <point x="829" y="246"/>
      <point x="776" y="178"/>
      <point x="751" y="108" type="curve"/>
      <point x="793" y="43"/>
      <point x="873" y="9"/>
      <point x="979" y="0" type="curve"/>
      <point x="1125" y="5"/>
      <point x="1250" y="74"/>
    </contour>
    <component base="R"/>
  </outline>
</glyph>
<glyph name="indianrupee" format="1">
  <advance width="702"/>
  <unicode hex="20B9"/>
  <outline>
    <contour>
      <point x="81" y="306" type="curve"/>
      <point x="110" y="194"/>
      <point x="197" y="84"/>
      <point x="298" y="0" type="curve"/>
      <point x="441" y="2"/>
      <point x="499" y="87"/>
      <point x="470" y="183" type="curve"/>
      <point x="274" y="243" type="line"/>
      <point x="263" y="298" type="line"/>
      <point x="422" y="312"/>
      <point x="557" y="413"/>
      <point x="557" y="553" type="curve" smooth="yes"/>
      <point x="557" y="645"/>
      <point x="508" y="770"/>
      <point x="382" y="770" type="curve" smooth="yes"/>
      <point x="312" y="770"/>
      <point x="265" y="732"/>
      <point x="228" y="684" type="curve"/>
      <point x="301" y="670"/>
      <point x="342" y="613"/>
      <point x="342" y="539" type="curve" smooth="yes"/>
      <point x="342" y="474"/>
      <point x="311" y="417"/>
      <point x="254" y="385" type="curve"/>
      <point x="205" y="385"/>
      <point x="186" y="394"/>
      <point x="175" y="397" type="curve"/>
      <point x="117" y="380"/>
      <point x="110" y="364"/>
    </contour>
    <contour>
      <point x="734" y="741" type="curve"/>
      <point x="424" y="721" type="line"/>
      <point x="121" y="727" type="line"/>
      <point x="102" y="690"/>
      <point x="98" y="664"/>
      <point x="111" y="645" type="curve"/>
      <point x="721" y="657" type="line"/>
      <point x="746" y="696"/>
      <point x="750" y="729"/>
    </contour>
    <contour>
      <point x="705" y="574" type="curve"/>
      <point x="395" y="553" type="line"/>
      <point x="92" y="559" type="line"/>
      <point x="74" y="523"/>
      <point x="69" y="497"/>
      <point x="83" y="477" type="curve"/>
      <point x="692" y="488" type="line"/>
      <point x="717" y="529"/>
      <point x="722" y="561"/>
    </contour>
  </outline>
</glyph>
<glyph name="turkishlira" format="1">
  <advance width="631"/>
  <unicode hex="20BA"/>
  <outline>
    <contour>
      <point x="155" y="711" type="curve"/>
      <point x="169" y="537" type="line"/>
      <point x="142" y="423"/>
      <point x="99" y="305"/>
      <point x="34" y="132" type="curve"/>
      <point x="59" y="60"/>
      <point x="116" y="17"/>
      <point x="202" y="0" type="curve"/>
      <point x="401" y="25"/>
      <point x="513" y="79"/>
      <point x="594" y="136" type="curve"/>
      <point x="611" y="219"/>
      <point x="564" y="294"/>
      <point x="468" y="286" type="curve"/>
      <point x="435" y="235"/>
      <point x="396" y="175"/>
      <point x="352" y="134" type="curve"/>
      <point x="159" y="95" type="line"/>
      <point x="221" y="52" type="line"/>
      <point x="325" y="434" type="line"/>
      <point x="419" y="735" type="line"/>
      <point x="354" y="767"/>
      <point x="247" y="755"/>
    </contour>
    <contour>
      <point x="530" y="639" type="curve"/>
      <point x="232" y="559" type="line"/>
      <point x="26" y="532" type="line"/>
      <point x="6" y="492"/>
      <point x="8" y="449"/>
      <point x="24" y="433" type="curve"/>
      <point x="527" y="536" type="line"/>
      <point x="553" y="581"/>
      <point x="552" y="630"/>
    </contour>
    <contour>
      <point x="504" y="483" type="curve"/>
      <point x="206" y="403" type="line"/>
      <point x="0" y="376" type="line"/>
      <point x="-20" y="336"/>
      <point x="-18" y="293"/>
      <point x="-2" y="277" type="curve"/>
      <point x="501" y="380" type="line"/>
      <point x="527" y="425"/>
      <point x="526" y="474"/>
    </contour>
  </outline>
</glyph>
<glyph name="litre" format="1">
  <advance width="568"/>
  <unicode hex="2113"/>
  <outline>
    <contour>
      <point x="608" y="617" type="curve"/>
      <point x="599" y="734"/>
      <point x="575" y="793"/>
      <point x="483" y="836" type="curve"/>
      <point x="401" y="826"/>
      <point x="327" y="773"/>
      <point x="278" y="713" type="curve"/>
      <point x="240" y="536"/>
      <point x="182" y="306"/>
      <point x="124" y="128" type="curve"/>
      <point x="140" y="74"/>
      <point x="162" y="26"/>
      <point x="304" y="1" type="curve"/>
      <point x="392" y="50"/>
      <point x="460" y="98"/>
      <point x="518" y="159" type="curve"/>
      <point x="519" y="192"/>
      <point x="509" y="210"/>
      <point x="479" y="212" type="curve"/>
      <point x="438" y="185"/>
      <point x="391" y="159"/>
      <point x="358" y="148" type="curve"/>
      <point x="345" y="159" type="line"/>
      <point x="370" y="378"/>
      <point x="419" y="644"/>
      <point x="459" y="750" type="curve"/>
      <point x="383" y="736" type="line"/>
      <point x="423" y="729"/>
      <point x="479" y="673"/>
      <point x="495" y="599" type="curve"/>
      <point x="440" y="482"/>
      <point x="328" y="404"/>
      <point x="222" y="368" type="curve"/>
      <point x="52" y="354" type="line"/>
      <point x="29" y="326"/>
      <point x="36" y="302"/>
      <point x="63" y="274" type="curve"/>
      <point x="304" y="305"/>
      <point x="516" y="421"/>
    </contour>
  </outline>
</glyph>
<glyph name="trademark" format="1">
  <advance width="992"/>
  <unicode hex="2122"/>
  <outline>
    <contour>
      <point x="217" y="596" type="line"/>
      <point x="205" y="514"/>
      <point x="187" y="438"/>
      <point x="152" y="344" type="curve"/>
      <point x="167" y="312"/>
      <point x="283" y="298"/>
      <point x="323" y="329" type="curve"/>
      <point x="325" y="402"/>
      <point x="328" y="460"/>
      <point x="331" y="523" type="curve"/>
      <point x="388" y="730" type="line"/>
      <point x="355" y="748"/>
      <point x="294" y="747"/>
      <point x="224" y="716" type="curve"/>
    </contour>
    <contour>
      <point x="97" y="739" type="curve"/>
      <point x="85" y="712"/>
      <point x="87" y="686"/>
      <point x="113" y="652" type="curve"/>
      <point x="298" y="675" type="line"/>
      <point x="479" y="655" type="line"/>
      <point x="505" y="701"/>
      <point x="499" y="725"/>
      <point x="487" y="744" type="curve"/>
      <point x="329" y="756"/>
      <point x="251" y="751"/>
    </contour>
    <contour>
      <point x="672" y="439" type="curve"/>
      <point x="700" y="410"/>
      <point x="741" y="402"/>
      <point x="779" y="422" type="curve"/>
      <point x="900" y="630" type="line"/>
      <point x="877" y="649" type="line"/>
      <point x="861" y="569" type="line"/>
      <point x="851" y="505"/>
      <point x="835" y="435"/>
      <point x="803" y="343" type="curve"/>
      <point x="817" y="312"/>
      <point x="931" y="298"/>
      <point x="968" y="329" type="curve"/>
      <point x="979" y="437"/>
      <point x="985" y="526"/>
      <point x="993" y="580" type="curve"/>
      <point x="1044" y="743" type="line"/>
      <point x="1027" y="759"/>
      <point x="1003" y="765"/>
      <point x="977" y="765" type="curve" smooth="yes"/>
      <point x="953" y="765"/>
      <point x="911" y="759"/>
      <point x="888" y="751" type="curve"/>
      <point x="818" y="608" type="line"/>
      <point x="722" y="476" type="line"/>
      <point x="768" y="484" type="line"/>
      <point x="733" y="557" type="line"/>
      <point x="708" y="638"/>
      <point x="694" y="695"/>
      <point x="688" y="743" type="curve"/>
      <point x="660" y="759"/>
      <point x="636" y="766"/>
      <point x="613" y="766" type="curve" smooth="yes"/>
      <point x="582" y="766"/>
      <point x="554" y="754"/>
      <point x="530" y="739" type="curve"/>
      <point x="524" y="650" type="line"/>
      <point x="513" y="539"/>
      <point x="488" y="436"/>
      <point x="453" y="343" type="curve"/>
      <point x="468" y="312"/>
      <point x="580" y="298"/>
      <point x="616" y="329" type="curve"/>
      <point x="626" y="437"/>
      <point x="633" y="526"/>
      <point x="641" y="580" type="curve"/>
      <point x="653" y="688" type="line"/>
      <point x="617" y="678" type="line"/>
      <point x="625" y="605"/>
      <point x="638" y="536"/>
    </contour>
  </outline>
</glyph>
<glyph name="estimated" format="1">
  <advance width="664"/>
  <unicode hex="212E"/>
  <outline>
    <contour>
      <point x="617" y="124" type="curve"/>
      <point x="564" y="185" type="line"/>
      <point x="503" y="123"/>
      <point x="435" y="87"/>
      <point x="350" y="87" type="curve" smooth="yes"/>
      <point x="295" y="87"/>
      <point x="251" y="103"/>
      <point x="210" y="133" type="curve"/>
      <point x="210" y="289" type="line"/>
      <point x="642" y="289" type="line"/>
      <point x="642" y="345" type="line" smooth="yes"/>
      <point x="642" y="496"/>
      <point x="535" y="637"/>
      <point x="342" y="637" type="curve" smooth="yes"/>
      <point x="149" y="637"/>
      <point x="42" y="490"/>
      <point x="42" y="304" type="curve" smooth="yes"/>
      <point x="42" y="110"/>
      <point x="174" y="0"/>
      <point x="350" y="0" type="curve" smooth="yes"/>
      <point x="454" y="0"/>
      <point x="543" y="45"/>
    </contour>
    <contour>
      <point x="210" y="367" type="line"/>
      <point x="210" y="507" type="line"/>
      <point x="243" y="536"/>
      <point x="286" y="552"/>
      <point x="342" y="552" type="curve" smooth="yes"/>
      <point x="394" y="552"/>
      <point x="440" y="540"/>
      <point x="473" y="515" type="curve"/>
      <point x="473" y="367" type="line"/>
    </contour>
  </outline>
</glyph>
<glyph name="product" format="1">
  <advance width="781"/>
  <unicode hex="220F"/>
  <outline>
    <contour>
      <point x="692" y="549" type="curve"/>
      <point x="746" y="700" type="line"/>
      <point x="792" y="697" type="line"/>
      <point x="837" y="753"/>
      <point x="850" y="801"/>
      <point x="812" y="850" type="curve"/>
      <point x="637" y="816" type="line"/>
      <point x="170" y="851" type="line"/>
      <point x="113" y="828"/>
      <point x="100" y="772"/>
      <point x="142" y="697" type="curve"/>
      <point x="209" y="712" type="line"/>
      <point x="183" y="500" type="line"/>
      <point x="142" y="369"/>
      <point x="61" y="194"/>
      <point x="-12" y="68" type="curve"/>
      <point x="40" y="14"/>
      <point x="109" y="-11"/>
      <point x="221" y="5" type="curve"/>
      <point x="295" y="223"/>
      <point x="381" y="594"/>
      <point x="408" y="712" type="curve"/>
      <point x="556" y="700" type="line"/>
      <point x="521" y="596"/>
      <point x="484" y="316"/>
      <point x="484" y="7" type="curve"/>
      <point x="612" y="-11"/>
      <point x="687" y="-2"/>
      <point x="725" y="44" type="curve"/>
      <point x="697" y="225"/>
      <point x="680" y="330"/>
    </contour>
  </outline>
</glyph>
<glyph name="summation" format="1">
  <advance width="900"/>
  <unicode hex="2211"/>
  <outline>
    <contour>
      <point x="744" y="857" type="curve"/>
      <point x="803" y="833"/>
      <point x="834" y="814"/>
      <point x="853" y="758" type="curve"/>
      <point x="856" y="693"/>
      <point x="834" y="614"/>
      <point x="791" y="573" type="curve"/>
      <point x="716" y="566"/>
      <point x="660" y="588"/>
      <point x="644" y="636" type="curve"/>
      <point x="673" y="673"/>
      <point x="687" y="722"/>
      <point x="696" y="744" type="curve"/>
      <point x="563" y="754"/>
      <point x="411" y="747"/>
      <point x="245" y="744" type="curve"/>
      <point x="256" y="773" type="line"/>
      <point x="543" y="530" type="line"/>
      <point x="585" y="466"/>
      <point x="562" y="404"/>
      <point x="511" y="343" type="curve"/>
      <point x="381" y="236" type="line"/>
      <point x="221" y="104" type="line"/>
      <point x="181" y="134" type="line"/>
      <point x="397" y="121"/>
      <point x="504" y="130"/>
      <point x="622" y="141" type="curve"/>
      <point x="648" y="183"/>
      <point x="657" y="222"/>
      <point x="656" y="268" type="curve"/>
      <point x="731" y="278"/>
      <point x="805" y="277"/>
      <point x="833" y="181" type="curve"/>
      <point x="822" y="120"/>
      <point x="766" y="61"/>
      <point x="684" y="10" type="curve"/>
      <point x="507" y="-2"/>
      <point x="344" y="-3"/>
      <point x="198" y="10" type="curve"/>
      <point x="113" y="50"/>
      <point x="73" y="121"/>
      <point x="123" y="194" type="curve"/>
      <point x="316" y="330" type="line"/>
      <point x="423" y="432" type="line"/>
      <point x="285" y="539" type="line"/>
      <point x="137" y="655" type="line"/>
      <point x="131" y="736"/>
      <point x="184" y="832"/>
      <point x="244" y="844" type="curve"/>
      <point x="401" y="850"/>
      <point x="576" y="861"/>
    </contour>
  </outline>
</glyph>
<glyph name="divisionslash" format="1">
  <advance width="429"/>
  <unicode hex="2215"/>
  <outline>
    <contour>
      <point x="244" y="405" type="line"/>
      <point x="-33" y="-51" type="line"/>
      <point x="-24" y="-98"/>
      <point x="4" y="-117"/>
      <point x="87" y="-106" type="curve"/>
      <point x="516" y="854" type="line"/>
      <point x="490" y="897"/>
      <point x="464" y="908"/>
      <point x="382" y="886" type="curve"/>
    </contour>
  </outline>
</glyph>
<glyph name="radical" format="1">
  <advance width="573"/>
  <unicode hex="221A"/>
  <outline>
    <contour>
      <point x="423" y="476" type="line"/>
      <point x="179" y="-164" type="line"/>
      <point x="213" y="-192" type="line"/>
      <point x="172" y="-78"/>
      <point x="130" y="35"/>
      <point x="89" y="149" type="curve"/>
      <point x="56" y="169"/>
      <point x="29" y="150"/>
      <point x="22" y="119" type="curve"/>
      <point x="48" y="18"/>
      <point x="95" y="-126"/>
      <point x="129" y="-212" type="curve"/>
      <point x="156" y="-255"/>
      <point x="229" y="-258"/>
      <point x="267" y="-239" type="curve"/>
      <point x="652" y="951" type="line"/>
      <point x="627" y="995"/>
      <point x="601" y="1005"/>
      <point x="518" y="984" type="curve"/>
    </contour>
  </outline>
</glyph>
<glyph name="integral" format="1">
  <advance width="499"/>
  <unicode hex="222B"/>
  <outline>
    <contour>
      <point x="370" y="815" type="curve"/>
      <point x="374" y="824"/>
      <point x="386" y="833"/>
      <point x="395" y="833" type="curve"/>
      <point x="424" y="812"/>
      <point x="436" y="791"/>
      <point x="436" y="732" type="curve"/>
      <point x="460" y="712"/>
      <point x="512" y="721"/>
      <point x="542" y="746" type="curve"/>
      <point x="541" y="819"/>
      <point x="482" y="901"/>
      <point x="412" y="913" type="curve"/>
      <point x="338" y="903"/>
      <point x="307" y="869"/>
      <point x="277" y="836" type="curve"/>
      <point x="277" y="570" type="line"/>
      <point x="254" y="377"/>
      <point x="217" y="113"/>
      <point x="162" y="-47" type="curve"/>
      <point x="152" y="-52" type="line"/>
      <point x="125" y="-18"/>
      <point x="110" y="11"/>
      <point x="98" y="70" type="curve"/>
      <point x="51" y="97"/>
      <point x="18" y="55"/>
      <point x="6" y="28" type="curve"/>
      <point x="23" y="-43"/>
      <point x="86" y="-103"/>
      <point x="126" y="-134" type="curve"/>
      <point x="173" y="-138"/>
      <point x="233" y="-115"/>
      <point x="252" y="-92" type="curve"/>
      <point x="318" y="204"/>
      <point x="355" y="557"/>
    </contour>
  </outline>
</glyph>
<glyph name="approxequal" format="1">
  <advance width="682"/>
  <unicode hex="2248"/>
  <outline>
    <contour>
      <point x="252" y="500" type="curve" smooth="yes"/>
      <point x="205" y="500"/>
      <point x="117" y="459"/>
      <point x="80" y="420" type="curve"/>
      <point x="71" y="379"/>
      <point x="113" y="355"/>
      <point x="159" y="347" type="curve"/>
      <point x="192" y="379"/>
      <point x="233" y="426"/>
      <point x="258" y="426" type="curve" smooth="yes"/>
      <point x="302" y="426"/>
      <point x="428" y="341"/>
      <point x="504" y="341" type="curve" smooth="yes"/>
      <point x="577" y="341"/>
      <point x="656" y="408"/>
      <point x="679" y="446" type="curve"/>
      <point x="675" y="481"/>
      <point x="639" y="506"/>
      <point x="588" y="500" type="curve"/>
      <point x="522" y="416" type="line"/>
      <point x="516" y="416" type="line"/>
      <point x="461" y="432"/>
      <point x="335" y="500"/>
    </contour>
    <contour>
      <point x="231" y="310" type="curve" smooth="yes"/>
      <point x="184" y="310"/>
      <point x="96" y="269"/>
      <point x="59" y="230" type="curve"/>
      <point x="50" y="189"/>
      <point x="92" y="165"/>
      <point x="138" y="157" type="curve"/>
      <point x="171" y="189"/>
      <point x="212" y="236"/>
      <point x="237" y="236" type="curve" smooth="yes"/>
      <point x="281" y="236"/>
      <point x="407" y="151"/>
      <point x="483" y="151" type="curve" smooth="yes"/>
      <point x="556" y="151"/>
      <point x="635" y="218"/>
      <point x="658" y="256" type="curve"/>
      <point x="654" y="291"/>
      <point x="618" y="316"/>
      <point x="567" y="310" type="curve"/>
      <point x="501" y="226" type="line"/>
      <point x="495" y="226" type="line"/>
      <point x="440" y="242"/>
      <point x="314" y="310"/>
    </contour>
  </outline>
</glyph>
<glyph name="greaterequal" format="1">
  <advance width="649"/>
  <unicode hex="2265"/>
  <outline>
    <contour>
      <point x="99" y="329" type="line"/>
      <point x="71" y="296"/>
      <point x="82" y="256"/>
      <point x="113" y="226" type="curve"/>
      <point x="381" y="307" type="line"/>
      <point x="586" y="346" type="line"/>
      <point x="619" y="381"/>
      <point x="623" y="438"/>
      <point x="599" y="451" type="curve"/>
      <point x="151" y="609" type="line"/>
      <point x="122" y="597"/>
      <point x="92" y="564"/>
      <point x="106" y="507" type="curve"/>
      <point x="215" y="487" type="line"/>
      <point x="496" y="406" type="line"/>
    </contour>
    <contour>
      <point x="574" y="180" type="line"/>
      <point x="590" y="218"/>
      <point x="585" y="257"/>
      <point x="554" y="271" type="curve"/>
      <point x="281" y="179" type="line"/>
      <point x="88" y="150" type="line"/>
      <point x="66" y="124"/>
      <point x="65" y="87"/>
      <point x="101" y="55" type="curve"/>
    </contour>
  </outline>
</glyph>
<glyph name="lozenge" format="1">
  <advance width="757"/>
  <unicode hex="25CA"/>
  <outline>
    <contour>
      <point x="423" y="571" type="line"/>
      <point x="43" y="387" type="line"/>
      <point x="29" y="364"/>
      <point x="26" y="342"/>
      <point x="34" y="316" type="curve"/>
      <point x="356" y="131" type="line"/>
      <point x="735" y="314" type="line"/>
      <point x="748" y="337"/>
      <point x="752" y="359"/>
      <point x="744" y="384" type="curve"/>
    </contour>
    <contour>
      <point x="362" y="238" type="line"/>
      <point x="180" y="344" type="line"/>
      <point x="429" y="462" type="line"/>
      <point x="598" y="356" type="line"/>
    </contour>
  </outline>
</glyph>
<glyph name="Delta.math" format="1">
  <advance width="772"/>
  <outline>
    <contour>
      <point x="151" y="140" type="line"/>
      <point x="407" y="644" type="line"/>
      <point x="521" y="81" type="line"/>
      <point x="579" y="163" type="line"/>
      <point x="257" y="129" type="line"/>
    </contour>
    <contour>
      <point x="726" y="131" type="curve"/>
      <point x="577" y="707" type="line"/>
      <point x="499" y="751"/>
      <point x="421" y="773"/>
      <point x="313" y="730" type="curve"/>
      <point x="10" y="145" type="line"/>
      <point x="-12" y="100"/>
      <point x="3" y="39"/>
      <point x="76" y="-1" type="curve"/>
      <point x="622" y="2" type="line"/>
      <point x="681" y="19"/>
      <point x="709" y="66"/>
    </contour>
  </outline>
</glyph>
<glyph name="Omega.math" format="1">
  <advance width="1018"/>
  <outline>
    <contour>
      <point x="450" y="114" type="curve"/>
      <point x="401" y="191"/>
      <point x="330" y="263"/>
      <point x="346" y="372" type="curve" smooth="yes"/>
      <point x="361" y="471"/>
      <point x="427" y="562"/>
      <point x="596" y="649" type="curve"/>
      <point x="686" y="597"/>
      <point x="722" y="500"/>
      <point x="728" y="398" type="curve"/>
      <point x="686" y="300"/>
      <point x="654" y="242"/>
      <point x="546" y="140" type="curve"/>
      <point x="531" y="94"/>
      <point x="542" y="54"/>
      <point x="595" y="-2" type="curve"/>
      <point x="695" y="-17"/>
      <point x="805" y="-16"/>
      <point x="917" y="25" type="curve"/>
      <point x="965" y="115"/>
      <point x="963" y="185"/>
      <point x="904" y="209" type="curve"/>
      <point x="829" y="173"/>
      <point x="787" y="159"/>
      <point x="721" y="145" type="curve"/>
      <point x="727" y="127" type="line"/>
      <point x="776" y="170"/>
      <point x="886" y="286"/>
      <point x="905" y="417" type="curve" smooth="yes"/>
      <point x="932" y="595"/>
      <point x="754" y="768"/>
      <point x="638" y="768" type="curve" smooth="yes"/>
      <point x="416" y="768"/>
      <point x="161" y="563"/>
      <point x="133" y="384" type="curve" smooth="yes"/>
      <point x="122" y="301"/>
      <point x="198" y="165"/>
      <point x="254" y="108" type="curve"/>
      <point x="299" y="132" type="line"/>
      <point x="239" y="132"/>
      <point x="156" y="160"/>
      <point x="94" y="198" type="curve"/>
      <point x="27" y="174"/>
      <point x="3" y="104"/>
      <point x="25" y="14" type="curve"/>
      <point x="111" y="-24"/>
      <point x="226" y="-23"/>
      <point x="383" y="2" type="curve"/>
      <point x="411" y="18"/>
      <point x="445" y="75"/>
    </contour>
  </outline>
</glyph>
<glyph name="dvAnusvara.amI" format="1">
  <advance width="0"/>
  <outline>
    <contour>
      <point x="-279" y="650" type="move" name="_abvm.i"/>
    </contour>
    <contour>
      <point x="-81" y="680" type="curve" smooth="yes"/>
      <point x="-22" y="680"/>
      <point x="26" y="729"/>
      <point x="26" y="787" type="curve" smooth="yes"/>
      <point x="26" y="846"/>
      <point x="-22" y="894"/>
      <point x="-81" y="894" type="curve" smooth="yes"/>
      <point x="-143" y="894"/>
      <point x="-192" y="846"/>
      <point x="-192" y="787" type="curve" smooth="yes"/>
      <point x="-192" y="729"/>
      <point x="-143" y="680"/>
    </contour>
  </outline>
</glyph>
<glyph name="dvAnusvara" format="1">
  <advance width="0"/>
  <outline>
    <contour>
      <point x="-227" y="628" type="move" name="_abvm"/>
    </contour>
    <contour>
      <point x="-81" y="720" type="curve" smooth="yes"/>
      <point x="-22" y="720"/>
      <point x="26" y="769"/>
      <point x="26" y="827" type="curve" smooth="yes"/>
      <point x="26" y="886"/>
      <point x="-22" y="934"/>
      <point x="-81" y="934" type="curve" smooth="yes"/>
      <point x="-143" y="934"/>
      <point x="-192" y="886"/>
      <point x="-192" y="827" type="curve" smooth="yes"/>
      <point x="-192" y="769"/>
      <point x="-143" y="720"/>
    </contour>
  </outline>
</glyph>
<glyph name="dvBH_LA" format="1">
  <advance width="1498"/>
  <outline>
    <contour>
      <point x="282" y="179" type="curve"/>
      <point x="270" y="173" type="line"/>
      <point x="226" y="198"/>
      <point x="200" y="214"/>
      <point x="181" y="258" type="curve"/>
      <point x="165" y="235" type="line"/>
      <point x="315" y="332"/>
      <point x="519" y="305"/>
      <point x="671" y="278" type="curve"/>
      <point x="704" y="328" type="line"/>
      <point x="551" y="378"/>
      <point x="327" y="410"/>
      <point x="114" y="320" type="curve"/>
      <point x="72" y="305"/>
      <point x="54" y="253"/>
      <point x="57" y="193" type="curve"/>
      <point x="98" y="125"/>
      <point x="152" y="88"/>
      <point x="235" y="65" type="curve"/>
      <point x="301" y="62"/>
      <point x="396" y="92"/>
      <point x="424" y="138" type="curve"/>
      <point x="480" y="256"/>
      <point x="555" y="579"/>
      <point x="532" y="684" type="curve"/>
      <point x="503" y="736"/>
      <point x="455" y="761"/>
      <point x="371" y="761" type="curve"/>
      <point x="317" y="709"/>
      <point x="193" y="646"/>
      <point x="117" y="617" type="curve"/>
      <point x="89" y="600"/>
      <point x="78" y="560"/>
      <point x="73" y="523" type="curve" smooth="yes"/>
      <point x="100" y="471"/>
      <point x="149" y="426"/>
      <point x="230" y="395" type="curve"/>
      <point x="393" y="463" type="line"/>
      <point x="369" y="509" type="line"/>
      <point x="256" y="482" type="line"/>
      <point x="241" y="487"/>
      <point x="219" y="519"/>
      <point x="213" y="534" type="curve"/>
      <point x="258" y="558"/>
      <point x="311" y="591"/>
      <point x="344" y="611" type="curve"/>
      <point x="358" y="605" type="line"/>
      <point x="358" y="571"/>
      <point x="354" y="522"/>
      <point x="347" y="476" type="curve"/>
      <point x="367" y="442" type="line"/>
      <point x="335" y="409" type="line"/>
      <point x="333" y="355"/>
      <point x="301" y="214"/>
    </contour>
    <contour>
      <point x="1501" y="597" type="line"/>
      <point x="1471" y="651"/>
      <point x="1413" y="673"/>
      <point x="1265" y="658" type="curve"/>
      <point x="1200" y="358" type="line"/>
      <point x="1221" y="332" type="line"/>
      <point x="1180" y="266" type="line"/>
      <point x="1136" y="64" type="line"/>
      <point x="1226" y="-5"/>
      <point x="1360" y="-17"/>
      <point x="1399" y="25" type="curve"/>
      <point x="1403" y="419" type="line"/>
    </contour>
    <contour>
      <point x="1626" y="565" type="line"/>
      <point x="1643" y="577"/>
      <point x="1651" y="595"/>
      <point x="1655" y="612" type="curve"/>
      <point x="1643" y="627" type="line"/>
      <point x="631" y="627" type="line"/>
      <point x="614" y="615"/>
      <point x="602" y="597"/>
      <point x="594" y="584" type="curve"/>
      <point x="614" y="565" type="line"/>
    </contour>
    <contour>
      <point x="1028" y="316" type="line"/>
      <point x="1051" y="336"/>
      <point x="1075" y="357"/>
      <point x="1098" y="377" type="curve"/>
      <point x="1092" y="440"/>
      <point x="1061" y="482"/>
      <point x="989" y="501" type="curve"/>
      <point x="955" y="509"/>
      <point x="912" y="513"/>
      <point x="858" y="510" type="curve"/>
      <point x="733" y="460"/>
      <point x="608" y="356"/>
      <point x="608" y="259" type="curve" smooth="yes"/>
      <point x="608" y="183"/>
      <point x="720" y="51"/>
      <point x="828" y="0" type="curve"/>
      <point x="952" y="23"/>
      <point x="991" y="109"/>
      <point x="958" y="158" type="curve"/>
      <point x="869" y="192"/>
      <point x="834" y="226"/>
      <point x="808" y="278" type="curve"/>
      <point x="812" y="325"/>
      <point x="867" y="392"/>
      <point x="892" y="392" type="curve"/>
      <point x="922" y="392"/>
      <point x="943" y="370"/>
      <point x="950" y="347" type="curve"/>
      <point x="929" y="337"/>
      <point x="909" y="327"/>
      <point x="888" y="317" type="curve"/>
      <point x="877" y="265"/>
      <point x="925" y="206"/>
      <point x="1040" y="186" type="curve"/>
      <point x="1127" y="257"/>
      <point x="1206" y="328"/>
      <point x="1269" y="397" type="curve"/>
      <point x="1222" y="458" type="line"/>
      <point x="1166" y="401"/>
      <point x="1099" y="347"/>
      <point x="1038" y="309" type="curve"/>
    </contour>
  </outline>
</glyph>
<glyph name="dvBH_NA" format="1">
  <advance width="1431"/>
  <outline>
    <contour>
      <point x="282" y="179" type="curve"/>
      <point x="270" y="173" type="line"/>
      <point x="226" y="198"/>
      <point x="200" y="214"/>
      <point x="181" y="258" type="curve"/>
      <point x="165" y="235" type="line"/>
      <point x="315" y="332"/>
      <point x="519" y="305"/>
      <point x="671" y="278" type="curve"/>
      <point x="704" y="328" type="line"/>
      <point x="551" y="378"/>
      <point x="327" y="410"/>
      <point x="114" y="320" type="curve"/>
      <point x="72" y="305"/>
      <point x="54" y="253"/>
      <point x="57" y="193" type="curve"/>
      <point x="98" y="125"/>
      <point x="152" y="88"/>
      <point x="235" y="65" type="curve"/>
      <point x="301" y="62"/>
      <point x="396" y="92"/>
      <point x="424" y="138" type="curve"/>
      <point x="480" y="256"/>
      <point x="555" y="579"/>
      <point x="532" y="684" type="curve"/>
      <point x="503" y="736"/>
      <point x="455" y="761"/>
      <point x="371" y="761" type="curve"/>
      <point x="317" y="709"/>
      <point x="193" y="646"/>
      <point x="117" y="617" type="curve"/>
      <point x="89" y="600"/>
      <point x="78" y="560"/>
      <point x="73" y="523" type="curve" smooth="yes"/>
      <point x="100" y="471"/>
      <point x="149" y="426"/>
      <point x="230" y="395" type="curve"/>
      <point x="393" y="463" type="line"/>
      <point x="369" y="509" type="line"/>
      <point x="256" y="482" type="line"/>
      <point x="241" y="487"/>
      <point x="219" y="519"/>
      <point x="213" y="534" type="curve"/>
      <point x="258" y="558"/>
      <point x="311" y="591"/>
      <point x="344" y="611" type="curve"/>
      <point x="358" y="605" type="line"/>
      <point x="358" y="571"/>
      <point x="354" y="522"/>
      <point x="347" y="476" type="curve"/>
      <point x="367" y="442" type="line"/>
      <point x="335" y="409" type="line"/>
      <point x="333" y="355"/>
      <point x="301" y="214"/>
    </contour>
    <contour>
      <point x="1559" y="565" type="line"/>
      <point x="1576" y="577"/>
      <point x="1584" y="595"/>
      <point x="1588" y="612" type="curve"/>
      <point x="1576" y="627" type="line"/>
      <point x="625" y="627" type="line"/>
      <point x="608" y="615"/>
      <point x="596" y="597"/>
      <point x="588" y="584" type="curve"/>
      <point x="608" y="565" type="line"/>
    </contour>
    <contour>
      <point x="1402" y="453" type="line"/>
      <point x="1372" y="507"/>
      <point x="1314" y="529"/>
      <point x="1166" y="514" type="curve"/>
      <point x="1132" y="421" type="line"/>
      <point x="1143" y="414" type="line"/>
      <point x="1064" y="64" type="line"/>
      <point x="1154" y="-5"/>
      <point x="1288" y="-17"/>
      <point x="1327" y="25" type="curve"/>
      <point x="1315" y="337" type="line"/>
    </contour>
    <contour>
      <point x="816" y="329" type="line"/>
      <point x="845" y="284"/>
      <point x="855" y="229"/>
      <point x="840" y="183" type="curve"/>
      <point x="828" y="177" type="line"/>
      <point x="784" y="202"/>
      <point x="769" y="225"/>
      <point x="750" y="269" type="curve"/>
      <point x="734" y="246" type="line"/>
      <point x="853" y="304"/>
      <point x="1037" y="374"/>
      <point x="1190" y="448" type="curve"/>
      <point x="1166" y="514" type="line"/>
      <point x="1036" y="450"/>
      <point x="813" y="359"/>
      <point x="688" y="324" type="curve"/>
      <point x="650" y="300"/>
      <point x="632" y="247"/>
      <point x="643" y="181" type="curve"/>
      <point x="683" y="127"/>
      <point x="750" y="92"/>
      <point x="834" y="72" type="curve"/>
      <point x="898" y="69"/>
      <point x="989" y="99"/>
      <point x="1007" y="145" type="curve"/>
      <point x="1031" y="216"/>
      <point x="1036" y="312"/>
      <point x="1009" y="392" type="curve"/>
    </contour>
  </outline>
</glyph>
<glyph name="dvBH_RA" format="1">
  <advance width="912"/>
  <outline>
    <contour>
      <point x="1040" y="565" type="line"/>
      <point x="1057" y="577"/>
      <point x="1065" y="595"/>
      <point x="1069" y="612" type="curve"/>
      <point x="1057" y="627" type="line"/>
      <point x="626" y="627" type="line"/>
      <point x="609" y="615"/>
      <point x="597" y="597"/>
      <point x="589" y="584" type="curve"/>
      <point x="609" y="565" type="line"/>
    </contour>
    <contour>
      <point x="335" y="409" type="line"/>
      <point x="323" y="334"/>
      <point x="316" y="301"/>
      <point x="284" y="220" type="curve"/>
      <point x="272" y="214" type="line"/>
      <point x="233" y="231"/>
      <point x="216" y="248"/>
      <point x="200" y="278" type="curve"/>
      <point x="175" y="255" type="line"/>
      <point x="342" y="305"/>
      <point x="508" y="367"/>
      <point x="670" y="448" type="curve"/>
      <point x="646" y="514" type="line"/>
      <point x="514" y="446"/>
      <point x="273" y="360"/>
      <point x="129" y="332" type="curve"/>
      <point x="83" y="307"/>
      <point x="74" y="264"/>
      <point x="75" y="204" type="curve"/>
      <point x="104" y="154"/>
      <point x="155" y="121"/>
      <point x="226" y="102" type="curve"/>
      <point x="292" y="93"/>
      <point x="392" y="113"/>
      <point x="434" y="161" type="curve"/>
      <point x="487" y="280"/>
      <point x="543" y="543"/>
      <point x="532" y="684" type="curve"/>
      <point x="503" y="736"/>
      <point x="455" y="761"/>
      <point x="371" y="761" type="curve"/>
      <point x="317" y="709"/>
      <point x="193" y="646"/>
      <point x="117" y="617" type="curve"/>
      <point x="89" y="600"/>
      <point x="78" y="560"/>
      <point x="73" y="523" type="curve" smooth="yes"/>
      <point x="100" y="471"/>
      <point x="149" y="426"/>
      <point x="230" y="395" type="curve"/>
      <point x="393" y="463" type="line"/>
      <point x="369" y="509" type="line"/>
      <point x="256" y="482" type="line"/>
      <point x="241" y="487"/>
      <point x="219" y="519"/>
      <point x="213" y="534" type="curve"/>
      <point x="258" y="558"/>
      <point x="311" y="591"/>
      <point x="344" y="611" type="curve"/>
      <point x="358" y="605" type="line"/>
      <point x="358" y="571"/>
      <point x="354" y="522"/>
      <point x="347" y="476" type="curve"/>
      <point x="367" y="442" type="line"/>
    </contour>
    <contour>
      <point x="623" y="414" type="line"/>
      <point x="579" y="220" type="line"/>
      <point x="500" y="159"/>
      <point x="343" y="62"/>
      <point x="221" y="28" type="curve"/>
      <point x="198" y="-28"/>
      <point x="230" y="-77"/>
      <point x="307" y="-100" type="curve"/>
      <point x="404" y="-40"/>
      <point x="532" y="57"/>
      <point x="589" y="120" type="curve"/>
      <point x="601" y="111" type="line"/>
      <point x="567" y="48" type="line"/>
      <point x="649" y="-5"/>
      <point x="767" y="-15"/>
      <point x="807" y="25" type="curve"/>
      <point x="795" y="337" type="line"/>
      <point x="882" y="453" type="line"/>
      <point x="852" y="507"/>
      <point x="794" y="529"/>
      <point x="646" y="514" type="curve"/>
      <point x="612" y="421" type="line"/>
    </contour>
  </outline>
</glyph>
<glyph name="dvB_BA" format="1">
  <advance width="1134"/>
  <outline>
    <contour>
      <point x="634" y="565" type="line"/>
      <point x="651" y="577"/>
      <point x="659" y="595"/>
      <point x="663" y="612" type="curve"/>
      <point x="651" y="627" type="line"/>
      <point x="3" y="627" type="line"/>
      <point x="-14" y="615"/>
      <point x="-26" y="597"/>
      <point x="-34" y="584" type="curve"/>
      <point x="-14" y="565" type="line"/>
    </contour>
    <contour>
      <point x="419" y="227" type="curve"/>
      <point x="456" y="265" type="line"/>
      <point x="393" y="312"/>
      <point x="336" y="369"/>
      <point x="299" y="410" type="curve"/>
      <point x="271" y="347" type="line"/>
      <point x="301" y="311"/>
      <point x="384" y="247"/>
    </contour>
    <contour>
      <point x="464" y="321" type="line"/>
      <point x="425" y="286"/>
      <point x="356" y="235"/>
      <point x="293" y="190" type="curve"/>
      <point x="267" y="206"/>
      <point x="252" y="231"/>
      <point x="252" y="268" type="curve"/>
      <point x="252" y="329"/>
      <point x="317" y="395"/>
      <point x="375" y="422" type="curve" smooth="yes"/>
      <point x="406" y="401"/>
      <point x="442" y="366"/>
      <point x="467" y="337" type="curve"/>
      <point x="520" y="377" type="line"/>
      <point x="491" y="421"/>
      <point x="415" y="509"/>
      <point x="355" y="530" type="curve" smooth="yes"/>
      <point x="199" y="530"/>
      <point x="34" y="396"/>
      <point x="34" y="259" type="curve"/>
      <point x="34" y="140"/>
      <point x="147" y="75"/>
      <point x="291" y="75" type="curve"/>
      <point x="358" y="140"/>
      <point x="466" y="241"/>
      <point x="504" y="279" type="curve"/>
    </contour>
    <contour>
      <point x="670" y="190" type="curve"/>
      <point x="644" y="206"/>
      <point x="629" y="231"/>
      <point x="629" y="268" type="curve" smooth="yes"/>
      <point x="629" y="329"/>
      <point x="694" y="395"/>
      <point x="752" y="422" type="curve" smooth="yes"/>
      <point x="783" y="401"/>
      <point x="819" y="366"/>
      <point x="844" y="337" type="curve"/>
      <point x="841" y="321" type="line"/>
      <point x="802" y="286"/>
      <point x="733" y="235"/>
    </contour>
    <contour>
      <point x="1262" y="565" type="line"/>
      <point x="1279" y="577"/>
      <point x="1287" y="595"/>
      <point x="1291" y="612" type="curve"/>
      <point x="1279" y="627" type="line"/>
      <point x="380" y="627" type="line"/>
      <point x="363" y="615"/>
      <point x="351" y="597"/>
      <point x="343" y="584" type="curve"/>
      <point x="363" y="565" type="line"/>
    </contour>
    <contour>
      <point x="862" y="424" type="line"/>
      <point x="826" y="460"/>
      <point x="788" y="504"/>
      <point x="732" y="530" type="curve" smooth="yes"/>
      <point x="576" y="530"/>
      <point x="411" y="396"/>
      <point x="411" y="259" type="curve" smooth="yes"/>
      <point x="411" y="140"/>
      <point x="524" y="75"/>
      <point x="668" y="75" type="curve"/>
      <point x="735" y="140"/>
      <point x="801" y="201"/>
      <point x="839" y="239" type="curve"/>
      <point x="849" y="226" type="line"/>
      <point x="792" y="150" type="line"/>
      <point x="771" y="64" type="line"/>
      <point x="861" y="-5"/>
      <point x="995" y="-17"/>
      <point x="1034" y="25" type="curve"/>
      <point x="1039" y="419" type="line"/>
      <point x="1136" y="597" type="line"/>
      <point x="1106" y="651"/>
      <point x="1048" y="673"/>
      <point x="900" y="658" type="curve"/>
      <point x="869" y="428" type="line"/>
    </contour>
    <contour>
      <point x="796" y="227" type="curve"/>
      <point x="833" y="265" type="line"/>
      <point x="770" y="312"/>
      <point x="713" y="369"/>
      <point x="676" y="410" type="curve"/>
      <point x="648" y="347" type="line"/>
      <point x="678" y="311"/>
      <point x="761" y="247"/>
    </contour>
  </outline>
</glyph>
<glyph name="dvB_DA" format="1">
  <advance width="1036"/>
  <outline>
    <contour>
      <point x="740" y="-121" type="move" name="blwm"/>
    </contour>
    <contour>
      <point x="639" y="628" type="move" name="abvm"/>
    </contour>
    <contour>
      <point x="419" y="227" type="curve"/>
      <point x="456" y="265" type="line"/>
      <point x="393" y="312"/>
      <point x="336" y="369"/>
      <point x="299" y="410" type="curve"/>
      <point x="271" y="347" type="line"/>
      <point x="301" y="311"/>
      <point x="384" y="247"/>
    </contour>
    <contour>
      <point x="464" y="321" type="line"/>
      <point x="425" y="286"/>
      <point x="356" y="235"/>
      <point x="293" y="190" type="curve"/>
      <point x="267" y="206"/>
      <point x="252" y="231"/>
      <point x="252" y="268" type="curve" smooth="yes"/>
      <point x="252" y="329"/>
      <point x="317" y="395"/>
      <point x="375" y="422" type="curve" smooth="yes"/>
      <point x="406" y="401"/>
      <point x="442" y="366"/>
      <point x="467" y="337" type="curve"/>
      <point x="520" y="377" type="line"/>
      <point x="491" y="421"/>
      <point x="415" y="509"/>
      <point x="355" y="530" type="curve" smooth="yes"/>
      <point x="199" y="530"/>
      <point x="34" y="396"/>
      <point x="34" y="259" type="curve" smooth="yes"/>
      <point x="34" y="140"/>
      <point x="147" y="75"/>
      <point x="291" y="75" type="curve"/>
      <point x="358" y="140"/>
      <point x="466" y="241"/>
      <point x="504" y="279" type="curve"/>
    </contour>
    <contour>
      <point x="634" y="565" type="line"/>
      <point x="651" y="577"/>
      <point x="659" y="595"/>
      <point x="663" y="612" type="curve"/>
      <point x="651" y="627" type="line"/>
      <point x="3" y="627" type="line"/>
      <point x="-14" y="615"/>
      <point x="-26" y="597"/>
      <point x="-34" y="584" type="curve"/>
      <point x="-14" y="565" type="line"/>
    </contour>
    <contour>
      <point x="1163" y="565" type="line"/>
      <point x="1180" y="577"/>
      <point x="1188" y="595"/>
      <point x="1192" y="612" type="curve"/>
      <point x="1180" y="627" type="line"/>
      <point x="405" y="627" type="line"/>
      <point x="388" y="615"/>
      <point x="376" y="597"/>
      <point x="368" y="584" type="curve"/>
      <point x="388" y="565" type="line"/>
    </contour>
    <contour>
      <point x="712" y="618" type="curve"/>
      <point x="663" y="580" type="line"/>
      <point x="713" y="561"/>
      <point x="758" y="527"/>
      <point x="781" y="505" type="curve"/>
      <point x="776" y="495" type="line"/>
      <point x="644" y="380"/>
      <point x="412" y="409"/>
      <point x="412" y="252" type="curve" smooth="yes"/>
      <point x="412" y="133"/>
      <point x="533" y="32"/>
      <point x="710" y="19" type="curve"/>
      <point x="751" y="70"/>
      <point x="772" y="106"/>
      <point x="812" y="145" type="curve"/>
      <point x="826" y="136" type="line"/>
      <point x="783" y="73"/>
      <point x="745" y="-8"/>
      <point x="704" y="-105" type="curve"/>
      <point x="714" y="-161"/>
      <point x="792" y="-204"/>
      <point x="903" y="-197" type="curve"/>
      <point x="928" y="-64"/>
      <point x="960" y="58"/>
      <point x="1005" y="179" type="curve"/>
      <point x="960" y="266"/>
      <point x="866" y="289"/>
      <point x="812" y="266" type="curve"/>
      <point x="766" y="223"/>
      <point x="731" y="186"/>
      <point x="667" y="124" type="curve"/>
      <point x="723" y="145" type="line"/>
      <point x="673" y="148"/>
      <point x="616" y="201"/>
      <point x="616" y="250" type="curve"/>
      <point x="711" y="287"/>
      <point x="798" y="334"/>
      <point x="850" y="366" type="curve"/>
      <point x="903" y="408"/>
      <point x="932" y="480"/>
      <point x="909" y="529" type="curve"/>
      <point x="854" y="570"/>
      <point x="791" y="604"/>
    </contour>
  </outline>
</glyph>
<glyph name="dvB_DHA" format="1">
  <advance width="1158"/>
  <outline>
    <contour>
      <point x="346" y="292" type="curve"/>
      <point x="379" y="325" type="line"/>
      <point x="316" y="366"/>
      <point x="269" y="413"/>
      <point x="232" y="461" type="curve"/>
      <point x="198" y="412" type="line"/>
      <point x="228" y="376"/>
      <point x="311" y="312"/>
    </contour>
    <contour>
      <point x="421" y="389" type="line"/>
      <point x="357" y="330"/>
      <point x="299" y="297"/>
      <point x="252" y="271" type="curve"/>
      <point x="231" y="281"/>
      <point x="217" y="307"/>
      <point x="217" y="327" type="curve" smooth="yes"/>
      <point x="217" y="370"/>
      <point x="248" y="411"/>
      <point x="302" y="438" type="curve" smooth="yes"/>
      <point x="335" y="407"/>
      <point x="366" y="382"/>
      <point x="403" y="358" type="curve"/>
      <point x="454" y="403" type="line"/>
      <point x="406" y="447"/>
      <point x="352" y="498"/>
      <point x="295" y="545" type="curve" smooth="yes"/>
      <point x="139" y="522"/>
      <point x="49" y="421"/>
      <point x="49" y="313" type="curve" smooth="yes"/>
      <point x="49" y="249"/>
      <point x="113" y="173"/>
      <point x="243" y="157" type="curve"/>
      <point x="314" y="216"/>
      <point x="395" y="285"/>
      <point x="467" y="340" type="curve"/>
    </contour>
    <contour>
      <point x="453" y="565" type="line"/>
      <point x="470" y="577"/>
      <point x="478" y="595"/>
      <point x="482" y="612" type="curve"/>
      <point x="470" y="627" type="line"/>
      <point x="3" y="627" type="line"/>
      <point x="-14" y="615"/>
      <point x="-26" y="597"/>
      <point x="-34" y="584" type="curve"/>
      <point x="-14" y="565" type="line"/>
    </contour>
    <contour>
      <point x="1161" y="597" type="line"/>
      <point x="1131" y="651"/>
      <point x="1073" y="673"/>
      <point x="925" y="658" type="curve"/>
      <point x="838" y="259" type="line"/>
      <point x="866" y="228" type="line"/>
      <point x="819" y="168" type="line"/>
      <point x="796" y="64" type="line"/>
      <point x="886" y="-5"/>
      <point x="1020" y="-17"/>
      <point x="1059" y="25" type="curve"/>
      <point x="1063" y="419" type="line"/>
    </contour>
    <contour>
      <point x="1286" y="565" type="line"/>
      <point x="1303" y="577"/>
      <point x="1311" y="595"/>
      <point x="1315" y="612" type="curve"/>
      <point x="1303" y="627" type="line"/>
      <point x="863" y="627" type="line"/>
      <point x="845" y="615"/>
      <point x="832" y="597"/>
      <point x="824" y="584" type="curve"/>
      <point x="845" y="565" type="line"/>
    </contour>
    <contour>
      <point x="923" y="316" type="curve"/>
      <point x="862" y="369" type="line"/>
      <point x="808" y="298"/>
      <point x="704" y="225"/>
      <point x="607" y="200" type="curve"/>
      <point x="597" y="215" type="line"/>
      <point x="644" y="253"/>
      <point x="680" y="280"/>
      <point x="737" y="312" type="curve"/>
      <point x="752" y="383"/>
      <point x="709" y="430"/>
      <point x="631" y="458" type="curve"/>
      <point x="601" y="440"/>
      <point x="569" y="427"/>
      <point x="523" y="412" type="curve"/>
      <point x="507" y="427"/>
      <point x="491" y="438"/>
      <point x="491" y="472" type="curve"/>
      <point x="491" y="531"/>
      <point x="566" y="614"/>
      <point x="629" y="652" type="curve"/>
      <point x="647" y="649"/>
      <point x="655" y="637"/>
      <point x="657" y="620" type="curve"/>
      <point x="642" y="582"/>
      <point x="596" y="548"/>
      <point x="524" y="536" type="curve"/>
      <point x="476" y="531" type="line"/>
      <point x="456" y="496" type="line"/>
      <point x="535" y="461" type="line"/>
      <point x="628" y="480"/>
      <point x="756" y="532"/>
      <point x="791" y="612" type="curve"/>
      <point x="786" y="713"/>
      <point x="725" y="761"/>
      <point x="667" y="761" type="curve"/>
      <point x="504" y="742"/>
      <point x="367" y="573"/>
      <point x="331" y="475" type="curve"/>
      <point x="331" y="409"/>
      <point x="380" y="360"/>
      <point x="466" y="321" type="curve"/>
      <point x="518" y="330"/>
      <point x="558" y="346"/>
      <point x="596" y="361" type="curve"/>
      <point x="604" y="353" type="line"/>
      <point x="527" y="293"/>
      <point x="380" y="283"/>
      <point x="380" y="237" type="curve"/>
      <point x="380" y="168"/>
      <point x="457" y="92"/>
      <point x="561" y="72" type="curve"/>
      <point x="664" y="81"/>
      <point x="864" y="224"/>
    </contour>
  </outline>
</glyph>
<glyph name="dvB_DH_VA" format="1">
  <advance width="1527"/>
  <outline>
    <contour>
      <point x="346" y="292" type="curve"/>
      <point x="379" y="325" type="line"/>
      <point x="316" y="366"/>
      <point x="269" y="413"/>
      <point x="232" y="461" type="curve"/>
      <point x="198" y="412" type="line"/>
      <point x="228" y="376"/>
      <point x="311" y="312"/>
    </contour>
    <contour>
      <point x="421" y="389" type="line"/>
      <point x="357" y="330"/>
      <point x="299" y="297"/>
      <point x="252" y="271" type="curve"/>
      <point x="231" y="281"/>
      <point x="217" y="307"/>
      <point x="217" y="327" type="curve" smooth="yes"/>
      <point x="217" y="370"/>
      <point x="248" y="411"/>
      <point x="302" y="438" type="curve" smooth="yes"/>
      <point x="335" y="407"/>
      <point x="366" y="382"/>
      <point x="403" y="358" type="curve"/>
      <point x="454" y="403" type="line"/>
      <point x="406" y="447"/>
      <point x="352" y="498"/>
      <point x="295" y="545" type="curve" smooth="yes"/>
      <point x="139" y="522"/>
      <point x="49" y="421"/>
      <point x="49" y="313" type="curve" smooth="yes"/>
      <point x="49" y="249"/>
      <point x="113" y="173"/>
      <point x="243" y="157" type="curve"/>
      <point x="314" y="216"/>
      <point x="395" y="285"/>
      <point x="467" y="340" type="curve"/>
    </contour>
    <contour>
      <point x="453" y="565" type="line"/>
      <point x="470" y="577"/>
      <point x="478" y="595"/>
      <point x="482" y="612" type="curve"/>
      <point x="470" y="627" type="line"/>
      <point x="3" y="627" type="line"/>
      <point x="-14" y="615"/>
      <point x="-26" y="597"/>
      <point x="-34" y="584" type="curve"/>
      <point x="-14" y="565" type="line"/>
    </contour>
    <contour>
      <point x="1655" y="565" type="line"/>
      <point x="1672" y="577"/>
      <point x="1680" y="595"/>
      <point x="1684" y="612" type="curve"/>
      <point x="1672" y="627" type="line"/>
      <point x="915" y="627" type="line"/>
      <point x="898" y="615"/>
      <point x="886" y="597"/>
      <point x="878" y="584" type="curve"/>
      <point x="898" y="565" type="line"/>
    </contour>
    <contour>
      <point x="1233" y="322" type="line"/>
      <point x="1184" y="282"/>
      <point x="1124" y="235"/>
      <point x="1079" y="201" type="curve"/>
      <point x="1056" y="213"/>
      <point x="1044" y="235"/>
      <point x="1044" y="268" type="curve" smooth="yes"/>
      <point x="1044" y="316"/>
      <point x="1086" y="378"/>
      <point x="1158" y="412" type="curve" smooth="yes"/>
      <point x="1183" y="393"/>
      <point x="1213" y="362"/>
      <point x="1237" y="336" type="curve"/>
      <point x="1292" y="379" type="line"/>
      <point x="1252" y="431"/>
      <point x="1164" y="527"/>
      <point x="1142" y="525" type="curve" smooth="yes"/>
      <point x="985" y="525"/>
      <point x="824" y="386"/>
      <point x="824" y="253" type="curve" smooth="yes"/>
      <point x="824" y="151"/>
      <point x="929" y="87"/>
      <point x="1070" y="87" type="curve"/>
      <point x="1127" y="140"/>
      <point x="1224" y="228"/>
      <point x="1273" y="275" type="curve"/>
    </contour>
    <contour>
      <point x="1530" y="597" type="line"/>
      <point x="1500" y="651"/>
      <point x="1442" y="673"/>
      <point x="1294" y="658" type="curve"/>
      <point x="1262" y="428" type="line"/>
      <point x="1240" y="410" type="line"/>
      <point x="1241" y="353" type="line"/>
      <point x="1215" y="245" type="line"/>
      <point x="1234" y="216" type="line"/>
      <point x="1185" y="150" type="line"/>
      <point x="1165" y="64" type="line"/>
      <point x="1255" y="-5"/>
      <point x="1389" y="-17"/>
      <point x="1428" y="25" type="curve"/>
      <point x="1432" y="419" type="line"/>
    </contour>
    <contour>
      <point x="1027" y="565" type="line"/>
      <point x="1044" y="577"/>
      <point x="1052" y="595"/>
      <point x="1056" y="612" type="curve"/>
      <point x="1044" y="627" type="line"/>
      <point x="863" y="627" type="line"/>
      <point x="845" y="615"/>
      <point x="832" y="597"/>
      <point x="824" y="584" type="curve"/>
      <point x="845" y="565" type="line"/>
    </contour>
    <contour>
      <point x="923" y="316" type="curve"/>
      <point x="862" y="369" type="line"/>
      <point x="808" y="298"/>
      <point x="704" y="225"/>
      <point x="607" y="200" type="curve"/>
      <point x="597" y="215" type="line"/>
      <point x="644" y="253"/>
      <point x="680" y="280"/>
      <point x="737" y="312" type="curve"/>
      <point x="752" y="383"/>
      <point x="709" y="430"/>
      <point x="631" y="458" type="curve"/>
      <point x="601" y="440"/>
      <point x="569" y="427"/>
      <point x="523" y="412" type="curve"/>
      <point x="507" y="427"/>
      <point x="491" y="438"/>
      <point x="491" y="472" type="curve"/>
      <point x="491" y="531"/>
      <point x="566" y="614"/>
      <point x="629" y="652" type="curve"/>
      <point x="647" y="649"/>
      <point x="655" y="637"/>
      <point x="657" y="620" type="curve"/>
      <point x="642" y="582"/>
      <point x="596" y="548"/>
      <point x="524" y="536" type="curve"/>
      <point x="476" y="531" type="line"/>
      <point x="456" y="496" type="line"/>
      <point x="535" y="461" type="line"/>
      <point x="628" y="480"/>
      <point x="756" y="532"/>
      <point x="791" y="612" type="curve"/>
      <point x="786" y="713"/>
      <point x="725" y="761"/>
      <point x="667" y="761" type="curve"/>
      <point x="504" y="742"/>
      <point x="367" y="573"/>
      <point x="331" y="475" type="curve"/>
      <point x="331" y="409"/>
      <point x="380" y="360"/>
      <point x="466" y="321" type="curve"/>
      <point x="518" y="330"/>
      <point x="558" y="346"/>
      <point x="596" y="361" type="curve"/>
      <point x="604" y="353" type="line"/>
      <point x="527" y="293"/>
      <point x="380" y="283"/>
      <point x="380" y="237" type="curve"/>
      <point x="380" y="168"/>
      <point x="457" y="92"/>
      <point x="561" y="72" type="curve"/>
      <point x="664" y="81"/>
      <point x="864" y="224"/>
    </contour>
  </outline>
</glyph>
<glyph name="dvB_JHA" format="1">
  <advance width="1351"/>
  <outline>
    <contour>
      <point x="634" y="565" type="line"/>
      <point x="651" y="577"/>
      <point x="659" y="595"/>
      <point x="663" y="612" type="curve"/>
      <point x="651" y="627" type="line"/>
      <point x="3" y="627" type="line"/>
      <point x="-14" y="615"/>
      <point x="-26" y="597"/>
      <point x="-34" y="584" type="curve"/>
      <point x="-14" y="565" type="line"/>
    </contour>
    <contour>
      <point x="419" y="227" type="curve"/>
      <point x="456" y="265" type="line"/>
      <point x="393" y="312"/>
      <point x="336" y="369"/>
      <point x="299" y="410" type="curve"/>
      <point x="271" y="347" type="line"/>
      <point x="301" y="311"/>
      <point x="384" y="247"/>
    </contour>
    <contour>
      <point x="464" y="321" type="line"/>
      <point x="425" y="286"/>
      <point x="356" y="235"/>
      <point x="293" y="190" type="curve"/>
      <point x="267" y="206"/>
      <point x="252" y="231"/>
      <point x="252" y="268" type="curve"/>
      <point x="252" y="329"/>
      <point x="317" y="395"/>
      <point x="375" y="422" type="curve" smooth="yes"/>
      <point x="406" y="401"/>
      <point x="442" y="366"/>
      <point x="467" y="337" type="curve"/>
      <point x="520" y="377" type="line"/>
      <point x="491" y="421"/>
      <point x="415" y="509"/>
      <point x="355" y="530" type="curve" smooth="yes"/>
      <point x="199" y="530"/>
      <point x="34" y="396"/>
      <point x="34" y="259" type="curve"/>
      <point x="34" y="140"/>
      <point x="147" y="75"/>
      <point x="291" y="75" type="curve"/>
      <point x="358" y="140"/>
      <point x="466" y="241"/>
      <point x="504" y="279" type="curve"/>
    </contour>
    <contour>
      <point x="892" y="275" type="curve"/>
      <point x="968" y="307"/>
      <point x="1051" y="347"/>
      <point x="1117" y="397" type="curve"/>
      <point x="1077" y="466" type="line"/>
      <point x="994" y="394"/>
      <point x="873" y="335"/>
      <point x="775" y="297" type="curve"/>
      <point x="720" y="303"/>
      <point x="666" y="311"/>
      <point x="625" y="322" type="curve"/>
      <point x="631" y="341" type="line"/>
      <point x="712" y="345"/>
      <point x="785" y="360"/>
      <point x="844" y="378" type="curve"/>
      <point x="895" y="421"/>
      <point x="923" y="501"/>
      <point x="903" y="549" type="curve"/>
      <point x="848" y="590"/>
      <point x="795" y="604"/>
      <point x="716" y="618" type="curve"/>
      <point x="667" y="580" type="line"/>
      <point x="713" y="561"/>
      <point x="758" y="547"/>
      <point x="785" y="525" type="curve"/>
      <point x="780" y="515" type="line"/>
      <point x="716" y="498"/>
      <point x="650" y="490"/>
      <point x="558" y="485" type="curve"/>
      <point x="463" y="427"/>
      <point x="427" y="333"/>
      <point x="468" y="274" type="curve"/>
      <point x="565" y="253"/>
      <point x="650" y="241"/>
      <point x="741" y="222" type="curve"/>
      <point x="744" y="213" type="line"/>
      <point x="711" y="180"/>
      <point x="645" y="153"/>
      <point x="591" y="146" type="curve"/>
      <point x="570" y="164"/>
      <point x="552" y="190"/>
      <point x="542" y="208" type="curve"/>
      <point x="470" y="226"/>
      <point x="403" y="167"/>
      <point x="368" y="77" type="curve"/>
      <point x="424" y="8"/>
      <point x="479" y="-101"/>
      <point x="511" y="-201" type="curve"/>
      <point x="627" y="-210"/>
      <point x="695" y="-159"/>
      <point x="697" y="-112" type="curve"/>
      <point x="660" y="-56"/>
      <point x="625" y="-14"/>
      <point x="572" y="31" type="curve"/>
      <point x="581" y="40" type="line"/>
      <point x="597" y="30"/>
      <point x="614" y="19"/>
      <point x="630" y="9" type="curve"/>
      <point x="728" y="16"/>
      <point x="821" y="47"/>
      <point x="881" y="86" type="curve" smooth="yes"/>
      <point x="909" y="137"/>
      <point x="923" y="177"/>
      <point x="923" y="209" type="curve" smooth="yes"/>
      <point x="923" y="238"/>
      <point x="912" y="259"/>
    </contour>
    <contour>
      <point x="1353" y="597" type="line"/>
      <point x="1323" y="651"/>
      <point x="1265" y="673"/>
      <point x="1117" y="658" type="curve"/>
      <point x="1060" y="393" type="line"/>
      <point x="1087" y="360" type="line"/>
      <point x="1040" y="304" type="line"/>
      <point x="988" y="64" type="line"/>
      <point x="1078" y="-5"/>
      <point x="1212" y="-17"/>
      <point x="1251" y="25" type="curve"/>
      <point x="1255" y="419" type="line"/>
    </contour>
    <contour>
      <point x="1478" y="565" type="line"/>
      <point x="1495" y="577"/>
      <point x="1503" y="595"/>
      <point x="1507" y="612" type="curve"/>
      <point x="1495" y="627" type="line"/>
      <point x="380" y="627" type="line"/>
      <point x="363" y="615"/>
      <point x="351" y="597"/>
      <point x="343" y="584" type="curve"/>
      <point x="363" y="565" type="line"/>
    </contour>
  </outline>
</glyph>
<glyph name="dvB_J_YA" format="1">
  <advance width="1776"/>
  <outline>
    <contour>
      <point x="1145" y="565" type="line"/>
      <point x="1162" y="577"/>
      <point x="1170" y="595"/>
      <point x="1174" y="612" type="curve"/>
      <point x="1162" y="627" type="line"/>
      <point x="412" y="627" type="line"/>
      <point x="395" y="615"/>
      <point x="383" y="597"/>
      <point x="375" y="584" type="curve"/>
      <point x="395" y="565" type="line"/>
    </contour>
    <contour>
      <point x="583" y="503" type="curve"/>
      <point x="502" y="447"/>
      <point x="443" y="351"/>
      <point x="429" y="276" type="curve" smooth="yes"/>
      <point x="434" y="164"/>
      <point x="529" y="82"/>
      <point x="621" y="49" type="curve" smooth="yes"/>
      <point x="732" y="41"/>
      <point x="883" y="119"/>
      <point x="887" y="213" type="curve"/>
      <point x="880" y="249" type="line"/>
      <point x="885" y="255" type="line"/>
      <point x="934" y="234" type="line"/>
      <point x="1021" y="208"/>
      <point x="1114" y="237"/>
      <point x="1205" y="302" type="curve"/>
      <point x="1152" y="353" type="line"/>
      <point x="1074" y="316"/>
      <point x="967" y="307"/>
      <point x="908" y="344" type="curve"/>
      <point x="889" y="361"/>
      <point x="869" y="381"/>
      <point x="859" y="407" type="curve"/>
      <point x="788" y="413"/>
      <point x="738" y="366"/>
      <point x="716" y="274" type="curve"/>
      <point x="728" y="267"/>
      <point x="738" y="259"/>
      <point x="749" y="252" type="curve" smooth="yes"/>
      <point x="745" y="215"/>
      <point x="692" y="170"/>
      <point x="643" y="163" type="curve"/>
      <point x="629" y="187"/>
      <point x="623" y="221"/>
      <point x="626" y="251" type="curve" smooth="yes"/>
      <point x="632" y="309"/>
      <point x="682" y="356"/>
      <point x="731" y="391" type="curve"/>
      <point x="738" y="456"/>
      <point x="680" y="503"/>
    </contour>
    <contour>
      <point x="634" y="565" type="line"/>
      <point x="651" y="577"/>
      <point x="659" y="595"/>
      <point x="663" y="612" type="curve"/>
      <point x="651" y="627" type="line"/>
      <point x="3" y="627" type="line"/>
      <point x="-14" y="615"/>
      <point x="-26" y="597"/>
      <point x="-34" y="584" type="curve"/>
      <point x="-14" y="565" type="line"/>
    </contour>
    <contour>
      <point x="419" y="227" type="curve"/>
      <point x="456" y="265" type="line"/>
      <point x="393" y="312"/>
      <point x="336" y="369"/>
      <point x="299" y="410" type="curve"/>
      <point x="271" y="347" type="line"/>
      <point x="301" y="311"/>
      <point x="384" y="247"/>
    </contour>
    <contour>
      <point x="464" y="321" type="line"/>
      <point x="425" y="286"/>
      <point x="356" y="235"/>
      <point x="293" y="190" type="curve"/>
      <point x="267" y="206"/>
      <point x="252" y="231"/>
      <point x="252" y="268" type="curve"/>
      <point x="252" y="329"/>
      <point x="317" y="395"/>
      <point x="375" y="422" type="curve" smooth="yes"/>
      <point x="406" y="401"/>
      <point x="442" y="366"/>
      <point x="467" y="337" type="curve"/>
      <point x="520" y="377" type="line"/>
      <point x="491" y="421"/>
      <point x="415" y="509"/>
      <point x="355" y="530" type="curve" smooth="yes"/>
      <point x="199" y="530"/>
      <point x="34" y="396"/>
      <point x="34" y="259" type="curve"/>
      <point x="34" y="140"/>
      <point x="147" y="75"/>
      <point x="291" y="75" type="curve"/>
      <point x="358" y="140"/>
      <point x="466" y="241"/>
      <point x="504" y="279" type="curve"/>
    </contour>
    <contour>
      <point x="1779" y="597" type="line"/>
      <point x="1749" y="651"/>
      <point x="1691" y="673"/>
      <point x="1543" y="658" type="curve"/>
      <point x="1457" y="262" type="line"/>
      <point x="1485" y="231" type="line"/>
      <point x="1438" y="171" type="line"/>
      <point x="1414" y="64" type="line"/>
      <point x="1504" y="-5"/>
      <point x="1638" y="-17"/>
      <point x="1677" y="25" type="curve"/>
      <point x="1681" y="419" type="line"/>
    </contour>
    <contour>
      <point x="1904" y="565" type="line"/>
      <point x="1921" y="577"/>
      <point x="1929" y="595"/>
      <point x="1933" y="612" type="curve"/>
      <point x="1921" y="627" type="line"/>
      <point x="945" y="627" type="line"/>
      <point x="927" y="615"/>
      <point x="914" y="597"/>
      <point x="906" y="584" type="curve"/>
      <point x="927" y="565" type="line"/>
    </contour>
    <contour>
      <point x="1033" y="578" type="curve"/>
      <point x="1001" y="524"/>
      <point x="1048" y="464"/>
      <point x="1144" y="440" type="curve"/>
      <point x="1163" y="450"/>
      <point x="1185" y="459"/>
      <point x="1207" y="465" type="curve" smooth="yes"/>
      <point x="1228" y="470"/>
      <point x="1250" y="471"/>
      <point x="1271" y="466" type="curve" smooth="yes"/>
      <point x="1251" y="344"/>
      <point x="979" y="317"/>
      <point x="979" y="250" type="curve" smooth="yes"/>
      <point x="979" y="170"/>
      <point x="1119" y="81"/>
      <point x="1199" y="81" type="curve" smooth="yes"/>
      <point x="1265" y="81"/>
      <point x="1474" y="220"/>
      <point x="1534" y="318" type="curve"/>
      <point x="1480" y="365" type="line"/>
      <point x="1420" y="298"/>
      <point x="1371" y="267"/>
      <point x="1290" y="225" type="curve" smooth="yes"/>
      <point x="1266" y="227"/>
      <point x="1225" y="250"/>
      <point x="1234" y="284" type="curve" smooth="yes"/>
      <point x="1330" y="338"/>
      <point x="1441" y="425"/>
      <point x="1441" y="500" type="curve" smooth="yes"/>
      <point x="1441" y="551"/>
      <point x="1357" y="627"/>
      <point x="1238" y="627" type="curve" smooth="yes"/>
      <point x="1180" y="627"/>
      <point x="1089" y="615"/>
    </contour>
  </outline>
</glyph>
<glyph name="dvB_LA" format="1">
  <advance width="1248"/>
  <outline>
    <contour>
      <point x="634" y="565" type="line"/>
      <point x="651" y="577"/>
      <point x="659" y="595"/>
      <point x="663" y="612" type="curve"/>
      <point x="651" y="627" type="line"/>
      <point x="3" y="627" type="line"/>
      <point x="-14" y="615"/>
      <point x="-26" y="597"/>
      <point x="-34" y="584" type="curve"/>
      <point x="-14" y="565" type="line"/>
    </contour>
    <contour>
      <point x="419" y="227" type="curve"/>
      <point x="456" y="265" type="line"/>
      <point x="393" y="312"/>
      <point x="336" y="369"/>
      <point x="299" y="410" type="curve"/>
      <point x="271" y="347" type="line"/>
      <point x="301" y="311"/>
      <point x="384" y="247"/>
    </contour>
    <contour>
      <point x="464" y="321" type="line"/>
      <point x="425" y="286"/>
      <point x="356" y="235"/>
      <point x="293" y="190" type="curve"/>
      <point x="267" y="206"/>
      <point x="252" y="231"/>
      <point x="252" y="268" type="curve"/>
      <point x="252" y="329"/>
      <point x="317" y="395"/>
      <point x="375" y="422" type="curve" smooth="yes"/>
      <point x="406" y="401"/>
      <point x="442" y="366"/>
      <point x="467" y="337" type="curve"/>
      <point x="520" y="377" type="line"/>
      <point x="491" y="421"/>
      <point x="415" y="509"/>
      <point x="355" y="530" type="curve" smooth="yes"/>
      <point x="199" y="530"/>
      <point x="34" y="396"/>
      <point x="34" y="259" type="curve"/>
      <point x="34" y="140"/>
      <point x="147" y="75"/>
      <point x="291" y="75" type="curve"/>
      <point x="358" y="140"/>
      <point x="466" y="241"/>
      <point x="504" y="279" type="curve"/>
    </contour>
    <contour>
      <point x="1250" y="597" type="line"/>
      <point x="1220" y="651"/>
      <point x="1162" y="673"/>
      <point x="1014" y="658" type="curve"/>
      <point x="949" y="358" type="line"/>
      <point x="970" y="332" type="line"/>
      <point x="929" y="266" type="line"/>
      <point x="885" y="64" type="line"/>
      <point x="975" y="-5"/>
      <point x="1109" y="-17"/>
      <point x="1148" y="25" type="curve"/>
      <point x="1152" y="419" type="line"/>
    </contour>
    <contour>
      <point x="1375" y="565" type="line"/>
      <point x="1392" y="577"/>
      <point x="1400" y="595"/>
      <point x="1404" y="612" type="curve"/>
      <point x="1392" y="627" type="line"/>
      <point x="380" y="627" type="line"/>
      <point x="363" y="615"/>
      <point x="351" y="597"/>
      <point x="343" y="584" type="curve"/>
      <point x="363" y="565" type="line"/>
    </contour>
    <contour>
      <point x="777" y="316" type="line"/>
      <point x="800" y="336"/>
      <point x="824" y="357"/>
      <point x="847" y="377" type="curve"/>
      <point x="841" y="440"/>
      <point x="810" y="482"/>
      <point x="738" y="501" type="curve"/>
      <point x="704" y="509"/>
      <point x="661" y="513"/>
      <point x="607" y="510" type="curve"/>
      <point x="482" y="460"/>
      <point x="357" y="356"/>
      <point x="357" y="259" type="curve" smooth="yes"/>
      <point x="357" y="183"/>
      <point x="469" y="51"/>
      <point x="577" y="0" type="curve"/>
      <point x="701" y="23"/>
      <point x="740" y="109"/>
      <point x="707" y="158" type="curve"/>
      <point x="618" y="192"/>
      <point x="583" y="226"/>
      <point x="557" y="278" type="curve"/>
      <point x="561" y="325"/>
      <point x="616" y="392"/>
      <point x="641" y="392" type="curve"/>
      <point x="671" y="392"/>
      <point x="692" y="370"/>
      <point x="699" y="347" type="curve"/>
      <point x="678" y="337"/>
      <point x="658" y="327"/>
      <point x="637" y="317" type="curve"/>
      <point x="626" y="265"/>
      <point x="674" y="206"/>
      <point x="789" y="186" type="curve"/>
      <point x="876" y="257"/>
      <point x="955" y="328"/>
      <point x="1018" y="397" type="curve"/>
      <point x="971" y="458" type="line"/>
      <point x="915" y="401"/>
      <point x="848" y="347"/>
      <point x="787" y="309" type="curve"/>
    </contour>
  </outline>
</glyph>
